<svg height="507.892" viewBox="0 0 394.935 380.919" width="526.58" xmlns="http://www.w3.org/2000/svg" xmlns:xlink="http://www.w3.org/1999/xlink"><defs><style>*{stroke-linecap:butt;stroke-linejoin:round}</style></defs><g id="figure_1"><path d="M0 380.92h394.935V0H0z" style="fill:none" id="patch_1"/><g id="axes_1"><path d="M30.615 325.892h357.12V59.78H30.615z" style="fill:none" id="patch_2"/><g id="matplotlib.axis_1"><g id="xtick_1"><g id="line2d_1"><defs><path d="M0 0v3.5" id="m2c5a34fcb7"/></defs><use style="fill:#969696" x="69.238" xlink:href="#m2c5a34fcb7" y="325.892"/></g><g style="fill:#969696" transform="matrix(.16 0 0 -.16 40.03 353.752)" id="text_1"><defs><path d="M2714 1357 3174 0h596L2298 4314h-672L160 0h576l448 1357h1530zm-1415 435 423 1248c83 262 153 525 217 781h13c64-250 128-506 224-787l422-1242H1299z" id="MyriadPro-Regular-41" transform="scale(.01563)"/><path d="M3059 3098h-563V1197c0-103-19-205-51-288-103-250-365-512-743-512-512 0-691 397-691 985v1716H448V1286C448 198 1030-70 1517-70c550 0 877 326 1024 576h13l32-506h499c-19 243-26 525-26 845v2253z" id="MyriadPro-Regular-75" transform="scale(.01563)"/><path d="M250 147C467 19 781-70 1120-70c736 0 1158 390 1158 934 0 461-275 730-812 934-404 154-589 269-589 525 0 231 185 423 518 423 288 0 512-103 634-180l141 410c-173 102-448 192-762 192-666 0-1069-410-1069-909 0-371 263-678 819-877 416-153 576-300 576-569 0-256-192-461-601-461-282 0-576 115-743 224L250 147z" id="MyriadPro-Regular-73" transform="scale(.01563)"/><path d="M595 3667v-569H115v-429h480V979c0-365 58-640 218-806C947 19 1158-70 1421-70c217 0 390 38 499 83l-26 422c-83-25-172-38-326-38-314 0-422 217-422 601v1671h806v429h-806v742l-551-173z" id="MyriadPro-Regular-74" transform="scale(.01563)"/><path d="M467 0h557v1651c0 96 13 186 26 263 76 422 358 723 755 723 77 0 134-7 192-19v531c-51 13-96 19-160 19-378 0-717-262-858-678h-25l-20 608H442c19-288 25-602 25-967V0z" id="MyriadPro-Regular-72" transform="scale(.01563)"/><path d="M2643 1901c0 621-230 1267-1177 1267-391 0-762-109-1018-275l128-371c218 140 518 230 806 230 634 0 704-461 704-717v-64C890 1978 224 1568 224 819c0-448 320-889 947-889 442 0 775 217 947 460h20l44-390h512c-38 211-51 474-51 742v1159zm-544-858c0-57-13-121-32-179-89-262-345-518-749-518-288 0-531 172-531 537 0 602 698 711 1312 698v-538z" id="MyriadPro-Regular-61" transform="scale(.01563)"/><path d="M467 0h563v4544H467V0z" id="MyriadPro-Regular-6c" transform="scale(.01563)"/><path d="M1030 0v3098H467V0h563zM749 4320c-205 0-352-154-352-352 0-192 141-346 339-346 224 0 365 154 358 346 0 198-134 352-345 352z" id="MyriadPro-Regular-69" transform="scale(.01563)"/></defs><use xlink:href="#MyriadPro-Regular-41"/><use x="61.2" xlink:href="#MyriadPro-Regular-75"/><use x="116.3" xlink:href="#MyriadPro-Regular-73"/><use x="155.9" xlink:href="#MyriadPro-Regular-74"/><use x="189" xlink:href="#MyriadPro-Regular-72"/><use x="221.7" xlink:href="#MyriadPro-Regular-61"/><use x="269.9" xlink:href="#MyriadPro-Regular-6c"/><use x="293.5" xlink:href="#MyriadPro-Regular-69"/><use x="316.9" xlink:href="#MyriadPro-Regular-61"/></g></g><g id="xtick_2"><use style="fill:#969696" x="125.213" xlink:href="#m2c5a34fcb7" y="325.892" id="line2d_2"/><g style="fill:#969696" transform="matrix(.16 0 0 -.16 107.22 353.752)" id="text_2"><defs><path d="M486 13c186-26 480-51 864-51 704 0 1191 128 1492 403 217 211 364 493 364 864 0 640-480 979-889 1081v13c454 167 729 531 729 947 0 340-134 596-358 762-269 218-627 314-1184 314-390 0-774-39-1018-90V13zm557 3865c90 20 237 39 493 39 563 0 947-199 947-704 0-416-345-723-934-723h-506v1388zm0-1811h461c608 0 1114-243 1114-832 0-627-532-838-1108-838-198 0-358 6-467 25v1645z" id="MyriadPro-Regular-42" transform="scale(.01563)"/><path d="M115 0h2515v448H819v13c141 160 269 313 397 486l1382 1799 7 352H243v-455h1677v-13c-141-166-269-313-403-480L115 326V0z" id="MyriadPro-Regular-7a" transform="scale(.01563)"/></defs><use xlink:href="#MyriadPro-Regular-42"/><use x="54.2" xlink:href="#MyriadPro-Regular-72"/><use x="86.9" xlink:href="#MyriadPro-Regular-61"/><use x="135.1" xlink:href="#MyriadPro-Regular-7a"/><use x="177.9" xlink:href="#MyriadPro-Regular-69"/><use x="201.3" xlink:href="#MyriadPro-Regular-6c"/></g></g><g id="xtick_3"><use style="fill:#969696" x="181.188" xlink:href="#m2c5a34fcb7" y="325.892" id="line2d_3"/><g style="fill:#969696" transform="matrix(.16 0 0 -.16 161.939 353.752)" id="text_3"><defs><path d="M3386 582c-224-108-570-179-909-179-1050 0-1658 679-1658 1735 0 1132 672 1779 1683 1779 359 0 660-77 871-179l134 454c-147 77-486 192-1024 192-1337 0-2253-915-2253-2266C230 704 1146-70 2362-70c524 0 934 108 1139 211l-115 441z" id="MyriadPro-Regular-43" transform="scale(.01563)"/><path d="M467 0h563v1869c0 109 7 192 39 269 102 307 390 563 755 563 531 0 717-423 717-922V0h563v1843c0 1069-666 1325-1082 1325-211 0-409-64-576-160-172-96-313-237-403-397h-13v1933H467V0z" id="MyriadPro-Regular-68" transform="scale(.01563)"/><path d="M467 0h563v1862c0 96 13 192 39 263 96 313 384 576 755 576 531 0 717-416 717-915V0h563v1850c0 1062-666 1318-1094 1318-512 0-871-288-1024-582h-13l-32 512H442c19-256 25-519 25-839V0z" id="MyriadPro-Regular-6e" transform="scale(.01563)"/></defs><use xlink:href="#MyriadPro-Regular-43"/><use x="58" xlink:href="#MyriadPro-Regular-68"/><use x="113.5" xlink:href="#MyriadPro-Regular-69"/><use x="136.9" xlink:href="#MyriadPro-Regular-6e"/><use x="192.4" xlink:href="#MyriadPro-Regular-61"/></g></g><g id="xtick_4"><use style="fill:#969696" x="237.162" xlink:href="#m2c5a34fcb7" y="325.892" id="line2d_4"/><g style="fill:#969696" transform="matrix(.16 0 0 -.16 206.635 353.385)" id="text_4"><defs><path d="M3770 2266H2349v-448h877V531c-128-64-378-115-743-115-1005 0-1664 646-1664 1741 0 1081 685 1734 1735 1734 435 0 723-83 953-185l135 454c-186 90-576 198-1076 198-1446 0-2329-940-2336-2227 0-672 231-1248 602-1606 422-403 960-570 1613-570 582 0 1075 147 1325 237v2074z" id="MyriadPro-Regular-47" transform="scale(.01563)"/><path d="M2957 1446c6 58 19 148 19 263 0 569-269 1459-1280 1459-902 0-1453-736-1453-1670C243 563 813-70 1766-70c493 0 832 108 1031 198l-96 403c-211-89-455-160-858-160-563 0-1049 314-1062 1075h2176zM787 1850c45 390 295 915 864 915 634 0 787-557 781-915H787z" id="MyriadPro-Regular-65" transform="scale(.01563)"/><path d="M467 0h551v1869c0 96 12 192 44 275 90 282 346 563 698 563 429 0 646-358 646-851V0h551v1914c0 102 19 204 45 281 96 275 345 512 665 512 455 0 672-358 672-953V0h551v1824c0 1075-608 1344-1018 1344-294 0-499-77-685-218-128-96-249-230-345-403h-13c-135 365-455 621-877 621-512 0-800-275-973-570h-19l-26 500H442c19-256 25-519 25-839V0z" id="MyriadPro-Regular-6d" transform="scale(.01563)"/><path d="M58 3098 1203 243c26-70 39-115 39-147s-20-77-45-134c-128-288-320-506-474-628-166-140-352-230-493-275l141-473c141 25 416 121 691 364 384 333 660 877 1063 1940l845 2208h-596l-614-1818c-77-224-141-461-198-646h-13c-51 185-128 428-199 633L672 3098H58z" id="MyriadPro-Regular-79" transform="scale(.01563)"/></defs><use xlink:href="#MyriadPro-Regular-47"/><use x="64.6" xlink:href="#MyriadPro-Regular-65"/><use x="114.7" xlink:href="#MyriadPro-Regular-72"/><use x="147.4" xlink:href="#MyriadPro-Regular-6d"/><use x="230.8" xlink:href="#MyriadPro-Regular-61"/><use x="279" xlink:href="#MyriadPro-Regular-6e"/><use x="334.5" xlink:href="#MyriadPro-Regular-79"/></g></g><g id="xtick_5"><use style="fill:#969696" x="293.137" xlink:href="#m2c5a34fcb7" y="325.892" id="line2d_5"/><g style="fill:#969696" transform="matrix(.16 0 0 -.16 269.145 353.752)" id="text_5"><defs><path d="M4230 0h544l-268 4314h-711l-768-2087c-192-544-345-1017-454-1453h-19c-109 448-256 922-436 1453l-736 2087H672L371 0h531l116 1850c38 646 70 1369 83 1907h13c121-512 294-1069 499-1677L2310 26h423l761 2092c218 589 397 1133 544 1639h20c-7-538 32-1261 64-1863L4230 0z" id="MyriadPro-Regular-4d" transform="scale(.01563)"/><path d="m102 3098 1050-1517L51 0h621l448 698c115 185 224 345 326 537h13c109-185 211-358 333-537L2246 0h640L1798 1600l1056 1498h-608l-435-660c-102-166-205-326-307-512h-19c-103 173-199 333-314 506l-441 666H102z" id="MyriadPro-Regular-78" transform="scale(.01563)"/><path d="M2579 538c-160-71-371-154-691-154-614 0-1075 442-1075 1158 0 647 384 1172 1094 1172 307 0 519-71 653-148l128 436c-154 76-448 160-781 160-1011 0-1664-692-1664-1645C243 570 851-70 1786-70c416 0 742 108 889 185l-96 423z" id="MyriadPro-Regular-63" transform="scale(.01563)"/><path d="M1779 3168c-857 0-1536-608-1536-1645C243 544 890-70 1728-70c749 0 1542 499 1542 1644 0 948-601 1594-1491 1594zm-13-422c666 0 928-666 928-1191 0-697-403-1203-940-1203-551 0-941 512-941 1190 0 589 288 1204 953 1204z" id="MyriadPro-Regular-6f" transform="scale(.01563)"/></defs><use xlink:href="#MyriadPro-Regular-4d"/><use x="80.4" xlink:href="#MyriadPro-Regular-65"/><use x="130.5" xlink:href="#MyriadPro-Regular-78"/><use x="176.8" xlink:href="#MyriadPro-Regular-69"/><use x="200.2" xlink:href="#MyriadPro-Regular-63"/><use x="245" xlink:href="#MyriadPro-Regular-6f"/></g></g><g id="xtick_6"><use style="fill:#969696" x="349.112" xlink:href="#m2c5a34fcb7" y="325.892" id="line2d_6"/><g id="text_6"><g style="fill:#969696" transform="matrix(.16 0 0 -.16 326.456 353.752)"><defs><path d="M480 4314V1773C480 435 1146-70 2029-70c934 0 1632 544 1632 1868v2516h-563V1760c0-954-410-1376-1050-1376-576 0-1005 410-1005 1376v2554H480z" id="MyriadPro-Regular-55" transform="scale(.01563)"/><path d="M2579 4544V2694h-13c-140 250-460 474-934 474-755 0-1395-634-1389-1664C243 563 819-70 1568-70c506 0 883 262 1056 608h13l25-538h506c-19 211-26 525-26 800v3744h-563zm0-3245c0-89-6-166-25-243-103-422-448-672-826-672-608 0-915 518-915 1146 0 684 345 1196 928 1196 422 0 729-294 813-652 19-71 25-167 25-237v-538z" id="MyriadPro-Regular-64" transform="scale(.01563)"/></defs><use xlink:href="#MyriadPro-Regular-55"/><use x="64.7" xlink:href="#MyriadPro-Regular-6e"/><use x="120.2" xlink:href="#MyriadPro-Regular-69"/><use x="143.6" xlink:href="#MyriadPro-Regular-74"/><use x="176.7" xlink:href="#MyriadPro-Regular-65"/><use x="226.8" xlink:href="#MyriadPro-Regular-64"/></g><g style="fill:#969696" transform="matrix(.16 0 0 -.16 328.842 370.552)"><defs><path d="M269 211C499 58 954-70 1370-70c1017 0 1510 582 1510 1248 0 633-371 985-1101 1267-595 230-857 429-857 832 0 294 224 646 812 646 391 0 679-128 820-205l153 455c-192 109-512 211-953 211-839 0-1396-499-1396-1171 0-608 436-973 1140-1223 582-224 812-454 812-857 0-435-332-736-902-736-384 0-749 128-998 281L269 211z" id="MyriadPro-Regular-53" transform="scale(.01563)"/></defs><use xlink:href="#MyriadPro-Regular-53"/><use x="49.3" xlink:href="#MyriadPro-Regular-74"/><use x="82.4" xlink:href="#MyriadPro-Regular-61"/><use x="130.6" xlink:href="#MyriadPro-Regular-74"/><use x="163.7" xlink:href="#MyriadPro-Regular-65"/><use x="213.8" xlink:href="#MyriadPro-Regular-73"/></g></g></g></g><g id="matplotlib.axis_2"><g id="ytick_1"><path clip-path="url(#p215185f2b9)" d="M30.615 325.892h357.12" style="fill:none;stroke:#969696;stroke-linecap:square;stroke-width:.3" id="line2d_7"/><g id="line2d_8"><defs><path d="M0 0h-3.5" id="m0cc849a13f" style="stroke:#969696;stroke-width:.3"/></defs><use style="fill:#969696;stroke:#969696;stroke-width:.3" x="30.615" xlink:href="#m0cc849a13f" y="325.892"/></g><g style="fill:#969696" transform="matrix(.16 0 0 -.16 15.408 331.572)" id="text_7"><defs><path d="M1677 4230c-845 0-1447-768-1447-2163C243 691 794-70 1606-70c922 0 1447 780 1447 2195 0 1325-499 2105-1376 2105zm-32-435c582 0 845-672 845-1696 0-1062-276-1734-852-1734-512 0-844 614-844 1696 0 1133 358 1734 851 1734z" id="MyriadPro-Regular-30" transform="scale(.01563)"/></defs><use xlink:href="#MyriadPro-Regular-30"/></g></g><g id="ytick_2"><path clip-path="url(#p215185f2b9)" d="M30.615 271.584h357.12" style="fill:none;stroke:#969696;stroke-linecap:square;stroke-width:.3" id="line2d_9"/><use style="fill:#969696;stroke:#969696;stroke-width:.3" x="30.615" xlink:href="#m0cc849a13f" y="271.584" id="line2d_10"/><g style="fill:#969696" transform="matrix(.16 0 0 -.16 15.408 277.264)" id="text_8"><defs><path d="M2771 4160H781L512 2163c154 19 339 45 576 45 832 0 1190-384 1197-922 0-556-455-902-986-902-377 0-717 128-889 230L269 186C467 58 851-70 1306-70c902 0 1548 608 1548 1420 0 525-268 884-595 1069-256 154-576 224-896 224-153 0-243-13-339-25l160 1068h1587v474z" id="MyriadPro-Regular-35" transform="scale(.01563)"/></defs><use xlink:href="#MyriadPro-Regular-35"/></g></g><g id="ytick_3"><path clip-path="url(#p215185f2b9)" d="M30.615 217.275h357.12" style="fill:none;stroke:#969696;stroke-linecap:square;stroke-width:.3" id="line2d_11"/><use style="fill:#969696;stroke:#969696;stroke-width:.3" x="30.615" xlink:href="#m0cc849a13f" y="217.275" id="line2d_12"/><g style="fill:#969696" transform="matrix(.16 0 0 -.16 7.2 222.955)" id="text_9"><defs><path d="M1510 0h544v4160h-480l-908-486 108-429 724 390h12V0z" id="MyriadPro-Regular-31" transform="scale(.01563)"/></defs><use xlink:href="#MyriadPro-Regular-31"/><use x="51.3" xlink:href="#MyriadPro-Regular-30"/></g></g><g id="ytick_4"><path clip-path="url(#p215185f2b9)" d="M30.615 162.967h357.12" style="fill:none;stroke:#969696;stroke-linecap:square;stroke-width:.3" id="line2d_13"/><use style="fill:#969696;stroke:#969696;stroke-width:.3" x="30.615" xlink:href="#m0cc849a13f" y="162.967" id="line2d_14"/><g style="fill:#969696" transform="matrix(.16 0 0 -.16 7.2 168.647)" id="text_10"><use xlink:href="#MyriadPro-Regular-31"/><use x="51.3" xlink:href="#MyriadPro-Regular-35"/></g></g><g id="ytick_5"><path clip-path="url(#p215185f2b9)" d="M30.615 108.658h357.12" style="fill:none;stroke:#969696;stroke-linecap:square;stroke-width:.3" id="line2d_15"/><use style="fill:#969696;stroke:#969696;stroke-width:.3" x="30.615" xlink:href="#m0cc849a13f" y="108.658" id="line2d_16"/><g style="fill:#969696" transform="matrix(.16 0 0 -.16 7.2 114.338)" id="text_11"><defs><path d="M2944 0v467H1075v13l333 307c877 845 1434 1466 1434 2234 0 595-378 1209-1274 1209-480 0-890-179-1178-422l180-397c192 160 505 352 883 352 621 0 825-390 825-813-6-627-486-1164-1548-2176L288 346V0h2656z" id="MyriadPro-Regular-32" transform="scale(.01563)"/></defs><use xlink:href="#MyriadPro-Regular-32"/><use x="51.3" xlink:href="#MyriadPro-Regular-30"/></g></g></g><path clip-path="url(#p215185f2b9)" d="M46.848 325.892h44.78V90.736h-44.78z" style="fill:#1f77b4" id="patch_3"/><path clip-path="url(#p215185f2b9)" d="M102.823 325.892h44.78V59.78h-44.78z" style="fill:#1f77b4" id="patch_4"/><path clip-path="url(#p215185f2b9)" d="M158.798 325.892h44.78v-75.489h-44.78z" style="fill:#1f77b4" id="patch_5"/><path clip-path="url(#p215185f2b9)" d="M214.772 325.892h44.78v-91.238h-44.78z" style="fill:#1f77b4" id="patch_6"/><path clip-path="url(#p215185f2b9)" d="M270.747 325.892h44.78V97.796h-44.78z" style="fill:#1f77b4" id="patch_7"/><path clip-path="url(#p215185f2b9)" d="M326.722 325.892h44.78v-92.867h-44.78z" style="fill:#1f77b4" id="patch_8"/><g style="fill:#969696" transform="matrix(.18 0 0 -.18 30.615 19.78)" id="text_12"><defs><path d="M83 3098 1261 0h537l1216 3098h-588l-602-1741c-102-282-192-538-262-794h-20c-64 256-147 512-249 794L685 3098H83z" id="MyriadPro-Regular-76" transform="scale(.01563)"/><path d="M3110 2246c0 378 13 628 26 852h-493l-25-468h-13c-135 256-429 538-967 538-710 0-1395-595-1395-1645C243 666 794 13 1562 13c480 0 812 230 985 518h13V186c0-781-422-1082-998-1082-384 0-704 115-909 243l-141-429c250-166 659-256 1030-256 391 0 826 90 1127 372 301 268 441 704 441 1414v1798zm-556-928c0-96-13-204-45-300-122-359-435-576-781-576-608 0-915 505-915 1113 0 717 384 1171 921 1171 410 0 685-268 788-595 25-77 32-160 32-256v-557z" id="MyriadPro-Regular-67" transform="scale(.01563)"/><path d="M467-1267h557V416h13c185-307 544-486 953-486 730 0 1408 550 1408 1664 0 940-563 1574-1312 1574-505 0-870-224-1100-602h-13l-26 532H442c12-295 25-615 25-1012v-3353zm557 3059c0 77 19 160 38 230 109 423 468 698 852 698 595 0 921-531 921-1152 0-710-345-1197-941-1197-403 0-742 269-844 659-13 71-26 148-26 231v531z" id="MyriadPro-Regular-70" transform="scale(.01563)"/><path d="M1696-717v352H960v4403h736v352H525V-717h1171z" id="MyriadPro-Regular-5b" transform="scale(.01563)"/><path d="M1037 4390c-474 0-858-377-851-870 0-442 339-819 838-819 442 0 858 339 858 857 0 436-320 832-839 832h-6zm-7-300c365 0 506-301 506-544 0-314-218-544-506-544-281 0-499 230-499 524 0 269 167 564 493 564h6z" id="MyriadPro-Regular-b0" transform="scale(.01563)"/><path d="M122 4390v-352h736V-365H122v-352h1171v5107H122z" id="MyriadPro-Regular-5d" transform="scale(.01563)"/></defs><use xlink:href="#MyriadPro-Regular-61"/><use x="48.2" xlink:href="#MyriadPro-Regular-76"/><use x="96.3" xlink:href="#MyriadPro-Regular-65"/><use x="146.4" xlink:href="#MyriadPro-Regular-72"/><use x="179.1" xlink:href="#MyriadPro-Regular-61"/><use x="227.3" xlink:href="#MyriadPro-Regular-67"/><use x="283.2" xlink:href="#MyriadPro-Regular-65"/><use x="333.3" xlink:href="#MyriadPro-Regular-20"/><use x="354.5" xlink:href="#MyriadPro-Regular-74"/><use x="387.6" xlink:href="#MyriadPro-Regular-65"/><use x="437.7" xlink:href="#MyriadPro-Regular-6d"/><use x="521.1" xlink:href="#MyriadPro-Regular-70"/><use x="578" xlink:href="#MyriadPro-Regular-65"/><use x="628.1" xlink:href="#MyriadPro-Regular-72"/><use x="660.8" xlink:href="#MyriadPro-Regular-61"/><use x="709" xlink:href="#MyriadPro-Regular-74"/><use x="742.1" xlink:href="#MyriadPro-Regular-75"/><use x="797.2" xlink:href="#MyriadPro-Regular-72"/><use x="829.9" xlink:href="#MyriadPro-Regular-65"/><use x="880" xlink:href="#MyriadPro-Regular-20"/><use x="901.2" xlink:href="#MyriadPro-Regular-5b"/><use x="929.6" xlink:href="#MyriadPro-Regular-b0"/><use x="961.4" xlink:href="#MyriadPro-Regular-43"/><use x="1019.4" xlink:href="#MyriadPro-Regular-5d"/></g></g></g><defs><clipPath id="p215185f2b9"><path d="M30.615 59.78h357.12v266.112H30.615z"/></clipPath></defs></svg>