<svg xmlns:xlink="http://www.w3.org/1999/xlink" width="531.84" height="512.121" viewBox="0 0 398.88 384.091" xmlns="http://www.w3.org/2000/svg"><defs><style>*{stroke-linejoin:round;stroke-linecap:butt}</style></defs><g id="figure_1"><path d="M0 384.09h398.88V0H0v384.09z" style="fill:none" id="patch_1"/><g id="axes_1"><path d="M34.56 326.99h357.12V60.876H34.56V326.99z" style="fill:none" id="patch_2"/><g id="matplotlib.axis_1"><g id="xtick_1"><g id="line2d_1"><defs><path id="mcec368332e" d="M0 0v3.5"/></defs><use xlink:href="#mcec368332e" x="73.183" y="326.989" style="fill:#636363"/></g><g style="fill:#636363" transform="matrix(.16 0 0 -.16 37.798 355.647)" id="text_1"><defs><path id="DejaVuSans-41" d="m2188 4044-857-2322h1716l-859 2322zm-357 622h716L4325 0h-656l-425 1197H1141L716 0H50l1781 4666z" transform="scale(.01563)"/><path id="DejaVuSans-75" d="M544 1381v2119h575V1403q0-497 193-746 194-248 582-248 465 0 735 297 271 297 271 810v1984h575V0h-575v538q-209-319-486-474-276-155-642-155-603 0-916 375-312 375-312 1097zm1447 2203z" transform="scale(.01563)"/><path id="DejaVuSans-73" d="M2834 3397v-544q-243 125-506 187-262 63-544 63-428 0-642-131t-214-394q0-200 153-314t616-217l197-44q612-131 870-370t258-667q0-488-386-773Q2250-91 1575-91q-281 0-586 55T347 128v594q319-166 628-249 309-82 613-82 406 0 624 139 219 139 219 392 0 234-158 359-157 125-692 241l-200 47q-534 112-772 345-237 233-237 639 0 494 350 762 350 269 994 269 318 0 599-47 282-46 519-140z" transform="scale(.01563)"/><path id="DejaVuSans-74" d="M1172 4494v-994h1184v-447H1172V1153q0-428 117-550t477-122h590V0h-590q-666 0-919 248-253 249-253 905v1900H172v447h422v994h578z" transform="scale(.01563)"/><path id="DejaVuSans-72" d="M2631 2963q-97 56-211 82-114 27-251 27-488 0-749-317t-261-911V0H581v3500h578v-544q182 319 472 473 291 155 707 155 59 0 131-8 72-7 159-23l3-590z" transform="scale(.01563)"/><path id="DejaVuSans-61" d="M2194 1759q-697 0-966-159t-269-544q0-306 202-486 202-179 548-179 479 0 768 339t289 901v128h-572zm1147 238V0h-575v531q-197-318-491-470T1556-91q-537 0-855 302-317 302-317 808 0 590 395 890 396 300 1180 300h807v57q0 397-261 614t-733 217q-300 0-585-72-284-72-546-216v532q315 122 612 182 297 61 578 61 760 0 1135-394 375-393 375-1193z" transform="scale(.01563)"/><path id="DejaVuSans-6c" d="M603 4863h575V0H603v4863z" transform="scale(.01563)"/><path id="DejaVuSans-69" d="M603 3500h575V0H603v3500zm0 1363h575v-729H603v729z" transform="scale(.01563)"/></defs><use xlink:href="#DejaVuSans-41"/><use xlink:href="#DejaVuSans-75" x="68.408"/><use xlink:href="#DejaVuSans-73" x="131.787"/><use xlink:href="#DejaVuSans-74" x="183.887"/><use xlink:href="#DejaVuSans-72" x="223.096"/><use xlink:href="#DejaVuSans-61" x="264.209"/><use xlink:href="#DejaVuSans-6c" x="325.488"/><use xlink:href="#DejaVuSans-69" x="353.271"/><use xlink:href="#DejaVuSans-61" x="381.055"/></g></g><g id="xtick_2"><use xlink:href="#mcec368332e" x="129.158" y="326.989" style="fill:#636363" id="line2d_2"/><g style="fill:#636363" transform="matrix(.16 0 0 -.16 106.834 355.647)" id="text_2"><defs><path id="DejaVuSans-42" d="M1259 2228V519h1013q509 0 754 211 246 211 246 645 0 438-246 645-245 208-754 208H1259zm0 1919V2741h935q462 0 688 173 227 174 227 530 0 353-227 528-226 175-688 175h-935zm-631 519h1613q722 0 1112-300 391-300 391-853 0-429-200-682t-588-315q466-100 724-418 258-317 258-792 0-625-425-966Q3088 0 2303 0H628v4666z" transform="scale(.01563)"/><path id="DejaVuSans-7a" d="M353 3500h2731v-525L922 459h2162V0H275v525l2163 2516H353v459z" transform="scale(.01563)"/></defs><use xlink:href="#DejaVuSans-42"/><use xlink:href="#DejaVuSans-72" x="68.604"/><use xlink:href="#DejaVuSans-61" x="109.717"/><use xlink:href="#DejaVuSans-7a" x="170.996"/><use xlink:href="#DejaVuSans-69" x="223.486"/><use xlink:href="#DejaVuSans-6c" x="251.27"/></g></g><g id="xtick_3"><use xlink:href="#mcec368332e" x="185.133" y="326.989" style="fill:#636363" id="line2d_3"/><g style="fill:#636363" transform="matrix(.16 0 0 -.16 162.281 355.647)" id="text_3"><defs><path id="DejaVuSans-43" d="M4122 4306v-665q-319 297-680 443-361 147-767 147-800 0-1225-489t-425-1414q0-922 425-1411t1225-489q406 0 767 147t680 444V359q-331-225-702-338-370-112-782-112-1060 0-1670 648-609 649-609 1771 0 1125 609 1773 610 649 1670 649 418 0 788-111 371-111 696-333z" transform="scale(.01563)"/><path id="DejaVuSans-68" d="M3513 2113V0h-575v2094q0 497-194 743-194 247-581 247-466 0-735-297-269-296-269-809V0H581v4863h578V2956q207 316 486 472 280 156 646 156 603 0 912-373 310-373 310-1098z" transform="scale(.01563)"/><path id="DejaVuSans-6e" d="M3513 2113V0h-575v2094q0 497-194 743-194 247-581 247-466 0-735-297-269-296-269-809V0H581v3500h578v-544q207 316 486 472 280 156 646 156 603 0 912-373 310-373 310-1098z" transform="scale(.01563)"/></defs><use xlink:href="#DejaVuSans-43"/><use xlink:href="#DejaVuSans-68" x="69.824"/><use xlink:href="#DejaVuSans-69" x="133.203"/><use xlink:href="#DejaVuSans-6e" x="160.986"/><use xlink:href="#DejaVuSans-61" x="224.365"/></g></g><g id="xtick_4"><use xlink:href="#mcec368332e" x="241.107" y="326.989" style="fill:#636363" id="line2d_4"/><g style="fill:#636363" transform="matrix(.16 0 0 -.16 204.337 355.647)" id="text_4"><defs><path id="DejaVuSans-47" d="M3809 666v1253H2778v519h1656V434q-365-259-806-392-440-133-940-133-1094 0-1712 639-617 640-617 1780 0 1144 617 1783 618 639 1712 639 456 0 867-113 411-112 758-331v-672q-350 297-744 447t-828 150q-857 0-1287-478-429-478-429-1425 0-944 429-1422 430-478 1287-478 334 0 596 58 263 58 472 180z" transform="scale(.01563)"/><path id="DejaVuSans-65" d="M3597 1894v-281H953q38-594 358-905t892-311q331 0 642 81t618 244V178Q3153 47 2828-22t-659-69q-838 0-1327 487-489 488-489 1320 0 859 464 1363 464 505 1252 505 706 0 1117-455 411-454 411-1235zm-575 169q-6 471-264 752-258 282-683 282-481 0-770-272t-333-766l2050 4z" transform="scale(.01563)"/><path id="DejaVuSans-6d" d="M3328 2828q216 388 516 572t706 184q547 0 844-383 297-382 297-1088V0h-578v2094q0 503-179 746-178 244-543 244-447 0-707-297-259-296-259-809V0h-578v2094q0 506-178 748t-550 242q-441 0-701-298-259-298-259-808V0H581v3500h578v-544q197 322 472 475t653 153q382 0 649-194 267-193 395-562z" transform="scale(.01563)"/><path id="DejaVuSans-79" d="M2059-325q-243-625-475-815-231-191-618-191H506v481h338q237 0 368 113 132 112 291 531l103 262L191 3500h609L1894 763l1094 2737h609L2059-325z" transform="scale(.01563)"/></defs><use xlink:href="#DejaVuSans-47"/><use xlink:href="#DejaVuSans-65" x="77.49"/><use xlink:href="#DejaVuSans-72" x="139.014"/><use xlink:href="#DejaVuSans-6d" x="178.377"/><use xlink:href="#DejaVuSans-61" x="275.789"/><use xlink:href="#DejaVuSans-6e" x="337.068"/><use xlink:href="#DejaVuSans-79" x="400.447"/></g></g><g id="xtick_5"><use xlink:href="#mcec368332e" x="297.082" y="326.989" style="fill:#636363" id="line2d_5"/><g style="fill:#636363" transform="matrix(.16 0 0 -.16 269.146 355.647)" id="text_5"><defs><path id="DejaVuSans-4d" d="M628 4666h941l1190-3175 1197 3175h941V0h-616v4097L3078 897h-634L1241 4097V0H628v4666z" transform="scale(.01563)"/><path id="DejaVuSans-78" d="M3513 3500 2247 1797 3578 0h-678L1881 1375 863 0H184l1360 1831L300 3500h678l928-1247 928 1247h679z" transform="scale(.01563)"/><path id="DejaVuSans-63" d="M3122 3366v-538q-244 135-489 202t-495 67q-560 0-870-355-309-354-309-995t309-996q310-354 870-354 250 0 495 67t489 202V134Q2881 22 2623-34q-257-57-548-57-791 0-1257 497-465 497-465 1341 0 856 470 1346 471 491 1290 491 265 0 518-55 253-54 491-163z" transform="scale(.01563)"/><path id="DejaVuSans-6f" d="M1959 3097q-462 0-731-361t-269-989q0-628 267-989 268-361 733-361 460 0 728 362 269 363 269 988 0 622-269 986-268 364-728 364zm0 487q750 0 1178-488 429-487 429-1349 0-859-429-1349Q2709-91 1959-91q-753 0-1180 489-426 490-426 1349 0 862 426 1349 427 488 1180 488z" transform="scale(.01563)"/></defs><use xlink:href="#DejaVuSans-4d"/><use xlink:href="#DejaVuSans-65" x="86.279"/><use xlink:href="#DejaVuSans-78" x="146.053"/><use xlink:href="#DejaVuSans-69" x="205.232"/><use xlink:href="#DejaVuSans-63" x="233.016"/><use xlink:href="#DejaVuSans-6f" x="287.996"/></g></g><g id="xtick_6"><use xlink:href="#mcec368332e" x="353.057" y="326.989" style="fill:#636363" id="line2d_6"/><g id="text_6"><g style="fill:#636363" transform="matrix(.16 0 0 -.16 326.772 355.647)"><defs><path id="DejaVuSans-55" d="M556 4666h635V1831q0-750 271-1080 272-329 882-329 606 0 878 329 272 330 272 1080v2835h634V1753q0-912-452-1378Q3225-91 2344-91q-885 0-1337 466-451 466-451 1378v2913z" transform="scale(.01563)"/><path id="DejaVuSans-64" d="M2906 2969v1894h575V0h-575v525q-181-312-458-464-276-152-664-152-634 0-1033 506-398 507-398 1332t398 1331q399 506 1033 506 388 0 664-152 277-151 458-463zM947 1747q0-634 261-995t717-361q456 0 718 361 263 361 263 995t-263 995q-262 361-718 361t-717-361q-261-361-261-995z" transform="scale(.01563)"/></defs><use xlink:href="#DejaVuSans-55"/><use xlink:href="#DejaVuSans-6e" x="73.193"/><use xlink:href="#DejaVuSans-69" x="136.572"/><use xlink:href="#DejaVuSans-74" x="164.355"/><use xlink:href="#DejaVuSans-65" x="203.564"/><use xlink:href="#DejaVuSans-64" x="265.088"/></g><g style="fill:#636363" transform="matrix(.16 0 0 -.16 327.714 373.563)"><defs><path id="DejaVuSans-53" d="M3425 4513v-616q-359 172-678 256-319 85-616 85-515 0-795-200t-280-569q0-310 186-468 186-157 705-254l381-78q706-135 1042-474t336-907q0-679-455-1029Q2797-91 1919-91q-331 0-705 75-373 75-773 222v650q384-215 753-325 369-109 725-109 540 0 834 212 294 213 294 607 0 343-211 537t-692 291l-385 75q-706 140-1022 440-315 300-315 835 0 619 436 975t1201 356q329 0 669-60 341-59 697-177z" transform="scale(.01563)"/></defs><use xlink:href="#DejaVuSans-53"/><use xlink:href="#DejaVuSans-74" x="63.477"/><use xlink:href="#DejaVuSans-61" x="102.686"/><use xlink:href="#DejaVuSans-74" x="163.965"/><use xlink:href="#DejaVuSans-65" x="203.174"/><use xlink:href="#DejaVuSans-73" x="264.697"/></g></g></g></g><g id="matplotlib.axis_2"><g id="ytick_1"><path d="M34.56 326.99h357.12" clip-path="url(#p38e5b76899)" style="fill:none;stroke:#636363;stroke-width:.3;stroke-linecap:square" id="line2d_7"/><g id="line2d_8"><defs><path id="m640f972fcd" d="M0 0h-3.5" style="stroke:#636363;stroke-width:.3"/></defs><use xlink:href="#m640f972fcd" x="34.56" y="326.989" style="fill:#636363;stroke:#636363;stroke-width:.3"/></g><g style="fill:#636363" transform="matrix(.16 0 0 -.16 17.38 333.068)" id="text_7"><defs><path id="DejaVuSans-30" d="M2034 4250q-487 0-733-480-245-479-245-1442 0-959 245-1439 246-480 733-480 491 0 736 480 246 480 246 1439 0 963-246 1442-245 480-736 480zm0 500q785 0 1199-621 414-620 414-1801 0-1178-414-1799Q2819-91 2034-91q-784 0-1198 620-414 621-414 1799 0 1181 414 1801 414 621 1198 621z" transform="scale(.01563)"/></defs><use xlink:href="#DejaVuSans-30"/></g></g><g id="ytick_2"><path d="M34.56 272.68h357.12" clip-path="url(#p38e5b76899)" style="fill:none;stroke:#636363;stroke-width:.3;stroke-linecap:square" id="line2d_9"/><use xlink:href="#m640f972fcd" x="34.56" y="272.681" style="fill:#636363;stroke:#636363;stroke-width:.3" id="line2d_10"/><g style="fill:#636363" transform="matrix(.16 0 0 -.16 17.38 278.76)" id="text_8"><defs><path id="DejaVuSans-35" d="M691 4666h2478v-532H1269V2991q137 47 274 70 138 23 276 23 781 0 1237-428 457-428 457-1159 0-753-469-1171Q2575-91 1722-91q-294 0-599 50Q819 9 494 109v635q281-153 581-228t634-75q541 0 856 284 316 284 316 772 0 487-316 771-315 285-856 285-253 0-505-56-251-56-513-175v2344z" transform="scale(.01563)"/></defs><use xlink:href="#DejaVuSans-35"/></g></g><g id="ytick_3"><path d="M34.56 218.372h357.12" clip-path="url(#p38e5b76899)" style="fill:none;stroke:#636363;stroke-width:.3;stroke-linecap:square" id="line2d_11"/><use xlink:href="#m640f972fcd" x="34.56" y="218.372" style="fill:#636363;stroke:#636363;stroke-width:.3" id="line2d_12"/><g style="fill:#636363" transform="matrix(.16 0 0 -.16 7.2 224.45)" id="text_9"><defs><path id="DejaVuSans-31" d="M794 531h1031v3560L703 3866v575l1116 225h631V531h1031V0H794v531z" transform="scale(.01563)"/></defs><use xlink:href="#DejaVuSans-31"/><use xlink:href="#DejaVuSans-30" x="63.623"/></g></g><g id="ytick_4"><path d="M34.56 164.063h357.12" clip-path="url(#p38e5b76899)" style="fill:none;stroke:#636363;stroke-width:.3;stroke-linecap:square" id="line2d_13"/><use xlink:href="#m640f972fcd" x="34.56" y="164.063" style="fill:#636363;stroke:#636363;stroke-width:.3" id="line2d_14"/><g style="fill:#636363" transform="matrix(.16 0 0 -.16 7.2 170.142)" id="text_10"><use xlink:href="#DejaVuSans-31"/><use xlink:href="#DejaVuSans-35" x="63.623"/></g></g><g id="ytick_5"><path d="M34.56 109.755h357.12" clip-path="url(#p38e5b76899)" style="fill:none;stroke:#636363;stroke-width:.3;stroke-linecap:square" id="line2d_15"/><use xlink:href="#m640f972fcd" x="34.56" y="109.755" style="fill:#636363;stroke:#636363;stroke-width:.3" id="line2d_16"/><g style="fill:#636363" transform="matrix(.16 0 0 -.16 7.2 115.834)" id="text_11"><defs><path id="DejaVuSans-32" d="M1228 531h2203V0H469v531q359 372 979 998 621 627 780 809 303 340 423 576 121 236 121 464 0 372-261 606-261 235-680 235-297 0-627-103-329-103-704-313v638q381 153 712 231 332 78 607 78 725 0 1156-363 431-362 431-968 0-288-108-546-107-257-392-607-78-91-497-524-418-433-1181-1211z" transform="scale(.01563)"/></defs><use xlink:href="#DejaVuSans-32"/><use xlink:href="#DejaVuSans-30" x="63.623"/></g></g></g><path d="M50.793 326.99h44.78V91.832h-44.78z" clip-path="url(#p38e5b76899)" style="fill:#1f77b4" id="patch_3"/><path d="M106.768 326.99h44.78V60.876h-44.78z" clip-path="url(#p38e5b76899)" style="fill:#1f77b4" id="patch_4"/><path d="M162.743 326.99h44.78V251.5h-44.78z" clip-path="url(#p38e5b76899)" style="fill:#1f77b4" id="patch_5"/><path d="M218.717 326.99h44.78v-91.24h-44.78z" clip-path="url(#p38e5b76899)" style="fill:#1f77b4" id="patch_6"/><path d="M274.692 326.99h44.78V98.892h-44.78z" clip-path="url(#p38e5b76899)" style="fill:#1f77b4" id="patch_7"/><path d="M330.667 326.99h44.78v-92.868h-44.78z" clip-path="url(#p38e5b76899)" style="fill:#1f77b4" id="patch_8"/><g style="fill:#636363" transform="matrix(.18 0 0 -.18 34.56 20.877)" id="text_12"><defs><path id="DejaVuSans-76" d="M191 3500h609L1894 563l1094 2937h609L2284 0h-781L191 3500z" transform="scale(.01563)"/><path id="DejaVuSans-67" d="M2906 1791q0 625-258 968-257 344-723 344-462 0-720-344-258-343-258-968 0-622 258-966t720-344q466 0 723 344 258 344 258 966zm575-1357q0-893-397-1329-396-436-1215-436-303 0-572 45t-522 139v559q253-137 500-202 247-66 503-66 566 0 847 295t281 892v285q-178-310-456-463T1784 0Q1141 0 747 490 353 981 353 1791q0 812 394 1302 394 491 1037 491 388 0 666-153t456-462v531h575V434z" transform="scale(.01563)"/><path id="DejaVuSans-70" d="M1159 525v-1856H581v4831h578v-531q182 312 458 463 277 152 661 152 638 0 1036-506 399-506 399-1331T3314 415Q2916-91 2278-91q-384 0-661 152-276 152-458 464zm1957 1222q0 634-261 995t-717 361q-457 0-718-361t-261-995q0-634 261-995t718-361q456 0 717 361t261 995z" transform="scale(.01563)"/><path id="DejaVuSans-5b" d="M550 4863h1325v-447h-750V-397h750v-447H550v5707z" transform="scale(.01563)"/><path id="DejaVuSans-b0" d="M1600 4347q-250 0-422-174-172-173-172-423 0-247 172-417t422-170q250 0 422 170t172 417q0 247-174 422-173 175-420 175zm0 403q200 0 384-77 185-76 319-220 144-140 216-319 72-178 72-384 0-412-289-698t-708-286q-422 0-704 281-281 281-281 703 0 419 287 709 288 291 704 291z" transform="scale(.01563)"/><path id="DejaVuSans-5d" d="M1947 4863V-844H622v447h747v4813H622v447h1325z" transform="scale(.01563)"/></defs><use xlink:href="#DejaVuSans-61"/><use xlink:href="#DejaVuSans-76" x="61.279"/><use xlink:href="#DejaVuSans-65" x="120.459"/><use xlink:href="#DejaVuSans-72" x="181.982"/><use xlink:href="#DejaVuSans-61" x="223.096"/><use xlink:href="#DejaVuSans-67" x="284.375"/><use xlink:href="#DejaVuSans-65" x="347.852"/><use xlink:href="#DejaVuSans-20" x="409.375"/><use xlink:href="#DejaVuSans-74" x="441.162"/><use xlink:href="#DejaVuSans-65" x="480.371"/><use xlink:href="#DejaVuSans-6d" x="541.895"/><use xlink:href="#DejaVuSans-70" x="639.307"/><use xlink:href="#DejaVuSans-65" x="702.783"/><use xlink:href="#DejaVuSans-72" x="764.307"/><use xlink:href="#DejaVuSans-61" x="805.42"/><use xlink:href="#DejaVuSans-74" x="866.699"/><use xlink:href="#DejaVuSans-75" x="905.908"/><use xlink:href="#DejaVuSans-72" x="969.287"/><use xlink:href="#DejaVuSans-65" x="1008.15"/><use xlink:href="#DejaVuSans-20" x="1069.674"/><use xlink:href="#DejaVuSans-5b" x="1101.461"/><use xlink:href="#DejaVuSans-b0" x="1140.475"/><use xlink:href="#DejaVuSans-43" x="1190.475"/><use xlink:href="#DejaVuSans-5d" x="1260.299"/></g></g></g><defs><clipPath id="p38e5b76899"><path d="M34.56 60.877h357.12v266.112H34.56z"/></clipPath></defs></svg>