<svg height="431.341" viewBox="0 0 391.245 323.506" width="521.66" xmlns="http://www.w3.org/2000/svg" xmlns:xlink="http://www.w3.org/1999/xlink"><defs><style>*{stroke-linecap:butt;stroke-linejoin:round}</style></defs><g id="figure_1"><path d="M0 323.506h391.245V0H0z" style="fill:none" id="patch_1"/><g id="axes_1"><path d="M26.925 288.43h357.12V22.318H26.925z" style="fill:none" id="patch_2"/><path clip-path="url(#p912cf78903)" d="M43.158 288.43h44.78V64.472h-44.78z" style="fill:#1f77b4" id="patch_3"/><path clip-path="url(#p912cf78903)" d="M99.133 288.43h44.78V34.99h-44.78z" style="fill:#1f77b4" id="patch_4"/><path clip-path="url(#p912cf78903)" d="M155.108 288.43h44.78v-71.894h-44.78z" style="fill:#1f77b4" id="patch_5"/><path clip-path="url(#p912cf78903)" d="M211.082 288.43h44.78v-86.894h-44.78z" style="fill:#1f77b4" id="patch_6"/><path clip-path="url(#p912cf78903)" d="M267.057 288.43h44.78V71.196h-44.78z" style="fill:#1f77b4" id="patch_7"/><path clip-path="url(#p912cf78903)" d="M323.032 288.43h44.78v-88.445h-44.78z" style="fill:#1f77b4" id="patch_8"/><g id="matplotlib.axis_1"><g id="xtick_1"><g id="line2d_1"><defs><path d="M0 0v3.5" id="m5a976e0ad6" style="stroke:#000;stroke-width:.8"/></defs><use style="stroke:#000;stroke-width:.8" x="65.548" xlink:href="#m5a976e0ad6" y="288.43"/></g><g transform="matrix(.1 0 0 -.1 43.432 303.029)" id="text_1"><defs><path d="m2188 4044-857-2322h1716l-859 2322zm-357 622h716L4325 0h-656l-425 1197H1141L716 0H50l1781 4666z" id="DejaVuSans-41" transform="scale(.01563)"/><path d="M544 1381v2119h575V1403q0-497 193-746 194-248 582-248 465 0 735 297 271 297 271 810v1984h575V0h-575v538q-209-319-486-474-276-155-642-155-603 0-916 375-312 375-312 1097zm1447 2203z" id="DejaVuSans-75" transform="scale(.01563)"/><path d="M2834 3397v-544q-243 125-506 187-262 63-544 63-428 0-642-131t-214-394q0-200 153-314t616-217l197-44q612-131 870-370t258-667q0-488-386-773Q2250-91 1575-91q-281 0-586 55T347 128v594q319-166 628-249 309-82 613-82 406 0 624 139 219 139 219 392 0 234-158 359-157 125-692 241l-200 47q-534 112-772 345-237 233-237 639 0 494 350 762 350 269 994 269 318 0 599-47 282-46 519-140z" id="DejaVuSans-73" transform="scale(.01563)"/><path d="M1172 4494v-994h1184v-447H1172V1153q0-428 117-550t477-122h590V0h-590q-666 0-919 248-253 249-253 905v1900H172v447h422v994h578z" id="DejaVuSans-74" transform="scale(.01563)"/><path d="M2631 2963q-97 56-211 82-114 27-251 27-488 0-749-317t-261-911V0H581v3500h578v-544q182 319 472 473 291 155 707 155 59 0 131-8 72-7 159-23l3-590z" id="DejaVuSans-72" transform="scale(.01563)"/><path d="M2194 1759q-697 0-966-159t-269-544q0-306 202-486 202-179 548-179 479 0 768 339t289 901v128h-572zm1147 238V0h-575v531q-197-318-491-470T1556-91q-537 0-855 302-317 302-317 808 0 590 395 890 396 300 1180 300h807v57q0 397-261 614t-733 217q-300 0-585-72-284-72-546-216v532q315 122 612 182 297 61 578 61 760 0 1135-394 375-393 375-1193z" id="DejaVuSans-61" transform="scale(.01563)"/><path d="M603 4863h575V0H603v4863z" id="DejaVuSans-6c" transform="scale(.01563)"/><path d="M603 3500h575V0H603v3500zm0 1363h575v-729H603v729z" id="DejaVuSans-69" transform="scale(.01563)"/></defs><use xlink:href="#DejaVuSans-41"/><use x="68.408" xlink:href="#DejaVuSans-75"/><use x="131.787" xlink:href="#DejaVuSans-73"/><use x="183.887" xlink:href="#DejaVuSans-74"/><use x="223.096" xlink:href="#DejaVuSans-72"/><use x="264.209" xlink:href="#DejaVuSans-61"/><use x="325.488" xlink:href="#DejaVuSans-6c"/><use x="353.271" xlink:href="#DejaVuSans-69"/><use x="381.055" xlink:href="#DejaVuSans-61"/></g></g><g id="xtick_2"><use style="stroke:#000;stroke-width:.8" x="121.523" xlink:href="#m5a976e0ad6" y="288.43" id="line2d_2"/><g transform="matrix(.1 0 0 -.1 107.57 303.029)" id="text_2"><defs><path d="M1259 2228V519h1013q509 0 754 211 246 211 246 645 0 438-246 645-245 208-754 208H1259zm0 1919V2741h935q462 0 688 173 227 174 227 530 0 353-227 528-226 175-688 175h-935zm-631 519h1613q722 0 1112-300 391-300 391-853 0-429-200-682t-588-315q466-100 724-418 258-317 258-792 0-625-425-966Q3088 0 2303 0H628v4666z" id="DejaVuSans-42" transform="scale(.01563)"/><path d="M353 3500h2731v-525L922 459h2162V0H275v525l2163 2516H353v459z" id="DejaVuSans-7a" transform="scale(.01563)"/></defs><use xlink:href="#DejaVuSans-42"/><use x="68.604" xlink:href="#DejaVuSans-72"/><use x="109.717" xlink:href="#DejaVuSans-61"/><use x="170.996" xlink:href="#DejaVuSans-7a"/><use x="223.486" xlink:href="#DejaVuSans-69"/><use x="251.27" xlink:href="#DejaVuSans-6c"/></g></g><g id="xtick_3"><use style="stroke:#000;stroke-width:.8" x="177.498" xlink:href="#m5a976e0ad6" y="288.43" id="line2d_3"/><g transform="matrix(.1 0 0 -.1 163.216 303.029)" id="text_3"><defs><path d="M4122 4306v-665q-319 297-680 443-361 147-767 147-800 0-1225-489t-425-1414q0-922 425-1411t1225-489q406 0 767 147t680 444V359q-331-225-702-338-370-112-782-112-1060 0-1670 648-609 649-609 1771 0 1125 609 1773 610 649 1670 649 418 0 788-111 371-111 696-333z" id="DejaVuSans-43" transform="scale(.01563)"/><path d="M3513 2113V0h-575v2094q0 497-194 743-194 247-581 247-466 0-735-297-269-296-269-809V0H581v4863h578V2956q207 316 486 472 280 156 646 156 603 0 912-373 310-373 310-1098z" id="DejaVuSans-68" transform="scale(.01563)"/><path d="M3513 2113V0h-575v2094q0 497-194 743-194 247-581 247-466 0-735-297-269-296-269-809V0H581v3500h578v-544q207 316 486 472 280 156 646 156 603 0 912-373 310-373 310-1098z" id="DejaVuSans-6e" transform="scale(.01563)"/></defs><use xlink:href="#DejaVuSans-43"/><use x="69.824" xlink:href="#DejaVuSans-68"/><use x="133.203" xlink:href="#DejaVuSans-69"/><use x="160.986" xlink:href="#DejaVuSans-6e"/><use x="224.365" xlink:href="#DejaVuSans-61"/></g></g><g id="xtick_4"><use style="stroke:#000;stroke-width:.8" x="233.472" xlink:href="#m5a976e0ad6" y="288.43" id="line2d_4"/><g transform="matrix(.1 0 0 -.1 210.491 303.029)" id="text_4"><defs><path d="M3809 666v1253H2778v519h1656V434q-365-259-806-392-440-133-940-133-1094 0-1712 639-617 640-617 1780 0 1144 617 1783 618 639 1712 639 456 0 867-113 411-112 758-331v-672q-350 297-744 447t-828 150q-857 0-1287-478-429-478-429-1425 0-944 429-1422 430-478 1287-478 334 0 596 58 263 58 472 180z" id="DejaVuSans-47" transform="scale(.01563)"/><path d="M3597 1894v-281H953q38-594 358-905t892-311q331 0 642 81t618 244V178Q3153 47 2828-22t-659-69q-838 0-1327 487-489 488-489 1320 0 859 464 1363 464 505 1252 505 706 0 1117-455 411-454 411-1235zm-575 169q-6 471-264 752-258 282-683 282-481 0-770-272t-333-766l2050 4z" id="DejaVuSans-65" transform="scale(.01563)"/><path d="M3328 2828q216 388 516 572t706 184q547 0 844-383 297-382 297-1088V0h-578v2094q0 503-179 746-178 244-543 244-447 0-707-297-259-296-259-809V0h-578v2094q0 506-178 748t-550 242q-441 0-701-298-259-298-259-808V0H581v3500h578v-544q197 322 472 475t653 153q382 0 649-194 267-193 395-562z" id="DejaVuSans-6d" transform="scale(.01563)"/><path d="M2059-325q-243-625-475-815-231-191-618-191H506v481h338q237 0 368 113 132 112 291 531l103 262L191 3500h609L1894 763l1094 2737h609L2059-325z" id="DejaVuSans-79" transform="scale(.01563)"/></defs><use xlink:href="#DejaVuSans-47"/><use x="77.49" xlink:href="#DejaVuSans-65"/><use x="139.014" xlink:href="#DejaVuSans-72"/><use x="178.377" xlink:href="#DejaVuSans-6d"/><use x="275.789" xlink:href="#DejaVuSans-61"/><use x="337.068" xlink:href="#DejaVuSans-6e"/><use x="400.447" xlink:href="#DejaVuSans-79"/></g></g><g id="xtick_5"><use style="stroke:#000;stroke-width:.8" x="289.447" xlink:href="#m5a976e0ad6" y="288.43" id="line2d_5"/><g transform="matrix(.1 0 0 -.1 271.987 303.029)" id="text_5"><defs><path d="M628 4666h941l1190-3175 1197 3175h941V0h-616v4097L3078 897h-634L1241 4097V0H628v4666z" id="DejaVuSans-4d" transform="scale(.01563)"/><path d="M3513 3500 2247 1797 3578 0h-678L1881 1375 863 0H184l1360 1831L300 3500h678l928-1247 928 1247h679z" id="DejaVuSans-78" transform="scale(.01563)"/><path d="M3122 3366v-538q-244 135-489 202t-495 67q-560 0-870-355-309-354-309-995t309-996q310-354 870-354 250 0 495 67t489 202V134Q2881 22 2623-34q-257-57-548-57-791 0-1257 497-465 497-465 1341 0 856 470 1346 471 491 1290 491 265 0 518-55 253-54 491-163z" id="DejaVuSans-63" transform="scale(.01563)"/><path d="M1959 3097q-462 0-731-361t-269-989q0-628 267-989 268-361 733-361 460 0 728 362 269 363 269 988 0 622-269 986-268 364-728 364zm0 487q750 0 1178-488 429-487 429-1349 0-859-429-1349Q2709-91 1959-91q-753 0-1180 489-426 490-426 1349 0 862 426 1349 427 488 1180 488z" id="DejaVuSans-6f" transform="scale(.01563)"/></defs><use xlink:href="#DejaVuSans-4d"/><use x="86.279" xlink:href="#DejaVuSans-65"/><use x="146.053" xlink:href="#DejaVuSans-78"/><use x="205.232" xlink:href="#DejaVuSans-69"/><use x="233.016" xlink:href="#DejaVuSans-63"/><use x="287.996" xlink:href="#DejaVuSans-6f"/></g></g><g id="xtick_6"><use style="stroke:#000;stroke-width:.8" x="345.422" xlink:href="#m5a976e0ad6" y="288.43" id="line2d_6"/><g id="text_6"><g transform="matrix(.1 0 0 -.1 328.994 303.029)"><defs><path d="M556 4666h635V1831q0-750 271-1080 272-329 882-329 606 0 878 329 272 330 272 1080v2835h634V1753q0-912-452-1378Q3225-91 2344-91q-885 0-1337 466-451 466-451 1378v2913z" id="DejaVuSans-55" transform="scale(.01563)"/><path d="M2906 2969v1894h575V0h-575v525q-181-312-458-464-276-152-664-152-634 0-1033 506-398 507-398 1332t398 1331q399 506 1033 506 388 0 664-152 277-151 458-463zM947 1747q0-634 261-995t717-361q456 0 718 361 263 361 263 995t-263 995q-262 361-718 361t-717-361q-261-361-261-995z" id="DejaVuSans-64" transform="scale(.01563)"/></defs><use xlink:href="#DejaVuSans-55"/><use x="73.193" xlink:href="#DejaVuSans-6e"/><use x="136.572" xlink:href="#DejaVuSans-69"/><use x="164.355" xlink:href="#DejaVuSans-74"/><use x="203.564" xlink:href="#DejaVuSans-65"/><use x="265.088" xlink:href="#DejaVuSans-64"/></g><g transform="matrix(.1 0 0 -.1 329.582 314.226)"><defs><path d="M3425 4513v-616q-359 172-678 256-319 85-616 85-515 0-795-200t-280-569q0-310 186-468 186-157 705-254l381-78q706-135 1042-474t336-907q0-679-455-1029Q2797-91 1919-91q-331 0-705 75-373 75-773 222v650q384-215 753-325 369-109 725-109 540 0 834 212 294 213 294 607 0 343-211 537t-692 291l-385 75q-706 140-1022 440-315 300-315 835 0 619 436 975t1201 356q329 0 669-60 341-59 697-177z" id="DejaVuSans-53" transform="scale(.01563)"/></defs><use xlink:href="#DejaVuSans-53"/><use x="63.477" xlink:href="#DejaVuSans-74"/><use x="102.686" xlink:href="#DejaVuSans-61"/><use x="163.965" xlink:href="#DejaVuSans-74"/><use x="203.174" xlink:href="#DejaVuSans-65"/><use x="264.697" xlink:href="#DejaVuSans-73"/></g></g></g></g><g id="matplotlib.axis_2"><g id="ytick_1"><g id="line2d_7"><defs><path d="M0 0h-3.5" id="m5eabe15642" style="stroke:#000;stroke-width:.8"/></defs><use style="stroke:#000;stroke-width:.8" x="26.925" xlink:href="#m5eabe15642" y="288.43"/></g><g transform="matrix(.1 0 0 -.1 13.563 292.23)" id="text_7"><defs><path d="M2034 4250q-487 0-733-480-245-479-245-1442 0-959 245-1439 246-480 733-480 491 0 736 480 246 480 246 1439 0 963-246 1442-245 480-736 480zm0 500q785 0 1199-621 414-620 414-1801 0-1178-414-1799Q2819-91 2034-91q-784 0-1198 620-414 621-414 1799 0 1181 414 1801 414 621 1198 621z" id="DejaVuSans-30" transform="scale(.01563)"/></defs><use xlink:href="#DejaVuSans-30"/></g></g><g id="ytick_2"><use style="stroke:#000;stroke-width:.8" x="26.925" xlink:href="#m5eabe15642" y="236.708" id="line2d_8"/><g transform="matrix(.1 0 0 -.1 13.563 240.507)" id="text_8"><defs><path d="M691 4666h2478v-532H1269V2991q137 47 274 70 138 23 276 23 781 0 1237-428 457-428 457-1159 0-753-469-1171Q2575-91 1722-91q-294 0-599 50Q819 9 494 109v635q281-153 581-228t634-75q541 0 856 284 316 284 316 772 0 487-316 771-315 285-856 285-253 0-505-56-251-56-513-175v2344z" id="DejaVuSans-35" transform="scale(.01563)"/></defs><use xlink:href="#DejaVuSans-35"/></g></g><g id="ytick_3"><use style="stroke:#000;stroke-width:.8" x="26.925" xlink:href="#m5eabe15642" y="184.985" id="line2d_9"/><g transform="matrix(.1 0 0 -.1 7.2 188.784)" id="text_9"><defs><path d="M794 531h1031v3560L703 3866v575l1116 225h631V531h1031V0H794v531z" id="DejaVuSans-31" transform="scale(.01563)"/></defs><use xlink:href="#DejaVuSans-31"/><use x="63.623" xlink:href="#DejaVuSans-30"/></g></g><g id="ytick_4"><use style="stroke:#000;stroke-width:.8" x="26.925" xlink:href="#m5eabe15642" y="133.263" id="line2d_10"/><g transform="matrix(.1 0 0 -.1 7.2 137.062)" id="text_10"><use xlink:href="#DejaVuSans-31"/><use x="63.623" xlink:href="#DejaVuSans-35"/></g></g><g id="ytick_5"><use style="stroke:#000;stroke-width:.8" x="26.925" xlink:href="#m5eabe15642" y="81.54" id="line2d_11"/><g transform="matrix(.1 0 0 -.1 7.2 85.34)" id="text_11"><defs><path d="M1228 531h2203V0H469v531q359 372 979 998 621 627 780 809 303 340 423 576 121 236 121 464 0 372-261 606-261 235-680 235-297 0-627-103-329-103-704-313v638q381 153 712 231 332 78 607 78 725 0 1156-363 431-362 431-968 0-288-108-546-107-257-392-607-78-91-497-524-418-433-1181-1211z" id="DejaVuSans-32" transform="scale(.01563)"/></defs><use xlink:href="#DejaVuSans-32"/><use x="63.623" xlink:href="#DejaVuSans-30"/></g></g><g id="ytick_6"><use style="stroke:#000;stroke-width:.8" x="26.925" xlink:href="#m5eabe15642" y="29.818" id="line2d_12"/><g transform="matrix(.1 0 0 -.1 7.2 33.617)" id="text_12"><use xlink:href="#DejaVuSans-32"/><use x="63.623" xlink:href="#DejaVuSans-35"/></g></g></g><path d="M26.925 288.43V22.318" style="fill:none;stroke:#000;stroke-linecap:square;stroke-linejoin:miter;stroke-width:.8" id="patch_9"/><path d="M384.045 288.43V22.318" style="fill:none;stroke:#000;stroke-linecap:square;stroke-linejoin:miter;stroke-width:.8" id="patch_10"/><path d="M26.925 288.43h357.12" style="fill:none;stroke:#000;stroke-linecap:square;stroke-linejoin:miter;stroke-width:.8" id="patch_11"/><path d="M26.925 22.318h357.12" style="fill:none;stroke:#000;stroke-linecap:square;stroke-linejoin:miter;stroke-width:.8" id="patch_12"/><g transform="matrix(.12 0 0 -.12 127.524 16.318)" id="text_13"><defs><path d="M191 3500h609L1894 563l1094 2937h609L2284 0h-781L191 3500z" id="DejaVuSans-76" transform="scale(.01563)"/><path d="M2906 1791q0 625-258 968-257 344-723 344-462 0-720-344-258-343-258-968 0-622 258-966t720-344q466 0 723 344 258 344 258 966zm575-1357q0-893-397-1329-396-436-1215-436-303 0-572 45t-522 139v559q253-137 500-202 247-66 503-66 566 0 847 295t281 892v285q-178-310-456-463T1784 0Q1141 0 747 490 353 981 353 1791q0 812 394 1302 394 491 1037 491 388 0 666-153t456-462v531h575V434z" id="DejaVuSans-67" transform="scale(.01563)"/><path d="M1159 525v-1856H581v4831h578v-531q182 312 458 463 277 152 661 152 638 0 1036-506 399-506 399-1331T3314 415Q2916-91 2278-91q-384 0-661 152-276 152-458 464zm1957 1222q0 634-261 995t-717 361q-457 0-718-361t-261-995q0-634 261-995t718-361q456 0 717 361t261 995z" id="DejaVuSans-70" transform="scale(.01563)"/><path d="M550 4863h1325v-447h-750V-397h750v-447H550v5707z" id="DejaVuSans-5b" transform="scale(.01563)"/><path d="M1600 4347q-250 0-422-174-172-173-172-423 0-247 172-417t422-170q250 0 422 170t172 417q0 247-174 422-173 175-420 175zm0 403q200 0 384-77 185-76 319-220 144-140 216-319 72-178 72-384 0-412-289-698t-708-286q-422 0-704 281-281 281-281 703 0 419 287 709 288 291 704 291z" id="DejaVuSans-b0" transform="scale(.01563)"/><path d="M1947 4863V-844H622v447h747v4813H622v447h1325z" id="DejaVuSans-5d" transform="scale(.01563)"/></defs><use xlink:href="#DejaVuSans-61"/><use x="61.279" xlink:href="#DejaVuSans-76"/><use x="120.459" xlink:href="#DejaVuSans-65"/><use x="181.982" xlink:href="#DejaVuSans-72"/><use x="223.096" xlink:href="#DejaVuSans-61"/><use x="284.375" xlink:href="#DejaVuSans-67"/><use x="347.852" xlink:href="#DejaVuSans-65"/><use x="409.375" xlink:href="#DejaVuSans-20"/><use x="441.162" xlink:href="#DejaVuSans-74"/><use x="480.371" xlink:href="#DejaVuSans-65"/><use x="541.895" xlink:href="#DejaVuSans-6d"/><use x="639.307" xlink:href="#DejaVuSans-70"/><use x="702.783" xlink:href="#DejaVuSans-65"/><use x="764.307" xlink:href="#DejaVuSans-72"/><use x="805.42" xlink:href="#DejaVuSans-61"/><use x="866.699" xlink:href="#DejaVuSans-74"/><use x="905.908" xlink:href="#DejaVuSans-75"/><use x="969.287" xlink:href="#DejaVuSans-72"/><use x="1008.15" xlink:href="#DejaVuSans-65"/><use x="1069.674" xlink:href="#DejaVuSans-20"/><use x="1101.461" xlink:href="#DejaVuSans-5b"/><use x="1140.475" xlink:href="#DejaVuSans-b0"/><use x="1190.475" xlink:href="#DejaVuSans-43"/><use x="1260.299" xlink:href="#DejaVuSans-5d"/></g></g></g><defs><clipPath id="p912cf78903"><path d="M26.925 22.318h357.12V288.43H26.925z"/></clipPath></defs></svg>