<svg height="405.241" viewBox="0 0 314.622 303.931" width="419.496" xmlns="http://www.w3.org/2000/svg" xmlns:xlink="http://www.w3.org/1999/xlink"><defs><style>*{stroke-linecap:butt;stroke-linejoin:round}</style></defs><g id="figure_1"><path d="M0 303.93h314.622V0H0z" style="fill:#fff" id="patch_1"/><g id="axes_1"><path d="M37.976 277.927h266.112V11.815H37.976z" style="fill:#fff" id="patch_2"/><g id="matplotlib.axis_1"><g id="xtick_1"><g id="line2d_1"><defs><path d="M0 0v3.5" id="m1594777b75" style="stroke:#000;stroke-width:.8"/></defs><use style="stroke:#000;stroke-width:.8" x="37.976" xlink:href="#m1594777b75" y="277.927"/></g><g transform="matrix(.13 0 0 -.13 30.768 294.157)" id="text_1"><defs><path d="M256 1901v-384h3302v384H256z" id="MyriadPro-Regular-2212" transform="scale(.01563)"/><path d="M2944 0v467H1075v13l333 307c877 845 1434 1466 1434 2234 0 595-378 1209-1274 1209-480 0-890-179-1178-422l180-397c192 160 505 352 883 352 621 0 825-390 825-813-6-627-486-1164-1548-2176L288 346V0h2656z" id="MyriadPro-Regular-32" transform="scale(.01563)"/></defs><use xlink:href="#MyriadPro-Regular-2212"/><use x="59.6" xlink:href="#MyriadPro-Regular-32"/></g></g><g id="xtick_2"><use style="stroke:#000;stroke-width:.8" x="104.504" xlink:href="#m1594777b75" y="277.927" id="line2d_2"/><g transform="matrix(.13 0 0 -.13 97.296 294.157)" id="text_2"><defs><path d="M1510 0h544v4160h-480l-908-486 108-429 724 390h12V0z" id="MyriadPro-Regular-31" transform="scale(.01563)"/></defs><use xlink:href="#MyriadPro-Regular-2212"/><use x="59.6" xlink:href="#MyriadPro-Regular-31"/></g></g><g id="xtick_3"><use style="stroke:#000;stroke-width:.8" x="171.032" xlink:href="#m1594777b75" y="277.927" id="line2d_3"/><g transform="matrix(.13 0 0 -.13 167.697 294.157)" id="text_3"><defs><path d="M1677 4230c-845 0-1447-768-1447-2163C243 691 794-70 1606-70c922 0 1447 780 1447 2195 0 1325-499 2105-1376 2105zm-32-435c582 0 845-672 845-1696 0-1062-276-1734-852-1734-512 0-844 614-844 1696 0 1133 358 1734 851 1734z" id="MyriadPro-Regular-30" transform="scale(.01563)"/></defs><use xlink:href="#MyriadPro-Regular-30"/></g></g><g id="xtick_4"><use style="stroke:#000;stroke-width:.8" x="237.56" xlink:href="#m1594777b75" y="277.927" id="line2d_4"/><use xlink:href="#MyriadPro-Regular-31" transform="matrix(.13 0 0 -.13 234.225 294.157)" id="text_4"/></g><g id="xtick_5"><use style="stroke:#000;stroke-width:.8" x="304.088" xlink:href="#m1594777b75" y="277.927" id="line2d_5"/><use xlink:href="#MyriadPro-Regular-32" transform="matrix(.13 0 0 -.13 300.753 294.157)" id="text_5"/></g></g><g id="matplotlib.axis_2"><g id="ytick_1"><g id="line2d_6"><defs><path d="M0 0h-3.5" id="mef69ef045d" style="stroke:#000;stroke-width:.8"/></defs><use style="stroke:#000;stroke-width:.8" x="37.976" xlink:href="#mef69ef045d" y="277.927"/></g><g transform="matrix(.13 0 0 -.13 7.2 282.542)" id="text_6"><defs><path d="M710-70c237 0 384 172 384 403 0 237-153 403-377 403S333 570 333 333c0-231 153-403 371-403h6z" id="MyriadPro-Regular-2e" transform="scale(.01563)"/></defs><use xlink:href="#MyriadPro-Regular-2212"/><use x="59.6" xlink:href="#MyriadPro-Regular-32"/><use x="110.9" xlink:href="#MyriadPro-Regular-2e"/><use x="131.6" xlink:href="#MyriadPro-Regular-30"/></g></g><g id="ytick_2"><use style="stroke:#000;stroke-width:.8" x="37.976" xlink:href="#mef69ef045d" y="244.663" id="line2d_7"/><g transform="matrix(.13 0 0 -.13 7.2 249.278)" id="text_7"><defs><path d="M2771 4160H781L512 2163c154 19 339 45 576 45 832 0 1190-384 1197-922 0-556-455-902-986-902-377 0-717 128-889 230L269 186C467 58 851-70 1306-70c902 0 1548 608 1548 1420 0 525-268 884-595 1069-256 154-576 224-896 224-153 0-243-13-339-25l160 1068h1587v474z" id="MyriadPro-Regular-35" transform="scale(.01563)"/></defs><use xlink:href="#MyriadPro-Regular-2212"/><use x="59.6" xlink:href="#MyriadPro-Regular-31"/><use x="110.9" xlink:href="#MyriadPro-Regular-2e"/><use x="131.6" xlink:href="#MyriadPro-Regular-35"/></g></g><g id="ytick_3"><use style="stroke:#000;stroke-width:.8" x="37.976" xlink:href="#mef69ef045d" y="211.399" id="line2d_8"/><g transform="matrix(.13 0 0 -.13 7.2 216.014)" id="text_8"><use xlink:href="#MyriadPro-Regular-2212"/><use x="59.6" xlink:href="#MyriadPro-Regular-31"/><use x="110.9" xlink:href="#MyriadPro-Regular-2e"/><use x="131.6" xlink:href="#MyriadPro-Regular-30"/></g></g><g id="ytick_4"><use style="stroke:#000;stroke-width:.8" x="37.976" xlink:href="#mef69ef045d" y="178.135" id="line2d_9"/><g transform="matrix(.13 0 0 -.13 7.2 182.75)" id="text_9"><use xlink:href="#MyriadPro-Regular-2212"/><use x="59.6" xlink:href="#MyriadPro-Regular-30"/><use x="110.9" xlink:href="#MyriadPro-Regular-2e"/><use x="131.6" xlink:href="#MyriadPro-Regular-35"/></g></g><g id="ytick_5"><use style="stroke:#000;stroke-width:.8" x="37.976" xlink:href="#mef69ef045d" y="144.871" id="line2d_10"/><g transform="matrix(.13 0 0 -.13 14.947 149.486)" id="text_10"><use xlink:href="#MyriadPro-Regular-30"/><use x="51.3" xlink:href="#MyriadPro-Regular-2e"/><use x="72" xlink:href="#MyriadPro-Regular-30"/></g></g><g id="ytick_6"><use style="stroke:#000;stroke-width:.8" x="37.976" xlink:href="#mef69ef045d" y="111.607" id="line2d_11"/><g transform="matrix(.13 0 0 -.13 14.947 116.222)" id="text_11"><use xlink:href="#MyriadPro-Regular-30"/><use x="51.3" xlink:href="#MyriadPro-Regular-2e"/><use x="72" xlink:href="#MyriadPro-Regular-35"/></g></g><g id="ytick_7"><use style="stroke:#000;stroke-width:.8" x="37.976" xlink:href="#mef69ef045d" y="78.343" id="line2d_12"/><g transform="matrix(.13 0 0 -.13 14.947 82.958)" id="text_12"><use xlink:href="#MyriadPro-Regular-31"/><use x="51.3" xlink:href="#MyriadPro-Regular-2e"/><use x="72" xlink:href="#MyriadPro-Regular-30"/></g></g><g id="ytick_8"><use style="stroke:#000;stroke-width:.8" x="37.976" xlink:href="#mef69ef045d" y="45.079" id="line2d_13"/><g transform="matrix(.13 0 0 -.13 14.947 49.694)" id="text_13"><use xlink:href="#MyriadPro-Regular-31"/><use x="51.3" xlink:href="#MyriadPro-Regular-2e"/><use x="72" xlink:href="#MyriadPro-Regular-35"/></g></g><g id="ytick_9"><use style="stroke:#000;stroke-width:.8" x="37.976" xlink:href="#mef69ef045d" y="11.815" id="line2d_14"/><g transform="matrix(.13 0 0 -.13 14.947 16.43)" id="text_14"><use xlink:href="#MyriadPro-Regular-32"/><use x="51.3" xlink:href="#MyriadPro-Regular-2e"/><use x="72" xlink:href="#MyriadPro-Regular-30"/></g></g></g><path clip-path="url(#p81ca5681ac)" d="m171.032 147.559-1.344.721-.623.623-1.194 2.688-.871 2.206-.304.482-1.255 2.688-1.13 2.602-.049.086-1.266 2.688-1.199 2.688-.173.434-1.078 2.254-1.214 2.688-.396.945-.842 1.743-1.225 2.688-.621 1.438-.608 1.25-1.232 2.688-.848 1.922-.374.766-1.238 2.688-1.076 2.4-.141.288-1.242 2.688-1.217 2.688-.088.204-1.154 2.484-1.222 2.688-.312.714-.924 1.974-1.227 2.688-.537 1.214-.694 1.474-1.23 2.688-.764 1.709-.464.979-1.233 2.688-.991 2.198-.233.49-1.236 2.688-1.22 2.683-.002.005-1.238 2.688-1.224 2.688-.223.503-1.013 2.185-1.227 2.688-.448 1.005-.784 1.683-1.23 2.688-.674 1.502-.554 1.186-1.232 2.688-.902 1.996-.325.692-1.234 2.688-1.13 2.486-.095.202-1.235 2.688-1.225 2.688-.132.296-1.103 2.392-1.227 2.688-.358.799-.874 1.889-1.23 2.688-.584 1.298-.646 1.39-1.23 2.688-.812 1.793-.417.895" style="fill:none;stroke:#440154;stroke-linecap:square;stroke-width:1.5" id="line2d_15"/><path clip-path="url(#p81ca5681ac)" d="m171.032 147.559 1.344-.1 1.444 1.444 1.244 2.355.333.333 1.738 2.688.617 1.175 1.112 1.513 1.576 2.572.092.116 1.759 2.688.837 1.434.884 1.254 1.696 2.688.108.19 1.643 2.498 1.045 1.72.672.968 1.715 2.688.3.51 1.44 2.178 1.249 2.011.465.677 1.726 2.688.497.82 1.235 1.868 1.453 2.307.26.381 1.733 2.688.695 1.128 1.033 1.56 1.655 2.604.057.084 1.738 2.688.893 1.434.832 1.254 1.716 2.688.14.228 1.596 2.46 1.092 1.738.63.95 1.723 2.688.335.542 1.397 2.146 1.29 2.041.43.647 1.727 2.688.532.853 1.197 1.835 1.49 2.344.23.344 1.73 2.688.729 1.162.998 1.526 1.69 2.647.027.041 1.734 2.688.927 1.47.798 1.218 1.72 2.688.17.271 1.563 2.417 1.125 1.776.598.912 1.724 2.688.366.583 1.364 2.105 1.324 2.081.398.607 1.727 2.688.563.893 1.165 1.795 1.523 2.386.198.302 1.73 2.688.76 1.202.966 1.486 1.72 2.688.002.003 1.73 2.685.958 1.51.767 1.178" style="fill:none;stroke:#3b528b;stroke-linecap:square;stroke-width:1.5" id="line2d_16"/><path clip-path="url(#p81ca5681ac)" d="M173.72 144.871H304.088" style="fill:none;stroke:#21918c;stroke-linecap:square;stroke-width:1.5" id="line2d_17"/><path clip-path="url(#p81ca5681ac)" d="m171.032 142.183 1.344.1 1.444-1.444 1.244-2.355.333-.333 1.738-2.688.617-1.175 1.112-1.513 1.576-2.572.092-.116 1.759-2.688.837-1.434.884-1.254 1.696-2.688.108-.19 1.643-2.498 1.045-1.72.672-.968 1.715-2.688.3-.51 1.44-2.178 1.249-2.011.465-.677 1.726-2.688.497-.82 1.235-1.868 1.453-2.307.26-.381 1.733-2.688.695-1.128 1.033-1.56 1.655-2.604.057-.084 1.738-2.688.893-1.434.832-1.254 1.716-2.688.14-.228 1.596-2.46 1.092-1.738.63-.95 1.723-2.688.335-.542 1.397-2.146 1.29-2.041.43-.647 1.727-2.688.532-.853 1.197-1.835 1.49-2.344.23-.344 1.73-2.688.729-1.162.998-1.526 1.69-2.647.027-.041 1.734-2.688.927-1.47.798-1.218 1.72-2.688.17-.271 1.563-2.417 1.125-1.776.598-.912 1.724-2.688.366-.583 1.364-2.105 1.324-2.081.398-.607 1.727-2.688.563-.893 1.165-1.795 1.523-2.386.198-.302 1.73-2.688.76-1.202.966-1.486 1.72-2.688.002-.003 1.73-2.685.958-1.51.767-1.178" style="fill:none;stroke:#5ec962;stroke-linecap:square;stroke-width:1.5" id="line2d_18"/><path clip-path="url(#p81ca5681ac)" d="m171.032 142.183-1.344-.721-.623-.623-1.194-2.688-.871-2.206-.304-.482-1.255-2.688-1.13-2.602-.049-.086-1.266-2.688-1.199-2.688-.173-.434-1.078-2.254-1.214-2.688-.396-.945-.842-1.743-1.225-2.688-.621-1.438-.608-1.25-1.232-2.688-.848-1.922-.374-.766-1.238-2.688-1.076-2.4-.141-.288-1.242-2.688-1.217-2.688-.088-.204-1.154-2.484-1.222-2.688-.312-.714-.924-1.974-1.227-2.688-.537-1.214-.694-1.474-1.23-2.688-.764-1.709-.464-.979-1.233-2.688-.991-2.198-.233-.49-1.236-2.688-1.22-2.683-.002-.005-1.238-2.688-1.224-2.688-.223-.503-1.013-2.185-1.227-2.688-.448-1.005-.784-1.683-1.23-2.688-.674-1.502-.554-1.186-1.232-2.688-.902-1.995-.325-.693-1.234-2.688-1.13-2.486-.095-.202-1.235-2.688-1.225-2.688-.132-.296-1.103-2.392-1.227-2.688-.358-.799-.874-1.889-1.23-2.688-.584-1.298-.646-1.39-1.23-2.688-.812-1.793-.417-.895" style="fill:none;stroke:#fde725;stroke-linecap:square;stroke-width:1.5" id="line2d_19"/><path clip-path="url(#p81ca5681ac)" d="M171.032 142.183v2.688H37.976" style="fill:none;stroke:red;stroke-dasharray:1.5,2.475;stroke-dashoffset:0;stroke-width:1.5" id="line2d_20"/><path clip-path="url(#p81ca5681ac)" d="M171.032 144.871h2.688" style="fill:none;stroke:red;stroke-dasharray:1.5,2.475;stroke-dashoffset:0;stroke-width:1.5" id="line2d_21"/><path clip-path="url(#p81ca5681ac)" d="M171.032 144.871v2.688" style="fill:none;stroke:red;stroke-dasharray:1.5,2.475;stroke-dashoffset:0;stroke-width:1.5" id="line2d_22"/><path d="M37.976 277.927V11.815" style="fill:none;stroke:#000;stroke-linecap:square;stroke-linejoin:miter;stroke-width:.8" id="patch_3"/><path d="M304.088 277.927V11.815" style="fill:none;stroke:#000;stroke-linecap:square;stroke-linejoin:miter;stroke-width:.8" id="patch_4"/><path d="M37.976 277.927h266.112" style="fill:none;stroke:#000;stroke-linecap:square;stroke-linejoin:miter;stroke-width:.8" id="patch_5"/><path d="M37.976 11.815h266.112" style="fill:none;stroke:#000;stroke-linecap:square;stroke-linejoin:miter;stroke-width:.8" id="patch_6"/></g></g><defs><clipPath id="p81ca5681ac"><path d="M37.976 11.815h266.112v266.112H37.976z"/></clipPath></defs></svg>