<svg xmlns:xlink="http://www.w3.org/1999/xlink" width="544.135" height="414.491" viewBox="0 0 408.101 310.868" xmlns="http://www.w3.org/2000/svg"><defs><style>*{stroke-linejoin:round;stroke-linecap:butt}</style></defs><g id="figure_1"><path d="M0 310.868h408.101V0H0z" style="fill:#fff" id="patch_1"/><g id="axes_1"><path d="M43.781 273.312h357.12V7.2H43.781z" style="fill:#fff" id="patch_2"/><g id="matplotlib.axis_1"><g id="xtick_1"><g id="line2d_1"><defs><path id="m5db145afde" d="M0 0v3.5" style="stroke:#000;stroke-width:.8"/></defs><use xlink:href="#m5db145afde" x="60.014" y="273.312" style="stroke:#000;stroke-width:.8"/></g><g transform="matrix(.1 0 0 -.1 52.062 287.91)" id="text_1"><defs><path id="DejaVuSans-30" d="M2034 4250q-487 0-733-480-245-479-245-1442 0-959 245-1439 246-480 733-480 491 0 736 480 246 480 246 1439 0 963-246 1442-245 480-736 480zm0 500q785 0 1199-621 414-620 414-1801 0-1178-414-1799Q2819-91 2034-91q-784 0-1198 620-414 621-414 1799 0 1181 414 1801 414 621 1198 621z" transform="scale(.01563)"/><path id="DejaVuSans-2e" d="M684 794h660V0H684v794z" transform="scale(.01563)"/></defs><use xlink:href="#DejaVuSans-30"/><use xlink:href="#DejaVuSans-2e" x="63.623"/><use xlink:href="#DejaVuSans-30" x="95.41"/></g></g><g id="xtick_2"><use xlink:href="#m5db145afde" x="114.123" y="273.312" style="stroke:#000;stroke-width:.8" id="line2d_2"/><g transform="matrix(.1 0 0 -.1 106.172 287.91)" id="text_2"><defs><path id="DejaVuSans-35" d="M691 4666h2478v-532H1269V2991q137 47 274 70 138 23 276 23 781 0 1237-428 457-428 457-1159 0-753-469-1171Q2575-91 1722-91q-294 0-599 50Q819 9 494 109v635q281-153 581-228t634-75q541 0 856 284 316 284 316 772 0 487-316 771-315 285-856 285-253 0-505-56-251-56-513-175v2344z" transform="scale(.01563)"/></defs><use xlink:href="#DejaVuSans-30"/><use xlink:href="#DejaVuSans-2e" x="63.623"/><use xlink:href="#DejaVuSans-35" x="95.41"/></g></g><g id="xtick_3"><use xlink:href="#m5db145afde" x="168.232" y="273.312" style="stroke:#000;stroke-width:.8" id="line2d_3"/><g transform="matrix(.1 0 0 -.1 160.28 287.91)" id="text_3"><defs><path id="DejaVuSans-31" d="M794 531h1031v3560L703 3866v575l1116 225h631V531h1031V0H794v531z" transform="scale(.01563)"/></defs><use xlink:href="#DejaVuSans-31"/><use xlink:href="#DejaVuSans-2e" x="63.623"/><use xlink:href="#DejaVuSans-30" x="95.41"/></g></g><g id="xtick_4"><use xlink:href="#m5db145afde" x="222.341" y="273.312" style="stroke:#000;stroke-width:.8" id="line2d_4"/><g transform="matrix(.1 0 0 -.1 214.39 287.91)" id="text_4"><use xlink:href="#DejaVuSans-31"/><use xlink:href="#DejaVuSans-2e" x="63.623"/><use xlink:href="#DejaVuSans-35" x="95.41"/></g></g><g id="xtick_5"><use xlink:href="#m5db145afde" x="276.45" y="273.312" style="stroke:#000;stroke-width:.8" id="line2d_5"/><g transform="matrix(.1 0 0 -.1 268.499 287.91)" id="text_5"><defs><path id="DejaVuSans-32" d="M1228 531h2203V0H469v531q359 372 979 998 621 627 780 809 303 340 423 576 121 236 121 464 0 372-261 606-261 235-680 235-297 0-627-103-329-103-704-313v638q381 153 712 231 332 78 607 78 725 0 1156-363 431-362 431-968 0-288-108-546-107-257-392-607-78-91-497-524-418-433-1181-1211z" transform="scale(.01563)"/></defs><use xlink:href="#DejaVuSans-32"/><use xlink:href="#DejaVuSans-2e" x="63.623"/><use xlink:href="#DejaVuSans-30" x="95.41"/></g></g><g id="xtick_6"><use xlink:href="#m5db145afde" x="330.559" y="273.312" style="stroke:#000;stroke-width:.8" id="line2d_6"/><g transform="matrix(.1 0 0 -.1 322.608 287.91)" id="text_6"><use xlink:href="#DejaVuSans-32"/><use xlink:href="#DejaVuSans-2e" x="63.623"/><use xlink:href="#DejaVuSans-35" x="95.41"/></g></g><g id="xtick_7"><use xlink:href="#m5db145afde" x="384.669" y="273.312" style="stroke:#000;stroke-width:.8" id="line2d_7"/><g transform="matrix(.1 0 0 -.1 376.717 287.91)" id="text_7"><defs><path id="DejaVuSans-33" d="M2597 2516q453-97 707-404 255-306 255-756 0-690-475-1069Q2609-91 1734-91q-293 0-604 58T488 141v609q262-153 574-231 313-78 654-78 593 0 904 234t311 681q0 413-289 645-289 233-804 233h-544v519h569q465 0 712 186t247 536q0 359-255 551-254 193-729 193-260 0-557-57-297-56-653-174v562q360 100 674 150t592 50q719 0 1137-327 419-326 419-882 0-388-222-655t-631-370z" transform="scale(.01563)"/></defs><use xlink:href="#DejaVuSans-33"/><use xlink:href="#DejaVuSans-2e" x="63.623"/><use xlink:href="#DejaVuSans-30" x="95.41"/></g></g><g transform="matrix(.1 0 0 -.1 190.794 301.589)" id="text_8"><defs><path id="DejaVuSans-64" d="M2906 2969v1894h575V0h-575v525q-181-312-458-464-276-152-664-152-634 0-1033 506-398 507-398 1332t398 1331q399 506 1033 506 388 0 664-152 277-151 458-463zM947 1747q0-634 261-995t717-361q456 0 718 361 263 361 263 995t-263 995q-262 361-718 361t-717-361q-261-361-261-995z" transform="scale(.01563)"/><path id="DejaVuSans-69" d="M603 3500h575V0H603v3500zm0 1363h575v-729H603v729z" transform="scale(.01563)"/><path id="DejaVuSans-73" d="M2834 3397v-544q-243 125-506 187-262 63-544 63-428 0-642-131t-214-394q0-200 153-314t616-217l197-44q612-131 870-370t258-667q0-488-386-773Q2250-91 1575-91q-281 0-586 55T347 128v594q319-166 628-249 309-82 613-82 406 0 624 139 219 139 219 392 0 234-158 359-157 125-692 241l-200 47q-534 112-772 345-237 233-237 639 0 494 350 762 350 269 994 269 318 0 599-47 282-46 519-140z" transform="scale(.01563)"/><path id="DejaVuSans-74" d="M1172 4494v-994h1184v-447H1172V1153q0-428 117-550t477-122h590V0h-590q-666 0-919 248-253 249-253 905v1900H172v447h422v994h578z" transform="scale(.01563)"/><path id="DejaVuSans-61" d="M2194 1759q-697 0-966-159t-269-544q0-306 202-486 202-179 548-179 479 0 768 339t289 901v128h-572zm1147 238V0h-575v531q-197-318-491-470T1556-91q-537 0-855 302-317 302-317 808 0 590 395 890 396 300 1180 300h807v57q0 397-261 614t-733 217q-300 0-585-72-284-72-546-216v532q315 122 612 182 297 61 578 61 760 0 1135-394 375-393 375-1193z" transform="scale(.01563)"/><path id="DejaVuSans-6e" d="M3513 2113V0h-575v2094q0 497-194 743-194 247-581 247-466 0-735-297-269-296-269-809V0H581v3500h578v-544q207 316 486 472 280 156 646 156 603 0 912-373 310-373 310-1098z" transform="scale(.01563)"/><path id="DejaVuSans-63" d="M3122 3366v-538q-244 135-489 202t-495 67q-560 0-870-355-309-354-309-995t309-996q310-354 870-354 250 0 495 67t489 202V134Q2881 22 2623-34q-257-57-548-57-791 0-1257 497-465 497-465 1341 0 856 470 1346 471 491 1290 491 265 0 518-55 253-54 491-163z" transform="scale(.01563)"/><path id="DejaVuSans-65" d="M3597 1894v-281H953q38-594 358-905t892-311q331 0 642 81t618 244V178Q3153 47 2828-22t-659-69q-838 0-1327 487-489 488-489 1320 0 859 464 1363 464 505 1252 505 706 0 1117-455 411-454 411-1235zm-575 169q-6 471-264 752-258 282-683 282-481 0-770-272t-333-766l2050 4z" transform="scale(.01563)"/><path id="DejaVuSans-5b" d="M550 4863h1325v-447h-750V-397h750v-447H550v5707z" transform="scale(.01563)"/><path id="DejaVuSans-6d" d="M3328 2828q216 388 516 572t706 184q547 0 844-383 297-382 297-1088V0h-578v2094q0 503-179 746-178 244-543 244-447 0-707-297-259-296-259-809V0h-578v2094q0 506-178 748t-550 242q-441 0-701-298-259-298-259-808V0H581v3500h578v-544q197 322 472 475t653 153q382 0 649-194 267-193 395-562z" transform="scale(.01563)"/><path id="DejaVuSans-5d" d="M1947 4863V-844H622v447h747v4813H622v447h1325z" transform="scale(.01563)"/></defs><use xlink:href="#DejaVuSans-64"/><use xlink:href="#DejaVuSans-69" x="63.477"/><use xlink:href="#DejaVuSans-73" x="91.26"/><use xlink:href="#DejaVuSans-74" x="143.359"/><use xlink:href="#DejaVuSans-61" x="182.568"/><use xlink:href="#DejaVuSans-6e" x="243.848"/><use xlink:href="#DejaVuSans-63" x="307.227"/><use xlink:href="#DejaVuSans-65" x="362.207"/><use xlink:href="#DejaVuSans-20" x="423.73"/><use xlink:href="#DejaVuSans-5b" x="455.518"/><use xlink:href="#DejaVuSans-6d" x="494.531"/><use xlink:href="#DejaVuSans-5d" x="591.943"/></g></g><g id="matplotlib.axis_2"><g id="ytick_1"><g id="line2d_8"><defs><path id="m3122e4111a" d="M0 0h-3.5" style="stroke:#000;stroke-width:.8"/></defs><use xlink:href="#m3122e4111a" x="43.781" y="267.377" style="stroke:#000;stroke-width:.8"/></g><g transform="matrix(.1 0 0 -.1 20.878 271.176)" id="text_9"><use xlink:href="#DejaVuSans-30"/><use xlink:href="#DejaVuSans-2e" x="63.623"/><use xlink:href="#DejaVuSans-30" x="95.41"/></g></g><g id="ytick_2"><use xlink:href="#m3122e4111a" x="43.781" y="228.832" style="stroke:#000;stroke-width:.8" id="line2d_9"/><g transform="matrix(.1 0 0 -.1 20.878 232.631)" id="text_10"><use xlink:href="#DejaVuSans-30"/><use xlink:href="#DejaVuSans-2e" x="63.623"/><use xlink:href="#DejaVuSans-32" x="95.41"/></g></g><g id="ytick_3"><use xlink:href="#m3122e4111a" x="43.781" y="190.287" style="stroke:#000;stroke-width:.8" id="line2d_10"/><g transform="matrix(.1 0 0 -.1 20.878 194.086)" id="text_11"><defs><path id="DejaVuSans-34" d="M2419 4116 825 1625h1594v2491zm-166 550h794V1625h666v-525h-666V0h-628v1100H313v609l1940 2957z" transform="scale(.01563)"/></defs><use xlink:href="#DejaVuSans-30"/><use xlink:href="#DejaVuSans-2e" x="63.623"/><use xlink:href="#DejaVuSans-34" x="95.41"/></g></g><g id="ytick_4"><use xlink:href="#m3122e4111a" x="43.781" y="151.742" style="stroke:#000;stroke-width:.8" id="line2d_11"/><g transform="matrix(.1 0 0 -.1 20.878 155.54)" id="text_12"><defs><path id="DejaVuSans-36" d="M2113 2584q-425 0-674-291-248-290-248-796 0-503 248-796 249-292 674-292t673 292q248 293 248 796 0 506-248 796-248 291-673 291zm1253 1979v-575q-238 112-480 171-242 60-480 60-625 0-955-422-329-422-376-1275 184 272 462 417 279 145 613 145 703 0 1111-427 408-426 408-1160 0-719-425-1154Q2819-91 2113-91q-810 0-1238 620-428 621-428 1799 0 1106 525 1764t1409 658q238 0 480-47t505-140z" transform="scale(.01563)"/></defs><use xlink:href="#DejaVuSans-30"/><use xlink:href="#DejaVuSans-2e" x="63.623"/><use xlink:href="#DejaVuSans-36" x="95.41"/></g></g><g id="ytick_5"><use xlink:href="#m3122e4111a" x="43.781" y="113.196" style="stroke:#000;stroke-width:.8" id="line2d_12"/><g transform="matrix(.1 0 0 -.1 20.878 116.996)" id="text_13"><defs><path id="DejaVuSans-38" d="M2034 2216q-450 0-708-241-257-241-257-662 0-422 257-663 258-241 708-241t709 242q260 243 260 662 0 421-258 662-257 241-711 241zm-631 268q-406 100-633 378-226 279-226 679 0 559 398 884 399 325 1092 325 697 0 1094-325t397-884q0-400-227-679-226-278-629-378 456-106 710-416 255-309 255-755 0-679-414-1042Q2806-91 2034-91q-771 0-1186 362-414 363-414 1042 0 446 256 755 257 310 713 416zm-231 997q0-362 226-565 227-203 636-203 407 0 636 203 230 203 230 565 0 363-230 566-229 203-636 203-409 0-636-203-226-203-226-566z" transform="scale(.01563)"/></defs><use xlink:href="#DejaVuSans-30"/><use xlink:href="#DejaVuSans-2e" x="63.623"/><use xlink:href="#DejaVuSans-38" x="95.41"/></g></g><g id="ytick_6"><use xlink:href="#m3122e4111a" x="43.781" y="74.651" style="stroke:#000;stroke-width:.8" id="line2d_13"/><g transform="matrix(.1 0 0 -.1 20.878 78.45)" id="text_14"><use xlink:href="#DejaVuSans-31"/><use xlink:href="#DejaVuSans-2e" x="63.623"/><use xlink:href="#DejaVuSans-30" x="95.41"/></g></g><g id="ytick_7"><use xlink:href="#m3122e4111a" x="43.781" y="36.106" style="stroke:#000;stroke-width:.8" id="line2d_14"/><g transform="matrix(.1 0 0 -.1 20.878 39.905)" id="text_15"><use xlink:href="#DejaVuSans-31"/><use xlink:href="#DejaVuSans-2e" x="63.623"/><use xlink:href="#DejaVuSans-32" x="95.41"/></g></g><g transform="matrix(0 -.1 -.1 0 14.798 167.85)" id="text_16"><defs><path id="DejaVuSans-76" d="M191 3500h609L1894 563l1094 2937h609L2284 0h-781L191 3500z" transform="scale(.01563)"/><path id="DejaVuSans-6f" d="M1959 3097q-462 0-731-361t-269-989q0-628 267-989 268-361 733-361 460 0 728 362 269 363 269 988 0 622-269 986-268 364-728 364zm0 487q750 0 1178-488 429-487 429-1349 0-859-429-1349Q2709-91 1959-91q-753 0-1180 489-426 490-426 1349 0 862 426 1349 427 488 1180 488z" transform="scale(.01563)"/><path id="DejaVuSans-6c" d="M603 4863h575V0H603v4863z" transform="scale(.01563)"/><path id="DejaVuSans-67" d="M2906 1791q0 625-258 968-257 344-723 344-462 0-720-344-258-343-258-968 0-622 258-966t720-344q466 0 723 344 258 344 258 966zm575-1357q0-893-397-1329-396-436-1215-436-303 0-572 45t-522 139v559q253-137 500-202 247-66 503-66 566 0 847 295t281 892v285q-178-310-456-463T1784 0Q1141 0 747 490 353 981 353 1791q0 812 394 1302 394 491 1037 491 388 0 666-153t456-462v531h575V434z" transform="scale(.01563)"/><path id="DejaVuSans-56" d="M1831 0 50 4666h659L2188 738l1481 3928h656L2547 0h-716z" transform="scale(.01563)"/></defs><use xlink:href="#DejaVuSans-76"/><use xlink:href="#DejaVuSans-6f" x="59.18"/><use xlink:href="#DejaVuSans-6c" x="120.361"/><use xlink:href="#DejaVuSans-74" x="148.145"/><use xlink:href="#DejaVuSans-61" x="187.354"/><use xlink:href="#DejaVuSans-67" x="248.633"/><use xlink:href="#DejaVuSans-65" x="312.109"/><use xlink:href="#DejaVuSans-20" x="373.633"/><use xlink:href="#DejaVuSans-5b" x="405.42"/><use xlink:href="#DejaVuSans-56" x="444.434"/><use xlink:href="#DejaVuSans-5d" x="512.842"/></g></g><path d="m60.014 255.101 3.28 1.408 3.279-.934 3.279-4.577 3.28-20.13 3.279-6.44 3.279 1.608 3.28-6.445 3.279-.296 3.279-11.238 3.28-1.223 3.279 12.309 3.279-19.684 3.28 12.805 3.279-16.357 3.28 7.858 3.278-15.954 3.28 3.604 3.28 2.165 3.278-4.768 3.28 5.293 3.28-4.072 3.278-12.67 3.28-1.614 3.28-1.38 3.278 2.542 3.28-13.683 3.28-1.48 3.278 3.953 3.28-1.006 3.28-2.36 3.278 4.195 3.28 3.363 3.28-12.784 3.278 2.342 3.28 2.75 3.28-4.74 3.279-9.096 3.279-2.138 3.28 9.861 3.279-5.329 3.279 3.634 3.28-6.396 3.279 3.825 3.279-2.121 3.28-10.67 3.279 11.748 3.279-8.639 3.28 9.41 3.279-15.386 3.279-.056 3.28 9.644 3.279-13.17 3.279 14.893 3.28-6.199 3.279 2.751 3.279-6.595 3.28-7.462 3.279 10.126 3.279 2.683 3.28-7.538 3.279 3.243 3.279 1.365 3.28-10.133 3.279 4.745 3.279-7.863 3.28 8.45 3.279-14.954 3.279 10.49 3.28 4.387 3.279-10.697 3.279-6.338 3.28 8.8 3.279-10.483 3.28 8.203 3.278.888 3.28-4.298 3.28-7.755 3.278.369 3.28 8.91 3.28-6.24 3.278 4.524 3.28-1.1 3.28-5.42 3.278 6.684 3.28-6.624 3.28-.003 3.278-4.703 3.28 15.31 3.28-12.266 3.278-4.248 3.28-1.197 3.28 17.96 3.278-16.764 3.28-2.664 3.28.072 3.279 15.195 3.279-16.257 3.28 1.22 3.279.934" clip-path="url(#pc53acd0cac)" style="fill:none;stroke:#1f77b4;stroke-width:1.5;stroke-linecap:square" id="line2d_15"/><path d="m60.014 258.126 3.28-3.73 3.279-18.993 3.279-9.915 3.28 5.507 3.279-12.043 3.279-4.583 3.28-15.526 3.279 11.346 3.279-18.867 3.28-3.015 3.279 6.251 3.279-18.132 3.28 8.944 3.279-18.712 3.28.497 3.278-12.08 3.28 12.738 3.28-18.682 3.278 11.332 3.28-8.812 3.28-4.99 3.278-13.538 3.28 4.686 3.28 2.858 3.278-2.555 3.28-15.246 3.28 10.068 3.278-.654 3.28-5.679 3.28-8.181 3.278-1.749 3.28-7.22 3.28 2.58 3.278 3.086 3.28-4.493 3.28-9.843 3.279 1.718 3.279-8.33 3.28 9.499 3.279-5.346 3.279-2.562 3.28-6.621 3.279 11.871 3.279-6.661 3.28-11.291 3.279 15.159 3.279-16.535 3.28 6.378 3.279-9.423 3.279 14.398 3.28-8.211 3.279 4.183 3.279-12.367 3.28 6.025 3.279-9.51 3.279-5.866 3.28 14.554 3.279-15.387 3.279 14.381 3.28-7.307 3.279-2.036 3.279-2.207 3.28-10.443 3.279 2.845 3.279 7.993 3.28-.231 3.279-12.398 3.279-1.295 3.28 6.216 3.279 2.3 3.279-13.43 3.28 12.212 3.279 1.71 3.28-14.281 3.278.48 3.28 1.974 3.28-6.395 3.278-.151 3.28 2.653 3.28-2.921 3.278 11.084 3.28 1.313 3.28-10.907 3.278-1.561 3.28 9.862 3.28-5.084 3.278-10.587 3.28 6.066 3.28-.973 3.278 6.77 3.28-7.023 3.28-.565 3.278 7.768 3.28-17.807 3.28 7.326 3.279 10.31 3.279-15.335 3.28-4.523 3.279 6.933" clip-path="url(#pc53acd0cac)" style="fill:none;stroke:#ff7f0e;stroke-width:1.5;stroke-linecap:square" id="line2d_16"/><path d="m60.014 261.216 3.28-6.522 3.279-17.899 3.279 1.125 3.28-15.013 3.279-7.71 3.279-13.808 3.28 10.632 3.279-14.448 3.279-10.614 3.28 5.29 3.279-9.441 3.279 1.127 3.28-17.693 3.279 7.591 3.28-10.433 3.278-13.547 3.28 3.579 3.28-12.477 3.278-1.01 3.28-6.571 3.28 11.63 3.278-2.39 3.28-3.24 3.28-18.578 3.278 1.447 3.28-.324 3.28 3.544 3.278-12.613 3.28 4.165 3.28-10.177 3.278 2.304 3.28-3.354 3.28-7.81 3.278 11.13 3.28-11.6 3.28 5.184 3.279-13.88 3.279 4.105 3.28-11.624 3.279 13.593 3.279-16.918 3.28 1.291 3.279 4.375 3.279-8.142 3.28 2.366 3.279-2.659 3.279-6.593 3.28 14.78 3.279-16.366 3.279 7.239 3.28-.375 3.279-14.309 3.279 2.71 3.28 4.338 3.279-.117 3.279-10.066 3.28 13.968 3.279-13.222 3.279-2.771 3.28-1.383 3.279 8.027 3.279-10.282 3.28 9.895 3.279-3.732 3.279-2.134 3.28-3.437 3.279 7.236 3.279-6.68 3.28 6.849 3.279-15.309 3.279-3.022 3.28 12.809 3.279-11.8 3.28-3.159 3.278-3.978 3.28 1.796 3.28 7.24 3.278-11.541 3.28-.709 3.28 8.26 3.278-5.604 3.28-3.867 3.28 7.673 3.278-8.22 3.28 2.388 3.28 7.132 3.278-9.842 3.28 3.095 3.28 8.5 3.278-6.412 3.28 5.455 3.28-8.413 3.278.272 3.28-.543 3.28-3.76 3.279 8.32 3.279-16.239 3.28 4.215 3.279-3.281" clip-path="url(#pc53acd0cac)" style="fill:none;stroke:#2ca02c;stroke-width:1.5;stroke-linecap:square" id="line2d_17"/><path d="M43.781 273.312V7.2" style="fill:none;stroke:#000;stroke-width:.8;stroke-linejoin:miter;stroke-linecap:square" id="patch_3"/><path d="M400.901 273.312V7.2" style="fill:none;stroke:#000;stroke-width:.8;stroke-linejoin:miter;stroke-linecap:square" id="patch_4"/><path d="M43.781 273.312h357.12" style="fill:none;stroke:#000;stroke-width:.8;stroke-linejoin:miter;stroke-linecap:square" id="patch_5"/><path d="M43.781 7.2h357.12" style="fill:none;stroke:#000;stroke-width:.8;stroke-linejoin:miter;stroke-linecap:square" id="patch_6"/><g id="legend_1"><path d="M50.781 59.234h96.317q2 0 2-2V14.2q0-2-2-2H50.781q-2 0-2 2v43.034q0 2 2 2z" style="fill:#fff;opacity:.8;stroke:#ccc;stroke-linejoin:miter" id="patch_7"/><path d="M52.781 20.298h20" style="fill:none;stroke:#1f77b4;stroke-width:1.5;stroke-linecap:square" id="line2d_18"/><g transform="matrix(.1 0 0 -.1 80.781 23.798)" id="text_17"><defs><path id="DejaVuSans-62" d="M3116 1747q0 634-261 995t-717 361q-457 0-718-361t-261-995q0-634 261-995t718-361q456 0 717 361t261 995zM1159 2969q182 312 458 463 277 152 661 152 638 0 1036-506 399-506 399-1331T3314 415Q2916-91 2278-91q-384 0-661 152-276 152-458 464V0H581v4863h578V2969z" transform="scale(.01563)"/></defs><use xlink:href="#DejaVuSans-6e"/><use xlink:href="#DejaVuSans-6f" x="63.379"/><use xlink:href="#DejaVuSans-20" x="124.561"/><use xlink:href="#DejaVuSans-62" x="156.348"/><use xlink:href="#DejaVuSans-61" x="219.824"/><use xlink:href="#DejaVuSans-6c" x="281.104"/><use xlink:href="#DejaVuSans-61" x="308.887"/><use xlink:href="#DejaVuSans-6e" x="370.166"/><use xlink:href="#DejaVuSans-63" x="433.545"/><use xlink:href="#DejaVuSans-69" x="488.525"/><use xlink:href="#DejaVuSans-6e" x="516.309"/><use xlink:href="#DejaVuSans-67" x="579.688"/></g><path d="M52.781 34.977h20" style="fill:none;stroke:#ff7f0e;stroke-width:1.5;stroke-linecap:square" id="line2d_19"/><g transform="matrix(.1 0 0 -.1 80.781 38.477)" id="text_18"><defs><path id="DejaVuSans-43" d="M4122 4306v-665q-319 297-680 443-361 147-767 147-800 0-1225-489t-425-1414q0-922 425-1411t1225-489q406 0 767 147t680 444V359q-331-225-702-338-370-112-782-112-1060 0-1670 648-609 649-609 1771 0 1125 609 1773 610 649 1670 649 418 0 788-111 371-111 696-333z" transform="scale(.01563)"/><path id="DejaVuSans-52" d="M2841 2188q203-69 395-294t386-619L4263 0h-679l-596 1197q-232 469-449 622t-592 153h-688V0H628v4666h1425q800 0 1194-335 394-334 394-1009 0-441-205-732-205-290-595-402zM1259 4147V2491h794q456 0 689 211t233 620q0 409-233 617t-689 208h-794z" transform="scale(.01563)"/><path id="DejaVuSans-2d" d="M313 2009h1684v-512H313v512z" transform="scale(.01563)"/><path id="DejaVuSans-37" d="M525 4666h3000v-269L1831 0h-659l1594 4134H525v532z" transform="scale(.01563)"/></defs><use xlink:href="#DejaVuSans-43"/><use xlink:href="#DejaVuSans-52" x="69.824"/><use xlink:href="#DejaVuSans-56" x="133.807"/><use xlink:href="#DejaVuSans-2d" x="196.34"/><use xlink:href="#DejaVuSans-32" x="232.424"/><use xlink:href="#DejaVuSans-37" x="296.047"/></g><path d="M52.781 49.655h20" style="fill:none;stroke:#2ca02c;stroke-width:1.5;stroke-linecap:square" id="line2d_20"/><g transform="matrix(.1 0 0 -.1 80.781 53.155)" id="text_19"><defs><path id="DejaVuSans-2a" d="m3009 3897-1121-606 1121-610-181-306-1050 634V1831h-356v1178L372 2375l-181 306 1122 610-1122 606 181 309 1050-634v1178h356V3572l1050 634 181-309z" transform="scale(.01563)"/></defs><use xlink:href="#DejaVuSans-43"/><use xlink:href="#DejaVuSans-52" x="69.824"/><use xlink:href="#DejaVuSans-56" x="133.807"/><use xlink:href="#DejaVuSans-2d" x="196.34"/><use xlink:href="#DejaVuSans-32" x="232.424"/><use xlink:href="#DejaVuSans-37" x="296.047"/><use xlink:href="#DejaVuSans-2a" x="359.67"/></g></g></g></g><defs><clipPath id="pc53acd0cac"><path d="M43.781 7.2h357.12v266.112H43.781z"/></clipPath></defs></svg>