<svg xmlns:xlink="http://www.w3.org/1999/xlink" width="699.359" height="469.229" viewBox="0 0 524.52 351.922" xmlns="http://www.w3.org/2000/svg"><defs><style>*{stroke-linejoin:round;stroke-linecap:butt}</style></defs><g id="figure_1"><path d="M0 351.922h524.52V0H0z" style="fill:#fff" id="patch_1"/><g id="axes_1"><path d="M73.378 294.299h357.12V28.187H73.378z" style="fill:#fff" id="patch_2"/><g id="matplotlib.axis_1"><g id="xtick_1"><g id="line2d_1"><defs><path id="md44760d8e0" d="M0 0v3.5" style="stroke:#969696;stroke-width:.4"/></defs><use xlink:href="#md44760d8e0" x="73.378" y="294.299" style="fill:#969696;stroke:#969696;stroke-width:.4"/></g><g style="fill:#969696" transform="matrix(.14 0 0 -.14 64.748 311.239)" id="text_1"><defs><path id="MyriadPro-Regular-30" d="M1677 4230c-845 0-1447-768-1447-2163C243 691 794-70 1606-70c922 0 1447 780 1447 2195 0 1325-499 2105-1376 2105zm-32-435c582 0 845-672 845-1696 0-1062-276-1734-852-1734-512 0-844 614-844 1696 0 1133 358 1734 851 1734z" transform="scale(.01563)"/><path id="MyriadPro-Regular-2e" d="M710-70c237 0 384 172 384 403 0 237-153 403-377 403S333 570 333 333c0-231 153-403 371-403h6z" transform="scale(.01563)"/></defs><use xlink:href="#MyriadPro-Regular-30"/><use xlink:href="#MyriadPro-Regular-2e" x="51.3"/><use xlink:href="#MyriadPro-Regular-30" x="72"/></g></g><g id="xtick_2"><use xlink:href="#md44760d8e0" x="132.898" y="294.299" style="fill:#969696;stroke:#969696;stroke-width:.4" id="line2d_2"/><g style="fill:#969696" transform="matrix(.14 0 0 -.14 124.268 311.239)" id="text_2"><defs><path id="MyriadPro-Regular-35" d="M2771 4160H781L512 2163c154 19 339 45 576 45 832 0 1190-384 1197-922 0-556-455-902-986-902-377 0-717 128-889 230L269 186C467 58 851-70 1306-70c902 0 1548 608 1548 1420 0 525-268 884-595 1069-256 154-576 224-896 224-153 0-243-13-339-25l160 1068h1587v474z" transform="scale(.01563)"/></defs><use xlink:href="#MyriadPro-Regular-30"/><use xlink:href="#MyriadPro-Regular-2e" x="51.3"/><use xlink:href="#MyriadPro-Regular-35" x="72"/></g></g><g id="xtick_3"><use xlink:href="#md44760d8e0" x="192.418" y="294.299" style="fill:#969696;stroke:#969696;stroke-width:.4" id="line2d_3"/><g style="fill:#969696" transform="matrix(.14 0 0 -.14 183.788 311.239)" id="text_3"><defs><path id="MyriadPro-Regular-31" d="M1510 0h544v4160h-480l-908-486 108-429 724 390h12V0z" transform="scale(.01563)"/></defs><use xlink:href="#MyriadPro-Regular-31"/><use xlink:href="#MyriadPro-Regular-2e" x="51.3"/><use xlink:href="#MyriadPro-Regular-30" x="72"/></g></g><g id="xtick_4"><use xlink:href="#md44760d8e0" x="251.938" y="294.299" style="fill:#969696;stroke:#969696;stroke-width:.4" id="line2d_4"/><g style="fill:#969696" transform="matrix(.14 0 0 -.14 243.308 311.239)" id="text_4"><use xlink:href="#MyriadPro-Regular-31"/><use xlink:href="#MyriadPro-Regular-2e" x="51.3"/><use xlink:href="#MyriadPro-Regular-35" x="72"/></g></g><g id="xtick_5"><use xlink:href="#md44760d8e0" x="311.458" y="294.299" style="fill:#969696;stroke:#969696;stroke-width:.4" id="line2d_5"/><g style="fill:#969696" transform="matrix(.14 0 0 -.14 302.828 311.239)" id="text_5"><defs><path id="MyriadPro-Regular-32" d="M2944 0v467H1075v13l333 307c877 845 1434 1466 1434 2234 0 595-378 1209-1274 1209-480 0-890-179-1178-422l180-397c192 160 505 352 883 352 621 0 825-390 825-813-6-627-486-1164-1548-2176L288 346V0h2656z" transform="scale(.01563)"/></defs><use xlink:href="#MyriadPro-Regular-32"/><use xlink:href="#MyriadPro-Regular-2e" x="51.3"/><use xlink:href="#MyriadPro-Regular-30" x="72"/></g></g><g id="xtick_6"><use xlink:href="#md44760d8e0" x="370.978" y="294.299" style="fill:#969696;stroke:#969696;stroke-width:.4" id="line2d_6"/><g style="fill:#969696" transform="matrix(.14 0 0 -.14 362.348 311.239)" id="text_6"><use xlink:href="#MyriadPro-Regular-32"/><use xlink:href="#MyriadPro-Regular-2e" x="51.3"/><use xlink:href="#MyriadPro-Regular-35" x="72"/></g></g><g id="xtick_7"><use xlink:href="#md44760d8e0" x="430.498" y="294.299" style="fill:#969696;stroke:#969696;stroke-width:.4" id="line2d_7"/><g style="fill:#969696" transform="matrix(.14 0 0 -.14 421.868 311.239)" id="text_7"><defs><path id="MyriadPro-Regular-33" d="M269 211C474 77 883-70 1350-70c999 0 1517 582 1517 1248 0 582-416 966-928 1068v13c512 186 768 551 768 979 0 506-371 992-1190 992-448 0-871-160-1088-320l147-409c179 128 499 275 832 275 518 0 730-294 730-627 0-493-519-704-928-704H896v-423h314c544 0 1068-249 1075-832 6-345-218-806-941-806-390 0-762 160-922 262L269 211z" transform="scale(.01563)"/></defs><use xlink:href="#MyriadPro-Regular-33"/><use xlink:href="#MyriadPro-Regular-2e" x="51.3"/><use xlink:href="#MyriadPro-Regular-30" x="72"/></g></g><g style="fill:#969696" transform="matrix(.14 0 0 -.14 216.062 341.95)" id="text_8"><defs><path id="MyriadPro-Regular-64" d="M2579 4544V2694h-13c-140 250-460 474-934 474-755 0-1395-634-1389-1664C243 563 819-70 1568-70c506 0 883 262 1056 608h13l25-538h506c-19 211-26 525-26 800v3744h-563zm0-3245c0-89-6-166-25-243-103-422-448-672-826-672-608 0-915 518-915 1146 0 684 345 1196 928 1196 422 0 729-294 813-652 19-71 25-167 25-237v-538z" transform="scale(.01563)"/><path id="MyriadPro-Regular-69" d="M1030 0v3098H467V0h563zM749 4320c-205 0-352-154-352-352 0-192 141-346 339-346 224 0 365 154 358 346 0 198-134 352-345 352z" transform="scale(.01563)"/><path id="MyriadPro-Regular-73" d="M250 147C467 19 781-70 1120-70c736 0 1158 390 1158 934 0 461-275 730-812 934-404 154-589 269-589 525 0 231 185 423 518 423 288 0 512-103 634-180l141 410c-173 102-448 192-762 192-666 0-1069-410-1069-909 0-371 263-678 819-877 416-153 576-300 576-569 0-256-192-461-601-461-282 0-576 115-743 224L250 147z" transform="scale(.01563)"/><path id="MyriadPro-Regular-74" d="M595 3667v-569H115v-429h480V979c0-365 58-640 218-806C947 19 1158-70 1421-70c217 0 390 38 499 83l-26 422c-83-25-172-38-326-38-314 0-422 217-422 601v1671h806v429h-806v742l-551-173z" transform="scale(.01563)"/><path id="MyriadPro-Regular-61" d="M2643 1901c0 621-230 1267-1177 1267-391 0-762-109-1018-275l128-371c218 140 518 230 806 230 634 0 704-461 704-717v-64C890 1978 224 1568 224 819c0-448 320-889 947-889 442 0 775 217 947 460h20l44-390h512c-38 211-51 474-51 742v1159zm-544-858c0-57-13-121-32-179-89-262-345-518-749-518-288 0-531 172-531 537 0 602 698 711 1312 698v-538z" transform="scale(.01563)"/><path id="MyriadPro-Regular-6e" d="M467 0h563v1862c0 96 13 192 39 263 96 313 384 576 755 576 531 0 717-416 717-915V0h563v1850c0 1062-666 1318-1094 1318-512 0-871-288-1024-582h-13l-32 512H442c19-256 25-519 25-839V0z" transform="scale(.01563)"/><path id="MyriadPro-Regular-63" d="M2579 538c-160-71-371-154-691-154-614 0-1075 442-1075 1158 0 647 384 1172 1094 1172 307 0 519-71 653-148l128 436c-154 76-448 160-781 160-1011 0-1664-692-1664-1645C243 570 851-70 1786-70c416 0 742 108 889 185l-96 423z" transform="scale(.01563)"/><path id="MyriadPro-Regular-65" d="M2957 1446c6 58 19 148 19 263 0 569-269 1459-1280 1459-902 0-1453-736-1453-1670C243 563 813-70 1766-70c493 0 832 108 1031 198l-96 403c-211-89-455-160-858-160-563 0-1049 314-1062 1075h2176zM787 1850c45 390 295 915 864 915 634 0 787-557 781-915H787z" transform="scale(.01563)"/><path id="MyriadPro-Regular-5b" d="M1696-717v352H960v4403h736v352H525V-717h1171z" transform="scale(.01563)"/><path id="MyriadPro-Regular-6d" d="M467 0h551v1869c0 96 12 192 44 275 90 282 346 563 698 563 429 0 646-358 646-851V0h551v1914c0 102 19 204 45 281 96 275 345 512 665 512 455 0 672-358 672-953V0h551v1824c0 1075-608 1344-1018 1344-294 0-499-77-685-218-128-96-249-230-345-403h-13c-135 365-455 621-877 621-512 0-800-275-973-570h-19l-26 500H442c19-256 25-519 25-839V0z" transform="scale(.01563)"/><path id="MyriadPro-Regular-5d" d="M122 4390v-352h736V-365H122v-352h1171v5107H122z" transform="scale(.01563)"/></defs><use xlink:href="#MyriadPro-Regular-64"/><use xlink:href="#MyriadPro-Regular-69" x="56.4"/><use xlink:href="#MyriadPro-Regular-73" x="79.8"/><use xlink:href="#MyriadPro-Regular-74" x="119.4"/><use xlink:href="#MyriadPro-Regular-61" x="152.5"/><use xlink:href="#MyriadPro-Regular-6e" x="200.7"/><use xlink:href="#MyriadPro-Regular-63" x="256.2"/><use xlink:href="#MyriadPro-Regular-65" x="301"/><use xlink:href="#MyriadPro-Regular-20" x="351.1"/><use xlink:href="#MyriadPro-Regular-5b" x="372.3"/><use xlink:href="#MyriadPro-Regular-6d" x="400.7"/><use xlink:href="#MyriadPro-Regular-5d" x="484.1"/></g></g><g id="matplotlib.axis_2"><g id="ytick_1"><path d="M73.378 258.676h357.12" clip-path="url(#pa42a81f70b)" style="fill:none;stroke:#969696;stroke-width:.3;stroke-linecap:square" id="line2d_8"/><g id="line2d_9"><defs><path id="m53f616bcd4" d="M0 0h-3.5" style="stroke:#969696;stroke-width:.3"/></defs><use xlink:href="#m53f616bcd4" x="73.378" y="258.676" style="fill:#969696;stroke:#969696;stroke-width:.3"/></g><g style="fill:#969696" transform="matrix(.14 0 0 -.14 49.117 263.646)" id="text_9"><use xlink:href="#MyriadPro-Regular-30"/><use xlink:href="#MyriadPro-Regular-2e" x="51.3"/><use xlink:href="#MyriadPro-Regular-32" x="72"/></g></g><g id="ytick_2"><path d="M73.378 216.277h357.12" clip-path="url(#pa42a81f70b)" style="fill:none;stroke:#969696;stroke-width:.3;stroke-linecap:square" id="line2d_10"/><use xlink:href="#m53f616bcd4" x="73.378" y="216.277" style="fill:#969696;stroke:#969696;stroke-width:.3" id="line2d_11"/><g style="fill:#969696" transform="matrix(.14 0 0 -.14 49.117 221.247)" id="text_10"><defs><path id="MyriadPro-Regular-34" d="M2560 0v1133h582v441h-582v2586h-608L96 1504v-371h1933V0h531zM666 1574v13l1017 1415c115 192 218 371 346 614h19c-13-218-19-435-19-653V1574H666z" transform="scale(.01563)"/></defs><use xlink:href="#MyriadPro-Regular-30"/><use xlink:href="#MyriadPro-Regular-2e" x="51.3"/><use xlink:href="#MyriadPro-Regular-34" x="72"/></g></g><g id="ytick_3"><path d="M73.378 173.877h357.12" clip-path="url(#pa42a81f70b)" style="fill:none;stroke:#969696;stroke-width:.3;stroke-linecap:square" id="line2d_12"/><use xlink:href="#m53f616bcd4" x="73.378" y="173.877" style="fill:#969696;stroke:#969696;stroke-width:.3" id="line2d_13"/><g style="fill:#969696" transform="matrix(.14 0 0 -.14 49.117 178.847)" id="text_11"><defs><path id="MyriadPro-Regular-36" d="M2662 4224c-102 0-243-6-409-32-525-64-986-275-1331-614-410-410-704-1056-704-1876C218 621 800-70 1690-70c864 0 1382 704 1382 1465 0 813-518 1344-1254 1344-461 0-807-217-1005-480h-19c96 685 563 1331 1446 1479 160 25 307 32 422 25v461zM1690 365c-589 0-903 505-916 1190 0 103 26 186 64 250 154 301 468 512 807 512 518 0 857-359 857-954s-326-998-806-998h-6z" transform="scale(.01563)"/></defs><use xlink:href="#MyriadPro-Regular-30"/><use xlink:href="#MyriadPro-Regular-2e" x="51.3"/><use xlink:href="#MyriadPro-Regular-36" x="72"/></g></g><g id="ytick_4"><path d="M73.378 131.477h357.12" clip-path="url(#pa42a81f70b)" style="fill:none;stroke:#969696;stroke-width:.3;stroke-linecap:square" id="line2d_14"/><use xlink:href="#m53f616bcd4" x="73.378" y="131.477" style="fill:#969696;stroke:#969696;stroke-width:.3" id="line2d_15"/><g style="fill:#969696" transform="matrix(.14 0 0 -.14 49.117 136.447)" id="text_12"><defs><path id="MyriadPro-Regular-38" d="M1062 2170c-512-218-825-589-825-1114C237 448 762-70 1632-70c794 0 1414 486 1414 1209 0 506-320 871-838 1075v20c512 243 685 620 685 972 0 519-403 1024-1210 1024-729 0-1286-448-1286-1107 0-358 198-717 659-934l6-19zm583-1831c-531 0-851 371-832 794 0 397 262 717 749 857 563-160 915-403 915-908 0-423-327-743-832-743zm6 3488c506 0 704-345 704-678 0-378-275-634-633-755-480 128-794 352-794 768 0 358 256 665 723 665z" transform="scale(.01563)"/></defs><use xlink:href="#MyriadPro-Regular-30"/><use xlink:href="#MyriadPro-Regular-2e" x="51.3"/><use xlink:href="#MyriadPro-Regular-38" x="72"/></g></g><g id="ytick_5"><path d="M73.378 89.078h357.12" clip-path="url(#pa42a81f70b)" style="fill:none;stroke:#969696;stroke-width:.3;stroke-linecap:square" id="line2d_16"/><use xlink:href="#m53f616bcd4" x="73.378" y="89.078" style="fill:#969696;stroke:#969696;stroke-width:.3" id="line2d_17"/><g style="fill:#969696" transform="matrix(.14 0 0 -.14 49.117 94.048)" id="text_13"><use xlink:href="#MyriadPro-Regular-31"/><use xlink:href="#MyriadPro-Regular-2e" x="51.3"/><use xlink:href="#MyriadPro-Regular-30" x="72"/></g></g><g id="ytick_6"><path d="M73.378 46.678h357.12" clip-path="url(#pa42a81f70b)" style="fill:none;stroke:#969696;stroke-width:.3;stroke-linecap:square" id="line2d_18"/><use xlink:href="#m53f616bcd4" x="73.378" y="46.678" style="fill:#969696;stroke:#969696;stroke-width:.3" id="line2d_19"/><g style="fill:#969696" transform="matrix(.14 0 0 -.14 49.117 51.648)" id="text_14"><use xlink:href="#MyriadPro-Regular-31"/><use xlink:href="#MyriadPro-Regular-2e" x="51.3"/><use xlink:href="#MyriadPro-Regular-32" x="72"/></g></g><g style="fill:#969696" transform="matrix(.14 0 0 -.14 7.2 17.14)" id="text_15"><defs><path id="MyriadPro-Regular-76" d="M83 3098 1261 0h537l1216 3098h-588l-602-1741c-102-282-192-538-262-794h-20c-64 256-147 512-249 794L685 3098H83z" transform="scale(.01563)"/><path id="MyriadPro-Regular-6f" d="M1779 3168c-857 0-1536-608-1536-1645C243 544 890-70 1728-70c749 0 1542 499 1542 1644 0 948-601 1594-1491 1594zm-13-422c666 0 928-666 928-1191 0-697-403-1203-940-1203-551 0-941 512-941 1190 0 589 288 1204 953 1204z" transform="scale(.01563)"/><path id="MyriadPro-Regular-6c" d="M467 0h563v4544H467V0z" transform="scale(.01563)"/><path id="MyriadPro-Regular-67" d="M3110 2246c0 378 13 628 26 852h-493l-25-468h-13c-135 256-429 538-967 538-710 0-1395-595-1395-1645C243 666 794 13 1562 13c480 0 812 230 985 518h13V186c0-781-422-1082-998-1082-384 0-704 115-909 243l-141-429c250-166 659-256 1030-256 391 0 826 90 1127 372 301 268 441 704 441 1414v1798zm-556-928c0-96-13-204-45-300-122-359-435-576-781-576-608 0-915 505-915 1113 0 717 384 1171 921 1171 410 0 685-268 788-595 25-77 32-160 32-256v-557z" transform="scale(.01563)"/><path id="MyriadPro-Regular-56" d="m2048 0 1542 4314h-595l-729-2132c-192-563-372-1107-493-1606h-13c-115 506-275 1030-461 1613L627 4314H26L1434 0h614z" transform="scale(.01563)"/></defs><use xlink:href="#MyriadPro-Regular-76"/><use xlink:href="#MyriadPro-Regular-6f" x="48.1"/><use xlink:href="#MyriadPro-Regular-6c" x="103"/><use xlink:href="#MyriadPro-Regular-74" x="126.6"/><use xlink:href="#MyriadPro-Regular-61" x="159.7"/><use xlink:href="#MyriadPro-Regular-67" x="207.9"/><use xlink:href="#MyriadPro-Regular-65" x="263.8"/><use xlink:href="#MyriadPro-Regular-20" x="313.9"/><use xlink:href="#MyriadPro-Regular-5b" x="335.1"/><use xlink:href="#MyriadPro-Regular-56" x="363.5"/><use xlink:href="#MyriadPro-Regular-5d" x="419.3"/></g></g><path d="m73.378 287.573 3.608 1.548 3.607-1.028 3.607-5.034 3.608-22.143 3.607-7.085 3.607 1.77 3.607-7.09 3.608-.325 3.607-12.361 3.607-1.347 3.607 13.54 3.608-21.652 3.607 14.086 3.607-17.993 3.608 8.644 3.607-17.55 3.607 3.965 3.607 2.381 3.608-5.245 3.607 5.822 3.607-4.478 3.607-13.938 3.608-1.775 3.607-1.517 3.607 2.796 3.608-15.052 3.607-1.629 3.607 4.349 3.607-1.106 3.608-2.596 3.607 4.614 3.607 3.7 3.607-14.062 3.608 2.575 3.607 3.025 3.607-5.213 3.608-10.006 3.607-2.352 3.607 10.847 3.607-5.862 3.608 3.998 3.607-7.036 3.607 4.208 3.607-2.334 3.608-11.736 3.607 12.922 3.607-9.502 3.608 10.35 3.607-16.924 3.607-.062 3.607 10.608 3.608-14.486 3.607 16.382 3.607-6.819 3.607 3.026 3.608-7.254 3.607-8.208 3.607 11.138 3.608 2.95 3.607-8.29 3.607 3.567 3.607 1.501 3.608-11.146 3.607 5.22 3.607-8.65 3.607 9.295 3.608-16.45 3.607 11.54 3.607 4.825 3.608-11.766 3.607-6.972 3.607 9.679 3.607-11.53 3.608 9.023 3.607.977 3.607-4.728 3.607-8.53 3.608.405 3.607 9.802 3.607-6.864 3.608 4.975 3.607-1.21 3.607-5.96 3.607 7.352 3.608-7.287 3.607-.004 3.607-5.173 3.607 16.84 3.608-13.491 3.607-4.673 3.607-1.317 3.608 19.757 3.607-18.442 3.607-2.93 3.607.079 3.608 16.715 3.607-17.883 3.607 1.342 3.607 1.028" clip-path="url(#pa42a81f70b)" style="fill:none;stroke:#1f77b4;stroke-width:1.5;stroke-linecap:square" id="line2d_20"/><path d="m73.378 290.9 3.608-4.103 3.607-20.892 3.607-10.907 3.608 6.058 3.607-13.247 3.607-5.042 3.607-17.078 3.608 12.48 3.607-20.754 3.607-3.316 3.607 6.876 3.608-19.946 3.607 9.84 3.607-20.584 3.608.546 3.607-13.288 3.607 14.013 3.607-20.55 3.608 12.465 3.607-9.693 3.607-5.49 3.607-14.891 3.608 5.154 3.607 3.144 3.607-2.81 3.608-16.771 3.607 11.075 3.607-.72 3.607-6.246 3.608-9 3.607-1.924 3.607-7.941 3.607 2.837 3.608 3.395 3.607-4.942 3.607-10.828 3.608 1.89 3.607-9.162 3.607 10.448 3.607-5.88 3.608-2.819 3.607-7.283 3.607 13.058 3.607-7.327 3.608-12.42L239.313 115l3.607-18.189 3.608 7.016 3.607-10.366 3.607 15.84 3.607-9.034 3.608 4.602 3.607-13.603 3.607 6.627 3.607-10.461 3.608-6.453 3.607 16.01 3.607-16.926 3.608 15.82 3.607-8.039 3.607-2.24 3.607-2.427 3.608-11.488 3.607 3.13 3.607 8.793 3.607-.255 3.608-13.637 3.607-1.425 3.607 6.838 3.608 2.53 3.607-14.773 3.607 13.433 3.607 1.881 3.608-15.71 3.607.53 3.607 2.17 3.607-7.034 3.608-.167 3.607 2.919 3.607-3.214 3.608 12.193 3.607 1.445 3.607-11.998 3.607-1.718 3.608 10.849 3.607-5.592 3.607-11.646 3.607 6.673 3.608-1.07 3.607 7.445 3.607-7.724 3.608-.622 3.607 8.545 3.607-19.587 3.607 8.058 3.608 11.342 3.607-16.87 3.607-4.975 3.607 7.627" clip-path="url(#pa42a81f70b)" style="fill:none;stroke:#ff7f0e;stroke-width:1.5;stroke-linecap:square" id="line2d_21"/><path d="m73.378 294.299 3.608-7.174 3.607-19.689 3.607 1.237 3.608-16.514 3.607-8.481 3.607-15.19 3.607 11.697 3.608-15.893 3.607-11.676 3.607 5.82 3.607-10.386 3.608 1.24 3.607-19.463 3.607 8.35 3.608-11.476 3.607-14.902 3.607 3.937 3.607-13.724 3.608-1.11 3.607-7.23 3.607 12.793 3.607-2.627 3.608-3.566 3.607-20.435 3.607 1.591 3.608-.356 3.607 3.898 3.607-13.874 3.607 4.581 3.608-11.194 3.607 2.535 3.607-3.69 3.607-8.591 3.608 12.243 3.607-12.76 3.607 5.702 3.608-15.268 3.607 4.516 3.607-12.786 3.607 14.952 3.608-18.61 3.607 1.42 3.607 4.813 3.607-8.957 3.608 2.603 3.607-2.925 3.607-7.252 3.608 16.259 3.607-18.004 3.607 7.963 3.607-.413 3.608-15.74 3.607 2.982 3.607 4.772 3.607-.129 3.608-11.073 3.607 15.366 3.607-14.545 3.608-3.049 3.607-1.52 3.607 8.83 3.607-11.31 3.608 10.884 3.607-4.106 3.607-2.347 3.607-3.781 3.608 7.96 3.607-7.349 3.607 7.535 3.608-16.84 3.607-3.324 3.607 14.09 3.607-12.981 3.608-3.474 3.607-4.376 3.607 1.975 3.607 7.964 3.608-12.695 3.607-.78 3.607 9.087 3.608-6.164 3.607-4.255 3.607 8.44 3.607-9.042 3.608 2.628 3.607 7.845 3.607-10.827 3.607 3.405 3.608 9.35 3.607-7.053 3.607 6 3.608-9.254 3.607.3 3.607-.599 3.607-4.134 3.608 9.15 3.607-17.862 3.607 4.637 3.607-3.61" clip-path="url(#pa42a81f70b)" style="fill:none;stroke:#2ca02c;stroke-width:1.5;stroke-linecap:square" id="line2d_22"/><g style="fill:#1f77b4" transform="matrix(.14 0 0 -.14 441.212 128.15)" id="text_16"><defs><path id="MyriadPro-Regular-62" d="M467 800c0-275-13-589-25-800h486l26 512h19c230-410 589-582 1037-582 691 0 1388 550 1388 1657 7 941-537 1581-1305 1581-499 0-858-224-1056-570h-13v1946H467V800zm557 998c0 90 19 167 32 231 115 429 474 691 858 691 601 0 921-531 921-1152 0-710-352-1190-941-1190-409 0-736 268-844 659-13 64-26 134-26 205v556z" transform="scale(.01563)"/></defs><use xlink:href="#MyriadPro-Regular-6e"/><use xlink:href="#MyriadPro-Regular-6f" x="55.5"/><use xlink:href="#MyriadPro-Regular-20" x="110.4"/><use xlink:href="#MyriadPro-Regular-62" x="131.6"/><use xlink:href="#MyriadPro-Regular-61" x="188.5"/><use xlink:href="#MyriadPro-Regular-6c" x="236.7"/><use xlink:href="#MyriadPro-Regular-61" x="260.3"/><use xlink:href="#MyriadPro-Regular-6e" x="308.5"/><use xlink:href="#MyriadPro-Regular-63" x="364"/><use xlink:href="#MyriadPro-Regular-69" x="408.8"/><use xlink:href="#MyriadPro-Regular-6e" x="432.2"/><use xlink:href="#MyriadPro-Regular-67" x="487.7"/></g><g style="fill:#ff7f0e" transform="matrix(.14 0 0 -.14 441.212 53.657)" id="text_17"><defs><path id="MyriadPro-Regular-43" d="M3386 582c-224-108-570-179-909-179-1050 0-1658 679-1658 1735 0 1132 672 1779 1683 1779 359 0 660-77 871-179l134 454c-147 77-486 192-1024 192-1337 0-2253-915-2253-2266C230 704 1146-70 2362-70c524 0 934 108 1139 211l-115 441z" transform="scale(.01563)"/><path id="MyriadPro-Regular-52" d="M486 0h557v1869h525c506-19 736-243 864-839 122-537 218-902 288-1030h576c-90 166-192 582-333 1184-102 448-301 755-633 870v20c454 153 812 531 812 1100 0 333-121 628-339 820-269 243-653 352-1248 352-384 0-787-32-1069-90V0zm557 3866c90 25 282 51 551 51 588-7 992-250 992-807 0-492-378-819-973-819h-570v1575z" transform="scale(.01563)"/><path id="MyriadPro-Regular-2d" d="M192 1939v-416h1581v416H192z" transform="scale(.01563)"/><path id="MyriadPro-Regular-37" d="M365 4160v-467h2035v-13L595 0h583l1811 3789v371H365z" transform="scale(.01563)"/></defs><use xlink:href="#MyriadPro-Regular-43"/><use xlink:href="#MyriadPro-Regular-52" x="58"/><use xlink:href="#MyriadPro-Regular-56" x="111.8"/><use xlink:href="#MyriadPro-Regular-2d" x="167.6"/><use xlink:href="#MyriadPro-Regular-32" x="198.3"/><use xlink:href="#MyriadPro-Regular-37" x="249.6"/></g><g style="fill:#2ca02c" transform="matrix(.14 0 0 -.14 441.212 32.798)" id="text_18"><defs><path id="MyriadPro-Regular-2a" d="m1722 4384-391-896h-13l-396 890-391-224 602-781v-13l-941 122v-436l947 122v-13l-608-781 365-230 416 902h13l384-896 403 231-614 768v13l966-116v436l-966-128v12l608 800-384 218z" transform="scale(.01563)"/></defs><use xlink:href="#MyriadPro-Regular-43"/><use xlink:href="#MyriadPro-Regular-52" x="58"/><use xlink:href="#MyriadPro-Regular-56" x="111.8"/><use xlink:href="#MyriadPro-Regular-2d" x="167.6"/><use xlink:href="#MyriadPro-Regular-32" x="198.3"/><use xlink:href="#MyriadPro-Regular-37" x="249.6"/><use xlink:href="#MyriadPro-Regular-2a" x="300.9"/></g></g></g><defs><clipPath id="pa42a81f70b"><path d="M73.378 28.187h357.12v266.112H73.378z"/></clipPath></defs></svg>