<svg width="310.217" height="103.978" viewBox="0 0 82.078 27.511" xmlns="http://www.w3.org/2000/svg"><defs><path id="a" d="M49.146 180.167h714.227v575.639H49.146z"/></defs><path style="fill:#24283b;fill-opacity:1;stroke-width:.79375;stroke-linejoin:bevel" d="M-6.855-10.941H93.03v49.026H-6.855z"/><g aria-label="matplotx" transform="matrix(.26458 0 0 .26458 -4.353 -76.564)" style="font-style:italic;font-weight:700;font-size:192px;line-height:1.25;font-family:'Cascadia Code';-inkscape-font-specification:'Cascadia Code Bold Italic';letter-spacing:0;white-space:pre;shape-inside:url(#a)"><path d="M94.115 356.38q-.062.313-.312.563-.219.22-.719.375-.5.157-1.281.22-.75.093-1.907.093-1.125 0-1.875-.094-.75-.062-1.156-.219-.406-.156-.562-.375-.125-.25-.032-.562l3.344-16.719q.125-.719.219-1.406.094-.719.094-1.438 0-1.468-.563-2.375-.531-.906-1.937-.906-1.25 0-2.594.813-1.344.812-2.594 2.218-1.219 1.375-2.187 3.25-.938 1.844-1.344 3.938l-2.531 12.625q-.063.312-.313.562-.219.22-.719.375-.5.157-1.28.22-.75.093-1.907.093-1.125 0-1.875-.094-.719-.062-1.125-.219-.406-.156-.563-.375-.125-.25-.062-.562l3.312-16.719q.188-.719.25-1.469.094-.78.094-1.5 0-1.375-.562-2.25-.563-.906-1.938-.906-1.25 0-2.594.813-1.343.812-2.593 2.218-1.219 1.375-2.188 3.25-.937 1.844-1.344 3.938l-2.53 12.625q-.063.312-.313.562-.219.22-.719.375-.469.157-1.25.22-.781.093-1.906.093-1.157 0-1.907-.094-.718-.062-1.156-.219-.406-.156-.531-.375-.125-.25-.063-.562l5.594-27.906q.063-.313.25-.532.219-.25.625-.375.438-.156 1.094-.218.687-.094 1.625-.094.969 0 1.562.094.625.062.97.218.343.125.437.375.125.22.062.532l-.906 4.593q.656-1.093 1.75-2.218 1.094-1.157 2.469-2.063 1.406-.906 3.031-1.469 1.656-.593 3.406-.593 1.813 0 3.125.5 1.344.468 2.188 1.343.875.844 1.312 2 .469 1.157.594 2.5.719-1.125 1.812-2.25 1.125-1.125 2.5-2.03 1.407-.907 3.032-1.47 1.625-.593 3.343-.593 2.188 0 3.657.625 1.5.593 2.406 1.687.906 1.063 1.312 2.531.407 1.438.407 3.125 0 1.094-.125 2.22-.125 1.093-.375 2.25zM127.709 356.412q-.125.656-1 .938-.844.28-2.75.28-.969 0-1.594-.062-.594-.062-.969-.187-.375-.156-.5-.375-.093-.25-.03-.594l.874-4.469q-.468 1-1.5 2.125-1.031 1.094-2.437 2-1.406.907-3.125 1.5-1.688.594-3.5.594-2.5 0-4.156-.875-1.657-.875-2.657-2.344-1-1.5-1.437-3.406-.406-1.906-.406-4 0-1.969.375-4.281.375-2.344 1.156-4.656.781-2.313 2-4.438 1.219-2.156 2.906-3.812 1.719-1.657 3.906-2.625 2.219-1 5-1 2.594 0 4.594 1.093 2 1.063 3.5 3.125l.5-2.468q.125-.657.969-.938.875-.281 2.781-.281.938 0 1.563.094.625.062.968.218.375.125.5.375.125.219.063.532zm-3.875-19.562q-1.094-1.72-2.438-2.563-1.312-.875-3.062-.875-1.313 0-2.406.625-1.094.625-1.938 1.688-.844 1.03-1.5 2.406-.625 1.375-1.062 2.875-.407 1.469-.625 3-.188 1.5-.188 2.781 0 .938.125 1.781.156.844.531 1.5.375.657 1 1.063.625.375 1.594.375 1.375 0 2.813-.813 1.437-.843 2.687-2.25 1.25-1.437 2.188-3.312.968-1.906 1.406-4.063zM157.521 328.787q0 .313-.062.813-.063.468-.188 1.03-.093.563-.28 1.126-.188.562-.438 1.031-.219.438-.532.75-.28.281-.625.281h-6.093l-2.625 13.094q-.094.469-.188 1.125-.062.625-.062 1.031 0 1.25.593 1.844.594.563 1.875.563.75 0 1.282-.094.531-.125.906-.25.406-.156.687-.25.282-.125.532-.125.25 0 .406.25.187.219.187.75 0 .594-.125 1.344-.125.75-.343 1.468-.188.688-.438 1.282-.25.562-.531.843-.281.282-.844.532-.562.25-1.344.437-.75.188-1.625.281-.875.125-1.75.125-1.875 0-3.312-.406-1.406-.375-2.375-1.219-.969-.843-1.469-2.156-.469-1.312-.469-3.187 0-.344.032-.782.03-.468.093-.968.094-.5.157-1 .093-.532.187-.938l2.719-13.594h-3.375q-.406 0-.594-.25-.187-.28-.187-1.03 0-.532.093-1.376.125-.875.375-1.687.25-.844.657-1.438.406-.594.968-.594h3.344l1.25-6.218q.063-.313.281-.563.25-.25.72-.406.5-.188 1.25-.25.78-.094 1.937-.094 1.125 0 1.875.094.75.062 1.156.25.406.156.531.406.156.25.094.563l-1.25 6.218h6.031q.531 0 .719.344.187.344.187 1zM188.553 337.35q0 2.03-.375 4.375-.375 2.343-1.157 4.656-.78 2.312-2 4.469-1.218 2.125-2.937 3.75-1.688 1.625-3.906 2.593-2.188.97-4.938.97-1.25 0-2.344-.25-1.093-.25-2.03-.688-.907-.47-1.657-1.063-.75-.625-1.313-1.312l-2.468 12.593q-.063.313-.313.563-.219.25-.719.406-.468.188-1.25.281-.78.094-1.937.094-1.156 0-1.875-.094-.719-.093-1.125-.28-.438-.157-.563-.407-.125-.25-.062-.563l7.812-38.968q.125-.657.97-.938.843-.281 2.78-.281.97 0 1.563.094.625.062.969.218.375.125.5.375.125.219.062.532l-.875 4.53q.469-1.03 1.469-2.124 1.031-1.125 2.437-2.031 1.438-.938 3.125-1.532 1.72-.593 3.532-.593 2.406 0 4.031.843 1.656.813 2.656 2.25 1.031 1.438 1.469 3.375.469 1.938.469 4.157zm-8.094.687q0-1.062-.188-1.937-.156-.875-.562-1.47-.375-.624-1-.937-.594-.312-1.469-.312-1.406 0-2.844.844-1.406.812-2.656 2.25-1.25 1.406-2.219 3.312-.968 1.875-1.375 4.031l-.875 4.25q1.094 1.72 2.407 2.594 1.343.844 3.093.844 1.282 0 2.344-.625 1.094-.625 1.938-1.656.875-1.063 1.5-2.438.656-1.375 1.062-2.875.438-1.5.625-3 .219-1.531.219-2.875zM199.428 356.38q-.063.313-.313.563-.219.22-.687.375-.469.157-1.25.22-.782.093-1.907.093-1.187 0-1.937-.094-.719-.062-1.125-.219-.406-.156-.563-.375-.125-.25-.062-.562l8.219-41.094q.062-.312.281-.562.219-.25.719-.407.5-.187 1.25-.28.781-.095 1.937-.095 1.156 0 1.875.094.75.094 1.156.281.407.157.532.407.125.25.062.562zM238.053 337.88q0 2.25-.438 4.626-.406 2.375-1.312 4.656-.907 2.25-2.344 4.25-1.406 1.969-3.406 3.5-1.969 1.5-4.532 2.375-2.562.875-5.78.875-3.157 0-5.47-.719-2.28-.75-3.812-2.156-1.531-1.437-2.281-3.5-.75-2.094-.75-4.781 0-2.25.406-4.625.437-2.375 1.344-4.625.906-2.25 2.312-4.25 1.438-2.031 3.406-3.531 2-1.5 4.563-2.375 2.562-.875 5.781-.875 3.156 0 5.438.75 2.312.718 3.843 2.156 1.532 1.406 2.282 3.5.75 2.062.75 4.75zm-8.125.532q0-1.312-.282-2.312-.25-1.032-.875-1.72-.593-.718-1.562-1.093-.938-.375-2.313-.375-1.562 0-2.812.625-1.25.594-2.25 1.625-.969 1.031-1.688 2.406-.718 1.344-1.187 2.844-.469 1.5-.688 3.063-.218 1.53-.218 2.937 0 1.313.25 2.344.281 1.031.875 1.75.625.687 1.562 1.062.969.375 2.344.375 1.562 0 2.812-.593 1.25-.625 2.22-1.657 1-1.062 1.718-2.406.719-1.375 1.187-2.875.47-1.531.688-3.062.219-1.532.219-2.938zM262.959 328.787q0 .313-.063.813-.062.468-.187 1.03-.094.563-.281 1.126-.188.562-.438 1.031-.219.438-.531.75-.281.281-.625.281h-6.094l-2.625 13.094q-.093.469-.187 1.125-.063.625-.063 1.031 0 1.25.594 1.844.594.563 1.875.563.75 0 1.281-.094.531-.125.906-.25.407-.156.688-.25.281-.125.531-.125t.406.25q.188.219.188.75 0 .594-.125 1.344-.125.75-.344 1.468-.187.688-.437 1.282-.25.562-.532.843-.28.282-.843.532-.563.25-1.344.437-.75.188-1.625.281-.875.125-1.75.125-1.875 0-3.313-.406-1.406-.375-2.375-1.219-.968-.843-1.468-2.156-.469-1.312-.469-3.187 0-.344.031-.782.031-.468.094-.968.094-.5.156-1 .094-.532.188-.938l2.718-13.594h-3.375q-.406 0-.593-.25-.188-.28-.188-1.03 0-.532.094-1.376.125-.875.375-1.687.25-.844.656-1.438t.969-.594h3.344l1.25-6.218q.062-.313.28-.563.25-.25.72-.406.5-.188 1.25-.25.78-.094 1.937-.094 1.125 0 1.875.094.75.062 1.156.25.407.156.532.406.156.25.093.563l-1.25 6.218h6.032q.53 0 .718.344.188.344.188 1z" style="fill:#c0caf5"/><path d="m282.615 341.943 5 13.875q.156.532.063.875-.094.344-.594.563-.469.219-1.375.281-.906.094-2.344.094-1.312 0-2.062-.063-.75-.062-1.157-.187-.406-.125-.562-.344-.125-.219-.188-.5l-3.375-9.844-7.062 9.875q-.188.282-.438.5-.218.188-.78.313-.532.125-1.438.187-.875.063-2.375.063-1.344 0-2.157-.094-.812-.062-1.187-.25-.375-.219-.313-.531.032-.344.375-.875l10.594-13.875-4.656-12.875q-.188-.563-.125-.906.062-.375.469-.594.437-.219 1.312-.281.906-.094 2.375-.094 1.281 0 2 .062.75.032 1.125.125.406.094.531.313.157.187.25.5l3.25 9.312 6.72-9.312q.187-.25.405-.438.22-.187.688-.312.469-.125 1.219-.188.75-.062 2.031-.062 1.437 0 2.281.062.875.063 1.281.25.407.188.344.532-.031.312-.437.875z" style="fill:#ff9e64"/></g></svg>