<svg xmlns:xlink="http://www.w3.org/1999/xlink" width="540.84" height="367.865" viewBox="0 0 405.63 275.899" xmlns="http://www.w3.org/2000/svg"><defs><style>*{stroke-linejoin:round;stroke-linecap:butt}</style></defs><g id="figure_1"><path d="M0 275.899h405.63V0H0v275.899z" style="fill:none" id="patch_1"/><g id="axes_1"><path d="M37.976 249.895h357.12V11.815H37.976v238.08z" style="fill:none" id="patch_2"/><g id="PathCollection_1"><path d="m271.27 139.931.015-.103-.015-.05-.012.05zM273.065 136.452l.013-.213-.013-.031-.008.03zM274.86 132.864l.002-.214-.003-.005v.005zM276.654 129.061zM278.449 125.705l.007-.234-.007-.02-.005.02zM280.243 122.03l.012-.148-.012-.048-.01.048z" clip-path="url(#pb3f2302785)" style="fill:#48186a"/></g><g id="PathCollection_2"><path d="m258.708 160.953.172-.787-.172-.23-.09.23zM260.503 158.94l.325-1.166-.325-.769-.25.769zM262.297 156.405l.34-1.024.298-1.197-.638-.198-.085.198-.34 1.197zM264.092 153.708l.267-.72.406-1.196-.673-.747-.272.747-.36 1.196zM265.887 150.944l.137-.349.391-1.196.815-1.196-1.343-.254-.104.254-.382 1.196-.469 1.196zM267.681 148.069l.34-1.063.433-1.196 1.022-.845.128-.352.368-1.196.542-1.196.756-.454.238-.743.368-1.196.832-1.197.357-.122.303-1.074.359-1.196 1.132-1.151.016-.046.312-1.196.337-1.196 1.13-1.135.02-.062.296-1.196.304-1.197.8-1.196-1.42-.071-.024.071-.313 1.196-.337 1.197-1.12 1.113-.03.083-.328 1.197-.37 1.196-1.067 1.03-.06.166-.346 1.197-.409 1.196-.98.866-.12.33-.363 1.197-.483 1.196-.828.605-.21.592-.387 1.196-.754 1.196-.444.183-.333 1.014-.416 1.196zm3.577-8.241.012-.05.015.05-.015.103zm1.799-3.59.008-.03.013.03-.013.214zm1.801-3.588.001-.005.003.005-.003.214zm1.796-3.59v.001zM278.449 127.83l.273-1.162.27-1.197.131-1.196-.674-.13-.042.13-.296 1.196-.306 1.197zm-.005-2.359.005-.02.007.02-.007.234zM280.243 123.94l.207-.861.245-1.197.094-1.196-.546-.267-.078.267-.278 1.196-.262 1.197zm-.01-2.058.01-.048.012.048-.012.147zM282.038 119.975l.12-.486.23-1.196.12-1.196-.47-.492-.13.492-.252 1.196-.173 1.196zM283.832 115.975l.02-.075.22-1.196.147-1.197-.387-.846-.19.846-.208 1.197.19 1.196zM285.627 111.68l.12-.565.167-1.197-.13-1.196-.157-.127-.033.127-.213 1.196-.107 1.197zM287.421 107.412l.17-1.083.065-1.196-.235-.556-.116.556-.149 1.196zM289.216 102.905l.034-.165.132-1.196-.13-1.197-.036-.047-.01.047-.16 1.197.052 1.196zM291.01 98.218l.046-.264.07-1.196-.115-.545-.088.545-.017 1.196zM292.805 93.374l.03-.205.002-1.196-.032-.114-.02.114-.034 1.196z" clip-path="url(#pb3f2302785)" style="fill:#424086"/></g><path d="m217.433 191.349 1.795.57 1.794.338 1.795.092 1.794-.114 1.795-.268 1.795-.379 1.156-.316.638-.197 1.795-.667.781-.332 1.013-.455 1.513-.741.282-.143 1.794-1.016.058-.038 1.737-1.117.109-.08 1.686-1.181.017-.015 1.512-1.196.265-.195 1.144-1.001.65-.52.71-.677 1.085-.935.253-.261 1.227-1.197.315-.282.82-.914.974-.94.216-.256 1.054-1.197.525-.528.526-.668 1.07-1.196.199-.209.728-.988 1.066-1.195.001-.001.829-1.197.965-1.125.047-.071.791-1.196.956-1.161.023-.036.745-1.196.925-1.196.102-.126.631-1.07.844-1.197.32-.409.444-.788.759-1.196.591-.79.22-.406.678-1.197.847-1.196.05-.067.575-1.13.725-1.196.494-.699.246-.497.625-1.197.774-1.196.15-.213.46-.983.641-1.197.693-1.045.07-.151.544-1.197.651-1.196.53-.812.168-.384.538-1.197.651-1.196.437-.683.216-.514.525-1.196.638-1.196.416-.664.215-.533.505-1.196.611-1.196.464-.758.17-.439.48-1.196.575-1.197.57-.956.09-.24.45-1.196.53-1.197.681-1.196.043-.07.398-1.126.485-1.197.6-1.196.311-.529.232-.668.44-1.196.526-1.196.597-1.06.046-.137.399-1.196.461-1.197.577-1.196.311-.546.211-.65.407-1.197.483-1.196.632-1.196.062-.106.335-1.09.413-1.197.502-1.197.545-1.004.059-.192.36-1.196.414-1.197.514-1.196.447-.824.11-.373.355-1.196.41-1.196.514-1.197.406-.75.127-.446.345-1.196.399-1.197.501-1.196.422-.787.114-.41.33-1.196.383-1.196.476-1.197.492-.933.07-.263.316-1.196.36-1.197.44-1.196.608-1.18.005-.017.298-1.196.334-1.196.4-1.197.54-1.196.218-.395.197-.802.309-1.196.36-1.196.46-1.197.469-.89.074-.306.285-1.196.322-1.197.392-1.196.547-1.197.174-.308.203-.888.289-1.196.335-1.197.43-1.196.538-1.03.038-.166.262-1.197.291-1.196.348-1.197.47-1.196.385-.7.109-.496.258-1.197.292-1.196.355-1.197.509-1.196.272-.469.15-.727.254-1.197.286-1.196.356-1.196.533-1.197.215-.352.168-.844.244-1.197.277-1.196.346-1.196.532-1.197.228-.36.16-.836.233-1.197.263-1.196.324-1.196.497-1.197.318-.494.13-.702.22-1.196.245-1.197.295-1.196.433-1.197.471-.742.082-.454.208-1.196.224-1.197.26-1.196.357-1.196.664-1.09.019-.107.194-1.196.205-1.197.227-1.196h-1.545l-.526 1.196-.369.448-.14.749-.229 1.196-.26 1.197-.33 1.196-.563 1.196-.272.35-.165.847-.242 1.196-.278 1.196-.362 1.197-.635 1.196-.113.146-.21 1.05-.257 1.197-.303 1.196-.407 1.197-.618 1.058-.03.138-.248 1.196-.278 1.197-.336 1.196-.477 1.197-.425.697-.111.499-.266 1.196-.305 1.197-.386 1.196-.594 1.197-.133.203-.222.993-.29 1.196-.345 1.197-.463 1.196-.474.832-.088.364-.283 1.197-.325 1.196-.406 1.197-.606 1.196-.087.14-.252 1.056-.316 1.197-.378 1.196-.516 1.197-.332.578-.157.618-.312 1.196-.365 1.197-.472 1.196-.489.89-.081.306-.314 1.197-.36 1.196-.453 1.197-.587 1.092-.028.104-.318 1.196-.363 1.197-.447 1.196-.636 1.196-.002.004-.324 1.193-.37 1.196-.454 1.197-.634 1.196-.013.02-.33 1.176-.383 1.197-.47 1.196-.611 1.135-.019.062-.35 1.196-.401 1.196-.498 1.197-.527.96-.073.236-.369 1.196-.428 1.197-.54 1.196-.384.681-.165.516-.393 1.196-.466 1.196-.607 1.197-.164.28-.297.916-.428 1.196-.521 1.197-.549.978-.075.218-.407 1.197-.476 1.196-.607 1.196-.23.39-.28.807-.453 1.196-.552 1.197-.509.883-.115.313-.441 1.196-.523 1.197-.677 1.196-.038.063-.42 1.133-.509 1.197-.639 1.196-.227.374-.318.823-.507 1.196-.624 1.196-.345.567-.254.63-.514 1.196-.625 1.197-.402.652-.228.544-.527 1.196-.641 1.197-.399.635-.244.561-.549 1.196-.67 1.197-.331.515-.307.681-.581 1.197-.72 1.196-.187.284-.424.912-.626 1.197-.744 1.139-.029.057-.579 1.196-.69 1.197-.497.734-.235.462-.639 1.197-.786 1.196-.134.19-.528 1.006-.724 1.197-.543.766-.239.43-.694 1.197-.86 1.196-.002.002-.68 1.194-.822 1.197-.292.387-.487.81-.81 1.195-.498.648-.348.549-.815 1.196-.631.798-.266.399-.836 1.196-.693.849-.245.347-.873 1.197-.676.801-.293.395-.929 1.197-.573.654-.422.542-1.009 1.196-.364.4-.653.797-1.123 1.196-.018.02-1.016 1.176-.779.792-.377.405-1.181 1.196-.236.23-.951.967-.844.785-.438.41-1.354 1.197-.002.002-1.343 1.195-.452.383-.994.813-.8.64-.74.556-1.055.793-.587.404-1.208.852-.548.344-1.246.825-.651.372-1.144.71-.934.486-.86.506-1.451.69-.344.196-1.795.83-.465.17-1.33.633-1.58.564-.214.114-1.794.767-.939.316-.856.642-.822.554.628 1.196zm41.185-31.183.09-.23.172.23-.172.787zm1.635-2.392.25-.769.325.769-.325 1.167zm1.62-2.393.339-1.197.085-.198.638.198-.298 1.197-.34 1.024zm1.588-2.393.36-1.196.271-.747.673.747-.406 1.196-.267.72zm1.471-2.393.47-1.196.381-1.196.104-.254 1.343.254-.815 1.196-.39 1.196-.138.349zm2-3.589.416-1.196.333-1.014.444-.183.754-1.196.386-1.196.21-.592.83-.605.482-1.196.364-1.197.12-.33.979-.866.41-1.196.345-1.197.06-.167 1.068-1.029.369-1.196.328-1.197.03-.083 1.12-1.113.337-1.197.313-1.196.024-.071 1.42.071-.8 1.196-.304 1.197-.296 1.196-.02.062-1.13 1.135-.337 1.196-.312 1.196-.016.046-1.132 1.15-.359 1.197-.303 1.074-.357.122-.832 1.197-.368 1.196-.238.743-.756.454-.542 1.196-.368 1.196-.128.352-1.022.845-.433 1.196-.34 1.063zm10.873-20.338.306-1.197.296-1.196.042-.13.674.13-.13 1.196-.271 1.197-.273 1.161zm1.82-3.59.262-1.196.278-1.196.078-.267.546.267-.094 1.196-.245 1.197-.207.861zm1.858-3.589.173-1.196.252-1.196.13-.492.47.492-.12 1.196-.23 1.196-.12.486zm2.14-3.589-.19-1.196.21-1.197.19-.846.386.846-.147 1.197-.22 1.196-.02.075zm1.651-4.785.107-1.197.213-1.196.033-.127.157.127.13 1.196-.168 1.197-.12.565zm1.882-4.786.15-1.196.115-.556.235.556-.066 1.196-.169 1.083zm1.942-3.589-.052-1.196.16-1.197.01-.047.036.047.13 1.197-.132 1.196-.034.165zm1.808-4.786.017-1.196.088-.545.116.545-.07 1.196-.046.264zm1.845-4.785.034-1.196.02-.114.032.114-.001 1.196-.03.205z" clip-path="url(#pb3f2302785)" style="fill:#33638d" id="PathCollection_3"/><path d="m215.638 208.183 1.795.058 1.795-.05 1.794-.155.096-.014 1.699-.263 1.794-.384 1.795-.484.2-.066 1.595-.542 1.67-.654.124-.05 1.795-.827.619-.32 1.175-.614 1.007-.582.788-.459 1.15-.737.644-.414 1.111-.783.684-.479.933-.717.862-.655.65-.541 1.144-.937.29-.26 1.353-1.196.152-.133 1.105-1.064.69-.644.537-.552 1.201-1.196.056-.055 1.044-1.142.75-.787.353-.41 1.056-1.195.386-.427.629-.77 1.018-1.196.148-.171.793-1.026.98-1.196.021-.026.861-1.17.934-1.19.004-.007.839-1.196.895-1.197.056-.074.751-1.122.85-1.196.194-.268.594-.929.805-1.196.395-.57.385-.626.758-1.197.652-.974.13-.222.713-1.197.759-1.196.193-.298.508-.898.709-1.197.577-.925.148-.271.66-1.196.702-1.197.285-.47.38-.726.651-1.197.695-1.196.068-.116.547-1.08.638-1.197.61-1.074.06-.122.587-1.197.624-1.196.523-.949.117-.247.572-1.197.607-1.196.499-.931.121-.265.554-1.197.587-1.196.533-1.021.077-.176.534-1.196.566-1.196.606-1.197.011-.022.503-1.174.543-1.197.58-1.196.169-.34.356-.856.518-1.197.552-1.196.368-.763.176-.433.492-1.197.523-1.196.56-1.197.044-.091.433-1.105.494-1.196.527-1.197.34-.739.175-.457.465-1.196.494-1.197.529-1.196.132-.292.335-.905.462-1.196.492-1.196.506-1.148.017-.049.432-1.196.458-1.197.487-1.196.4-.928.095-.268.425-1.197.45-1.196.48-1.196.345-.814.131-.383.416-1.196.441-1.197.471-1.196.335-.809.13-.387.406-1.197.43-1.196.459-1.197.37-.911.093-.285.394-1.196.417-1.197.444-1.196.446-1.122.024-.074.381-1.197.402-1.196.429-1.197.46-1.196.099-.254.292-.942.387-1.197.41-1.196.44-1.196.266-.692.153-.505.37-1.196.392-1.197.417-1.196.45-1.196.012-.031.345-1.166.372-1.196.396-1.197.424-1.196.258-.694.145-.502.354-1.197.373-1.196.399-1.196.428-1.197.095-.259.265-.937.352-1.197.374-1.196.399-1.196.405-1.13.019-.067.331-1.196.35-1.196.37-1.197.399-1.196.325-.922.075-.275.327-1.196.346-1.196.367-1.197.394-1.196.286-.821.1-.376.321-1.196.34-1.196.361-1.197.388-1.196.285-.83.095-.366.315-1.197.332-1.196.353-1.197.38-1.196.32-.946.063-.25.307-1.197.323-1.196.344-1.197.368-1.196.389-1.168.007-.028.297-1.197.314-1.196.332-1.196.356-1.197.384-1.196.104-.317.215-.88.302-1.196.32-1.196.342-1.197.367-1.196.249-.767.103-.43.29-1.196.308-1.196.326-1.197.35-1.196h-4.321l-.227 1.196-.205 1.197-.194 1.196-.02.107-.663 1.09-.356 1.196-.26 1.196-.225 1.197-.208 1.196-.082.454-.471.742-.433 1.197-.295 1.196-.245 1.197-.22 1.196-.13.702-.318.494-.497 1.197-.324 1.196-.263 1.196-.234 1.197-.159.836-.228.36-.532 1.197-.346 1.196-.277 1.196-.244 1.197-.168.844-.215.352-.533 1.197-.356 1.196-.286 1.196-.253 1.197-.151.727-.272.47-.51 1.195-.354 1.197-.292 1.196-.258 1.197-.109.497-.385.699-.47 1.196-.348 1.197-.291 1.196-.262 1.197-.038.166-.539 1.03-.429 1.196-.335 1.197-.29 1.196-.202.888-.174.308-.547 1.197-.392 1.196-.322 1.197-.285 1.196-.074.307-.469.89-.46 1.196-.36 1.196-.31 1.196-.196.802-.218.395-.54 1.196-.4 1.197-.334 1.196-.298 1.196-.005.017-.607 1.18-.441 1.196-.36 1.197-.315 1.196-.071.263-.492.933-.476 1.197-.382 1.196-.331 1.196-.114.41-.422.787-.501 1.196-.4 1.197-.344 1.196-.127.447-.406.75-.514 1.196-.41 1.196-.355 1.196-.11.373-.447.824-.514 1.196-.414 1.197-.36 1.196-.06.192-.544 1.004-.502 1.197-.413 1.196-.335 1.09-.062.107-.632 1.196-.483 1.196-.407 1.197-.21.65-.312.546-.577 1.196-.461 1.197-.399 1.196-.046.136-.597 1.06-.527 1.197-.44 1.196-.23.668-.311.529-.601 1.196-.485 1.197-.398 1.126-.043.07-.68 1.196-.53 1.197-.451 1.196-.09.24-.57.956-.574 1.197-.48 1.196-.171.44-.464.757-.61 1.196-.506 1.196-.215.533-.416.664-.638 1.196-.525 1.196-.216.514-.437.683-.65 1.196-.539 1.197-.168.384-.53.812-.651 1.196-.545 1.197-.069.15-.693 1.046-.64 1.197-.461.983-.15.213-.774 1.196-.625 1.197-.246.497-.494.7-.725 1.195-.575 1.13-.05.067-.847 1.196-.677 1.197-.221.407-.591.789-.759 1.196-.445.788-.32.409-.843 1.196-.631 1.071-.102.126-.925 1.196-.745 1.196-.023.036-.956 1.16-.791 1.197-.047.07-.965 1.126-.829 1.197v.001l-1.067 1.195-.728.988-.2.209-1.07 1.196-.525.668-.525.528-1.054 1.197-.216.256-.973.94-.821.914-.315.282-1.227 1.197-.253.261-1.086.935-.708.677-.65.52-1.145 1-.265.196-1.512 1.196-.017.015-1.686 1.182-.11.08-1.736 1.116-.058.038-1.794 1.016-.282.143-1.513.741-1.013.455-.781.332-1.795.667-.638.197-1.156.316-1.795.38-1.795.267-1.794.114-1.795-.092-1.794-.337-1.795-.571-.194-.077-.628-1.196.822-.554.856-.642.939-.316 1.794-.767.214-.114 1.58-.564 1.33-.632.465-.172 1.795-.83.344-.195 1.45-.69.86-.506.935-.486 1.144-.71.65-.372 1.247-.825.548-.344 1.208-.852.587-.404 1.054-.793.74-.555.801-.64.994-.814.452-.383 1.343-1.195.002-.002 1.354-1.196.438-.411.844-.785.95-.967.237-.23 1.18-1.196.378-.405.779-.792 1.016-1.176.018-.02 1.123-1.196.653-.797.364-.4 1.009-1.196.422-.542.573-.654.93-1.197.292-.395.676-.801.873-1.197.245-.347.693-.849.836-1.196.266-.399.631-.798.815-1.196.348-.55.499-.647.809-1.196.487-.809.292-.387.822-1.197.68-1.194.002-.002.86-1.196.694-1.197.239-.43.543-.766.724-1.197.528-1.005.134-.191.786-1.196.639-1.197.235-.462.497-.734.69-1.197.58-1.196.028-.057.744-1.14.626-1.196.424-.912.188-.284.719-1.196.581-1.197.307-.681.33-.515.671-1.197.55-1.196.243-.561.399-.635.64-1.197.528-1.196.228-.544.402-.652.625-1.197.514-1.196.254-.63.345-.567.624-1.196.507-1.196.318-.823.227-.374.64-1.196.509-1.197.419-1.133.038-.063.677-1.196.523-1.197.441-1.196.115-.313.51-.883.55-1.197.454-1.196.28-.807.23-.39.607-1.196.476-1.196.407-1.197.075-.218.549-.978.521-1.197.428-1.196.297-.916.164-.28.607-1.197.466-1.196.393-1.196.165-.516.383-.68.541-1.197.428-1.197.369-1.196.073-.236.527-.96.498-1.197.401-1.196.35-1.196.019-.062.61-1.135.47-1.196.384-1.197.33-1.175.013-.021.634-1.196.453-1.197.37-1.196.325-1.193.002-.004.636-1.196.447-1.196.363-1.197.318-1.196.028-.104.587-1.092.453-1.197.36-1.196.314-1.197.081-.307.489-.889.472-1.196.365-1.197.312-1.196.157-.618.332-.578.516-1.197.378-1.196.316-1.197.252-1.056.087-.14.606-1.196.406-1.197.325-1.196.283-1.197.088-.364.474-.832.463-1.196.345-1.197.29-1.196.222-.993.133-.203.594-1.197.386-1.196.305-1.197.266-1.196.11-.499.426-.697.477-1.197.336-1.196.278-1.197.248-1.196.03-.138.618-1.058.407-1.197.303-1.196.258-1.196.209-1.051.113-.146.635-1.196.362-1.197.278-1.196.242-1.196.165-.847.272-.35.564-1.196.33-1.196.259-1.197.228-1.196.141-.749.369-.448.526-1.196h-4.641l-.335 1.196-.355 1.197-.38 1.196-.409 1.197-.159.448-.209.748-.345 1.196-.367 1.197-.391 1.196-.423 1.196-.06.164-.294 1.033-.358 1.196-.38 1.197-.408 1.196-.354.974-.065.222-.353 1.197-.372 1.196-.398 1.196-.427 1.197-.18.483-.213.713-.368 1.197-.392 1.196-.418 1.196-.403 1.074-.038.123-.367 1.196-.388 1.197-.414 1.196-.445 1.196-.142.372-.259.825-.388 1.196-.412 1.196-.442 1.197-.294.755-.142.441-.39 1.197-.414 1.196-.443 1.196-.406 1.028-.055.169-.395 1.196-.419 1.197-.446 1.196-.48 1.193v.003l-.402 1.197-.425 1.196-.453 1.196-.488 1.197-.026.062-.39 1.134-.435 1.197-.463 1.196-.498 1.196-.008.019-.416 1.178-.447 1.196-.477 1.196-.455 1.07-.046.127-.437 1.196-.462 1.197-.494 1.196-.355.818-.142.378-.453 1.197-.482 1.196-.515 1.197-.203.456-.284.74-.474 1.196-.505 1.197-.532 1.176-.008.02-.47 1.196-.5 1.197-.534 1.196-.282.61-.238.587-.498 1.196-.53 1.196-.529 1.118-.033.079-.5 1.196-.531 1.196-.568 1.197-.162.334-.37.862-.537 1.197-.57 1.196-.318.638-.248.558-.544 1.197-.58 1.196-.422.832-.167.365-.557 1.196-.591 1.196-.48.92-.131.277-.572 1.196-.608 1.196-.484.902-.144.295-.591 1.196-.63 1.197-.43.779-.21.417-.616 1.196-.656 1.197-.312.549-.338.647-.646 1.197-.689 1.196-.121.208-.536.988-.681 1.197-.578.96-.133.236-.68 1.196-.725 1.197-.256.413-.458.783-.728 1.197-.609.95-.15.246-.736 1.196-.785 1.197-.124.186-.64 1.01-.799 1.196-.355.518-.45.679-.82 1.196-.525.737-.318.46-.847 1.196-.63.85-.25.346-.883 1.197-.66.856-.26.34-.925 1.197-.61.758-.35.438-.979 1.196-.466.554-.542.643-1.043 1.196-.21.238-.854.958-.94 1.015-.172.182-1.14 1.196-.483.494-.706.703-1.088 1.053-.154.143-1.291 1.196-.35.319-1.008.878-.786.672-.649.524-1.146.916-.376.28-1.419 1.052-.21.145-1.584 1.084-.18.112-1.615 1.012-.327.185-1.467.835-.719.361-1.076.55-1.458.646-.336.153-1.795.701-1.06.343-.735.247-1.794.487-1.795.372-.609.09-1.185.185-1.795.17-1.795.06-1.794-.047-1.795-.155-1.435-.213-.36-.05-1.794-.358-1.794-.472-.969-.316-.826-.262-1.795-.683-.566-.252-1.228-.534-1.318-.662-.477-.237-1.71-.96-.084-.046-1.795-1.107-.063-.043-1.731-1.17-.036-.026-1.631-1.196-.128-.095-1.399-1.102-.396-.318-1.043-.878-.751-.65-.61-.547-1.185-1.096-.105-.1-1.246-1.196-.443-.44-.753-.757-1.042-1.097-.094-.1-1.12-1.196-.58-.65-.492-.546-1.034-1.196-.269-.318-.753-.879-.965-1.196-.077-.095-.903-1.101-.891-1.171-.02-.026-.94-1.196-.835-1.153-.033-.044-.901-1.196-.83-1.196-.03-.044-.84-1.153-.802-1.196-.153-.231-.679-.966-.783-1.196-.332-.525-.458-.671-.772-1.197-.565-.932-.175-.264-.77-1.196-.707-1.197-.143-.244-.607-.952-.709-1.197-.478-.855-.212-.341-.72-1.196-.66-1.197-.203-.377-.493-.82-.674-1.195-.62-1.197-.007-.013-.691-1.183-.637-1.197-.467-.933-.15-.263-.667-1.196-.607-1.197-.37-.766-.24-.43-.641-1.197-.585-1.196-.329-.706-.267-.49-.622-1.197-.567-1.196-.339-.752-.237-.444-.61-1.197-.553-1.196-.394-.903-.153-.294-.604-1.196-.547-1.196-.49-1.165-.017-.032-.605-1.196-.544-1.197-.5-1.196-.13-.316-.438-.88-.549-1.197-.5-1.196-.307-.776-.207-.42-.56-1.197-.505-1.196-.464-1.197-.058-.15-.502-1.046-.518-1.196-.472-1.197-.303-.812-.183-.384-.54-1.196-.486-1.197-.445-1.196-.14-.388-.377-.809-.51-1.196-.46-1.196-.422-1.197-.026-.074-.511-1.122-.486-1.197-.44-1.196-.358-1.049-.067-.147-.528-1.197-.467-1.196-.424-1.196-.308-.929-.12-.268-.514-1.196-.454-1.197-.412-1.196-.295-.914-.125-.282-.506-1.197-.445-1.196-.403-1.196-.315-1.005-.085-.192-.504-1.196-.442-1.197-.398-1.196-.364-1.196-.002-.006-.508-1.19-.443-1.197-.396-1.197-.362-1.196-.086-.285-.387-.911-.45-1.197-.4-1.196-.362-1.196-.195-.673-.223-.524-.467-1.196-.408-1.197-.366-1.196-.33-1.179-.008-.017-.495-1.197-.424-1.196-.375-1.197-.34-1.196-.153-.559-.267-.637-.45-1.197-.392-1.196-.349-1.196-.319-1.197-.018-.067-.464-1.13-.417-1.196-.365-1.196-.329-1.196-.22-.846-.147-.35-.462-1.197-.392-1.196-.345-1.197-.312-1.196-.136-.534-.275-.663-.438-1.196h-5.218l.269 1.196.25 1.197.028.135.387 1.061.37 1.197.323 1.196.29 1.196.266 1.197.159.735.171.461.407 1.196.349 1.197.31 1.196.284 1.197.264 1.196.01.043.421 1.153.374 1.197.33 1.196.3 1.196.277 1.197.092.397.296.8.395 1.196.348 1.196.314 1.196.29 1.197.152.644.206.552.412 1.197.362 1.196.326 1.196.3 1.197.188.776.159.42.423 1.196.372 1.197.335 1.196.31 1.197.196.789.155.407.428 1.196.378 1.197.342 1.196.316 1.197.175.683.197.513.428 1.196.381 1.197.346 1.196.32 1.196.123.463.283.734.424 1.196.38 1.197.348 1.196.323 1.196.036.134.413 1.063.417 1.196.377 1.196.347 1.197.241.871.13.325.454 1.197.407 1.196.371 1.196.345 1.197.088.303.356.893.437 1.197.397 1.196.365 1.196.24.816.154.38.466 1.197.42 1.196.386 1.197.359 1.196.009.03.478 1.167.442 1.196.404 1.196.375 1.197.095.305.373.891.46 1.196.42 1.197.39 1.196.152.473.307.724.476 1.196.434 1.196.403 1.197.174.53.289.666.487 1.197.445 1.196.413 1.196.161.475.318.722.494 1.196.454 1.196.42 1.197.109.308.397.888.499 1.197.458 1.196.428 1.196.012.035.53 1.162.499 1.196.46 1.197.306.826.173.37.54 1.196.497 1.197.462 1.196.122.32.418.876.533 1.197.492 1.196.352.897.146.3.57 1.196.522 1.196.488 1.197.068.168.513 1.028.553 1.196.513 1.197.216.514.349.682.58 1.197.54 1.196.326.754.231.442.607 1.197.56 1.196.396.885.168.312.628 1.196.582 1.196.417.901.163.296.647 1.196.599 1.196.385.804.223.393.662 1.196.613 1.197.297.595.352.601.672 1.196.626 1.197.144.28.553.916.68 1.197.562 1.049.092.147.737 1.196.685 1.197.28.5.448.696.737 1.196.61 1.052.097.145.79 1.196.735 1.197.173.283.63.913.783 1.196.381.602.427.595.829 1.196.539.813.286.383.874 1.197.634.914.22.282.917 1.197.658.901.24.295.958 1.196.597.777.357.42.997 1.196.44.542.586.655 1.035 1.196.174.202.938.994.856.943.253.254 1.18 1.196.362.374.87.822.924.896.34.3 1.33 1.197.125.112 1.311 1.085.484.404 1.03.792.764.591.852.605.943.67.81.527.984.635.95.561.845.493 1.33.703.464.242 1.795.835.293.12 1.502.595 1.735.601.06.02 1.794.491 1.794.393 1.795.288.046.005z" clip-path="url(#pb3f2302785)" style="fill:#26828e" id="PathCollection_4"/><g id="PathCollection_5"><path d="m210.255 248.866 1.794.343 1.795.235 1.794.128 1.795.018 1.795-.091 1.794-.2 1.795-.308 1.268-.292.526-.124 1.795-.527 1.55-.546.245-.087 1.794-.745.77-.364 1.025-.488 1.325-.709.47-.25 1.586-.946.208-.124 1.634-1.072.16-.106 1.52-1.09.275-.198 1.283-1 .512-.397.95-.798.844-.706.544-.49 1.25-1.122.08-.075 1.242-1.197.473-.452.726-.744 1.069-1.085.102-.111 1.102-1.197.59-.634.49-.562 1.05-1.196.255-.29.749-.907 1.002-1.196.044-.052.898-1.145.896-1.12.056-.076.897-1.196.842-1.104.066-.093.857-1.196.871-1.193.002-.004.819-1.196.835-1.196.139-.198.655-.999.798-1.196.341-.507.435-.69.762-1.196.598-.923.165-.273.729-1.197.743-1.196.158-.253.55-.943.71-1.197.534-.887.174-.31.677-1.196.69-1.196.254-.435.414-.761.658-1.197.672-1.196.05-.088.583-1.108.64-1.197.572-1.05.074-.146.61-1.197.622-1.196.488-.924.135-.272.592-1.197.604-1.196.464-.906.139-.29.574-1.197.586-1.196.496-.996.093-.2.556-1.197.567-1.196.578-1.194.001-.003.54-1.196.548-1.197.56-1.196.146-.307.389-.89.53-1.196.543-1.196.332-.725.201-.471.513-1.197.523-1.196.535-1.197.023-.051.474-1.145.505-1.196.515-1.197.3-.688.205-.508.487-1.196.497-1.197.506-1.196.1-.235.378-.962.478-1.196.488-1.196.45-1.086.043-.11.46-1.197.468-1.197.479-1.196.345-.851.13-.345.45-1.197.459-1.196.468-1.196.288-.725.172-.472.44-1.196.45-1.197.458-1.196.274-.706.175-.49.43-1.197.44-1.196.447-1.197.303-.796.14-.4.42-1.196.427-1.197.437-1.196.37-.995.07-.201.408-1.197.418-1.196.426-1.197.434-1.196.039-.106.364-1.09.406-1.197.414-1.196.423-1.196.188-.525.219-.672.395-1.196.402-1.197.411-1.196.367-1.049.047-.147.384-1.197.39-1.196.399-1.197.407-1.196.168-.488.221-.708.38-1.197.385-1.196.395-1.196.402-1.197.011-.033.357-1.163.374-1.197.382-1.196.389-1.196.293-.887.093-.31.362-1.196.368-1.197.376-1.196.384-1.196.211-.652.161-.545.356-1.196.363-1.196.37-1.197.378-1.196.167-.525.194-.672.35-1.196.357-1.196.363-1.197.372-1.196.159-.506.196-.69.343-1.197.35-1.196.357-1.197.364-1.196.184-.597.167-.6.337-1.196.343-1.196.35-1.197.357-1.196.24-.796.11-.4.33-1.197.335-1.196.343-1.196.349-1.197.328-1.102.026-.094.321-1.197.328-1.196.335-1.196.341-1.197.349-1.196.095-.324.23-.872.32-1.197.326-1.196.333-1.197.34-1.196.245-.85.09-.346.312-1.197.318-1.196.324-1.197.331-1.196.338-1.196.082-.288.232-.909.31-1.196.314-1.196.322-1.197.329-1.196.288-1.03.041-.167.301-1.196.306-1.196.313-1.197.318-1.196.326-1.197.19-.686.125-.51.297-1.196.303-1.197.309-1.196.315-1.196.322-1.197.123-.45.18-.746.294-1.197.3-1.196.304-1.196.312-1.197.318-1.196.086-.324.209-.872.289-1.197.295-1.196.3-1.197.308-1.196h-10.792l-.35 1.196-.325 1.197-.307 1.196-.291 1.197-.103.43-.249.766-.367 1.196-.342 1.197-.32 1.196-.302 1.196-.215.88-.104.317-.384 1.196-.356 1.197-.332 1.196-.314 1.196-.297 1.197-.007.028-.389 1.168-.368 1.196-.344 1.197-.323 1.196-.307 1.197-.064.25-.32.946-.379 1.196-.353 1.197-.332 1.196-.315 1.197-.095.367-.285.829-.388 1.196-.361 1.197-.34 1.196-.321 1.196-.1.376-.286.82-.394 1.197-.367 1.197-.346 1.196-.327 1.196-.075.275-.325.922-.398 1.196-.371 1.197-.35 1.196-.331 1.196-.02.068-.404 1.129-.4 1.196-.373 1.196-.352 1.197-.265.937-.095.26-.428 1.196-.399 1.196-.373 1.196-.354 1.197-.145.502-.258.694-.424 1.196-.396 1.197-.372 1.196-.345 1.166-.012.03-.45 1.197-.417 1.196-.392 1.197-.37 1.196-.153.505-.266.692-.44 1.196-.41 1.196-.387 1.197-.292.942-.1.254-.46 1.196-.428 1.197-.402 1.196-.38 1.197-.025.074-.446 1.122-.444 1.196-.417 1.197-.394 1.196-.093.285-.37.911-.46 1.197-.43 1.196-.405 1.197-.13.387-.335.809-.47 1.196-.442 1.197-.416 1.196-.131.383-.344.814-.48 1.196-.451 1.196-.425 1.197-.095.268-.4.928-.487 1.196-.458 1.197-.432 1.196-.017.049-.506 1.148-.492 1.196-.462 1.196-.335.905-.132.292-.529 1.196-.494 1.197-.465 1.196-.175.457-.34.74-.527 1.196-.494 1.196-.433 1.105-.044.091-.56 1.197-.523 1.196-.492 1.197-.176.433-.368.763-.552 1.196-.518 1.197-.356.856-.17.34-.58 1.196-.542 1.197-.503 1.174-.011.022-.606 1.197-.566 1.196-.534 1.196-.077.176-.533 1.02-.587 1.197-.554 1.197-.121.265-.499.93-.607 1.197-.572 1.197-.117.247-.523.95-.624 1.195-.588 1.197-.06.122-.609 1.074-.638 1.197-.547 1.08-.068.116-.695 1.196-.65 1.197-.381.726-.285.47-.702 1.197-.66 1.196-.148.27-.577.926-.709 1.197-.508.898-.193.298-.759 1.196-.712 1.197-.131.222-.652.974-.758 1.197-.385.626-.395.57-.805 1.196-.594.929-.194.268-.85 1.196-.75 1.122-.057.074-.895 1.197-.84 1.196-.003.006-.934 1.19-.86 1.171-.022.026-.98 1.196-.793 1.026-.148.17-1.018 1.197-.629.77-.386.427-1.056 1.196-.353.409-.75.787-1.044 1.142-.056.055-1.201 1.196-.538.552-.69.644-1.104 1.064-.152.133-1.354 1.196-.289.26-1.144.937-.65.541-.862.655-.933.717-.684.48-1.11.782-.645.414-1.15.737-.788.46-1.007.581-1.175.614-.62.32-1.794.827-.123.05-1.671.654-1.595.542-.2.066-1.795.484-1.794.384-1.7.263-.095.014-1.794.156-1.795.05-1.795-.06-1.748-.16-.046-.005-1.795-.288-1.794-.393-1.795-.491-.059-.02-1.735-.6-1.502-.596-.293-.12-1.795-.835-.465-.242-1.33-.703-.844-.493-.95-.56-.984-.636-.81-.528-.943-.669-.852-.605-.765-.591-1.03-.792-.483-.404-1.311-1.085-.124-.112-1.331-1.196-.34-.301-.923-.896-.871-.822-.363-.374-1.179-1.196-.253-.254-.856-.943-.938-.994-.174-.202-1.035-1.196-.586-.655-.44-.542-.997-1.196-.357-.42-.597-.777-.958-1.196-.24-.295-.658-.901-.917-1.197-.22-.282-.634-.914-.874-1.197-.286-.383-.54-.813-.828-1.196-.427-.595-.381-.602-.783-1.196-.63-.913-.173-.283-.736-1.197-.79-1.196-.096-.145-.61-1.052-.737-1.196-.447-.695-.28-.501-.686-1.197-.737-1.196-.092-.147-.562-1.05-.68-1.196-.553-.917-.144-.28-.626-1.196-.672-1.196-.352-.601-.297-.595-.613-1.197-.662-1.196-.223-.393-.385-.804-.6-1.196-.646-1.196-.163-.296-.417-.9-.582-1.197-.628-1.196-.168-.312-.395-.885-.561-1.196-.607-1.197-.231-.442-.327-.754-.538-1.196-.581-1.197-.349-.682-.216-.514-.513-1.197-.553-1.196-.513-1.028-.068-.168-.488-1.197-.523-1.196-.569-1.196-.146-.3-.352-.897-.492-1.196-.533-1.197-.418-.876-.122-.32-.462-1.196-.496-1.197-.541-1.196-.173-.37-.305-.826-.461-1.197-.499-1.196-.53-1.162-.012-.035-.428-1.196-.458-1.196-.499-1.197-.397-.888-.108-.308-.421-1.197-.454-1.196-.494-1.196-.318-.722-.16-.475-.414-1.196-.445-1.196-.487-1.197-.289-.666-.174-.53-.403-1.197-.434-1.196-.476-1.196-.307-.724-.152-.473-.39-1.196-.42-1.197-.46-1.196-.373-.891-.095-.305-.375-1.197-.404-1.196-.442-1.196-.478-1.167-.01-.03-.358-1.196-.386-1.197-.42-1.196-.466-1.196-.155-.381-.239-.816-.365-1.196-.397-1.196-.437-1.197-.356-.893-.088-.303-.345-1.197-.371-1.196-.407-1.196-.455-1.197-.129-.325-.241-.871-.347-1.197-.377-1.196-.417-1.196-.413-1.063-.036-.134-.323-1.196-.348-1.196-.38-1.197-.424-1.196-.283-.734-.122-.463-.32-1.196-.347-1.196-.38-1.197-.429-1.196-.197-.513-.175-.683-.316-1.197-.342-1.196-.378-1.197-.428-1.196-.155-.407-.197-.79-.309-1.196-.335-1.196-.372-1.197-.423-1.196-.159-.42-.188-.776-.3-1.197-.326-1.196-.362-1.196-.412-1.197-.206-.552-.153-.644-.29-1.197-.313-1.196-.348-1.196-.395-1.197-.296-.799-.092-.397-.277-1.197-.3-1.196-.33-1.196-.374-1.197-.422-1.153-.01-.043-.263-1.196-.284-1.197-.31-1.196-.35-1.197-.406-1.196-.171-.46-.16-.736-.266-1.197-.29-1.196-.322-1.196-.37-1.197-.387-1.06-.029-.136-.25-1.197-.268-1.196H98.21l.293 1.196.287 1.197.202.854.092.342.316 1.197.31 1.196.304 1.196.297 1.197.292 1.196.184.765.117.431.32 1.197.314 1.196.308 1.197.301 1.196.295 1.196.14.568.172.629.325 1.196.317 1.196.311 1.197.305 1.196.299 1.197.065.262.26.934.328 1.196.32 1.197.314 1.196.308 1.197.265 1.044.043.152.337 1.196.33 1.197.323 1.196.317 1.196.31 1.197.134.518.195.678.34 1.197.331 1.196.326 1.196.319 1.197.284 1.084.033.112.348 1.197.34 1.196.335 1.196.327 1.197.32 1.196.091.34.254.856.35 1.197.341 1.196.335 1.197.328 1.196.187.686.154.51.357 1.197.35 1.196.342 1.196.336 1.197.255.924.084.272.365 1.197.357 1.196.35 1.196.342 1.197.297 1.053.045.143.372 1.197.364 1.196.356 1.196.35 1.197.308 1.073.039.123.378 1.196.37 1.197.364 1.196.355 1.197.288.982.07.214.384 1.196.376 1.197.37 1.196.36 1.196.235.784.135.413.39 1.196.383 1.197.374 1.196.367 1.196.145.477.241.72.396 1.196.387 1.197.38 1.196.371 1.196.02.063.387 1.134.4 1.196.391 1.196.384 1.197.232.732.162.464.412 1.197.404 1.196.396 1.196.388 1.197.033.1.388 1.096.416 1.197.408 1.196.4 1.196.183.553.232.644.428 1.196.42 1.196.41 1.197.304.899.11.297.44 1.197.43 1.196.421 1.196.394 1.137.022.06.45 1.196.442 1.196.432 1.197.424 1.196.024.069.435 1.128.452 1.196.442 1.196.434 1.197.032.087.437 1.11.462 1.196.452 1.196.443 1.194.001.002.482 1.197.472 1.196.462 1.196.378.994.083.203.492 1.196.48 1.197.472 1.196.268.685.215.511.5 1.197.49 1.196.481 1.197.108.27.4.926.51 1.196.498 1.197.387.94.113.256.528 1.196.517 1.197.507 1.196.13.307.404.89.535 1.196.525 1.196.33.76.204.437.554 1.196.543 1.196.493 1.107.043.09.573 1.196.562 1.197.55 1.196.067.146.518 1.05.58 1.197.568 1.196.129.273.469.924.597 1.196.586 1.196.142.291.474.906.616 1.196.603 1.196.102.202.536.995.635 1.196.621 1.197.002.003.664 1.193.653 1.196.478.89.176.307.685 1.196.67 1.196.263.473.431.724.703 1.196.661 1.146.031.05.737 1.197.722 1.196.305.51.439.687.756 1.196.6.964.154.233.79 1.196.777 1.196.073.113.748 1.084.812 1.196.234.347.612.85.849 1.196.334.474.543.722.889 1.197.362.492.554.704.93 1.196.311.402.655.795.974 1.196.166.204.86.993.934 1.092.095.104 1.092 1.196.608.674.505.523 1.146 1.196.143.15 1.073 1.046.722.71.53.487 1.264 1.166.036.03 1.397 1.197.362.311 1.11.885.685.547.881.65.913.673.772.523 1.023.692.818.504.976.601 1.07.595.725.402 1.6.795.194.095 1.795.778.86.323.935.348 1.794.562 1.128.287z" clip-path="url(#pb3f2302785)" style="fill:#1fa088"/><path d="m212.05 172.343 1.794.155 1.794.047 1.795-.06 1.795-.17 1.185-.185.61-.09 1.794-.372 1.794-.487.736-.247 1.059-.343 1.795-.701.336-.153 1.458-.645 1.076-.551.719-.361 1.467-.835.327-.185 1.614-1.012.18-.112 1.584-1.084.211-.145 1.419-1.051.376-.281 1.146-.916.649-.524.786-.672 1.008-.878.35-.319 1.291-1.196.154-.143 1.088-1.053.706-.703.483-.494 1.14-1.196.172-.182.94-1.015.854-.958.21-.238 1.043-1.196.542-.643.466-.554.978-1.196.35-.438.611-.758.926-1.197.258-.34.661-.856.882-1.197.252-.346.63-.85.846-1.196.318-.46.526-.737.82-1.196.449-.68.355-.517.799-1.196.64-1.01.124-.186.785-1.197.736-1.196.15-.246.61-.95.727-1.197.458-.783.256-.413.725-1.197.68-1.196.133-.235.578-.961.68-1.197.537-.988.121-.208.689-1.196.646-1.197.338-.647.312-.55.656-1.196.616-1.196.21-.417.43-.78.63-1.196.591-1.196.144-.295.484-.902.608-1.196.572-1.196.131-.277.48-.92.591-1.196.557-1.196.167-.365.423-.832.58-1.196.543-1.197.248-.558.317-.638.571-1.196.536-1.197.37-.862.163-.334.568-1.197.53-1.196.501-1.196.033-.08.529-1.117.53-1.196.498-1.196.238-.587.282-.61.534-1.196.5-1.197.47-1.196.008-.02.532-1.176.505-1.197.474-1.196.284-.74.203-.456.515-1.197.482-1.196.453-1.197.142-.378.355-.818.494-1.196.462-1.197.437-1.196.046-.128.455-1.069.477-1.196.447-1.196.416-1.178.008-.019.498-1.196.463-1.196.435-1.197.39-1.134.026-.062.488-1.197.453-1.196.425-1.196.402-1.197v-.003l.48-1.193.446-1.196.419-1.197.395-1.196.055-.169.406-1.028.443-1.196.414-1.196.39-1.197.142-.44.294-.756.442-1.197.412-1.196.388-1.196.259-.825.142-.372.445-1.196.414-1.196.388-1.197.367-1.196.038-.123.403-1.074.418-1.196.392-1.196.368-1.197.214-.713.179-.483.427-1.197.398-1.196.372-1.196.353-1.197.065-.222.354-.974.408-1.196.38-1.197.358-1.196.295-1.033.059-.164.423-1.196.391-1.196.367-1.197.345-1.196.21-.748.158-.448.41-1.197.379-1.196.355-1.197.335-1.196h-13.441l-.43 1.196-.329.9-.103.297-.42 1.196-.43 1.197-.437 1.196-.404 1.084-.04.112-.43 1.197-.437 1.196-.446 1.196-.442 1.161-.013.036-.438 1.196-.447 1.197-.456 1.196-.44 1.131-.025.065-.449 1.197-.458 1.196-.467 1.196-.396.995-.077.202-.462 1.196-.47 1.197-.48 1.196-.305.75-.176.446-.475 1.197-.484 1.196-.495 1.197-.165.397-.323.799-.49 1.196-.5 1.197-.482 1.13-.027.066-.497 1.196-.506 1.197-.517 1.196-.247.566-.27.63-.514 1.197-.526 1.196-.485 1.084-.05.113-.524 1.196-.535 1.197-.547 1.196-.138.301-.404.895-.546 1.197-.559 1.196-.286.607-.273.59-.56 1.196-.572 1.196-.39.804-.187.393-.575 1.196-.587 1.196-.445.894-.15.303-.591 1.196-.605 1.196-.449.876-.163.32-.611 1.197-.624 1.197-.396.75-.234.446-.633 1.196-.646 1.197-.282.517-.369.68-.657 1.196-.67 1.196-.098.175-.575 1.021-.684 1.197-.536.923-.159.273-.7 1.196-.715 1.197-.22.367-.502.83-.733 1.196-.56.9-.187.296-.755 1.196-.77 1.197-.083.126-.699 1.07-.796 1.196-.3.446-.511.75-.826 1.197-.457.655-.385.542-.86 1.196-.55.757-.327.44-.897 1.196-.57.75-.348.446-.94 1.197-.506.637-.459.559-.99 1.196-.346.416-.674.78-1.047 1.197-.074.085-1.013 1.111-.781.846-.339.35-1.162 1.197-.294.302-.918.895-.876.846-.384.35-1.318 1.196-.093.085-1.304 1.112-.49.415-.987.781-.808.637-.765.56-1.03.75-.665.446-1.13.757-.72.44-1.074.654-.986.542-.808.445-1.536.751-.259.127-1.794.773-.806.296-.99.368-1.794.556-1.097.273-.697.175-1.795.343-1.794.233-1.795.125-1.795.018-1.794-.09-1.795-.196-1.794-.306-1.307-.302-.488-.112-1.794-.518-1.612-.567-.183-.063-1.795-.734-.847-.399-.947-.444-1.417-.752-.378-.2-1.687-.997-.107-.063-1.744-1.133-.05-.033-1.64-1.163-.155-.11-1.414-1.087-.381-.294-1.09-.902-.705-.586-.688-.61-1.106-.988-.22-.209-1.261-1.196-.314-.3-.893-.897-.901-.915-.265-.281-1.12-1.197-.41-.44-.673-.756-1.053-1.196-.068-.079-.948-1.118-.847-1.016-.146-.18-.962-1.196-.687-.866-.255-.33-.917-1.197-.622-.823-.276-.374-.877-1.196-.642-.888-.218-.308-.842-1.197-.734-1.062-.091-.134-.812-1.197-.795-1.196-.097-.147-.687-1.05-.768-1.196-.34-.533-.417-.663-.746-1.196-.631-1.031-.1-.166-.726-1.196-.711-1.197-.258-.436-.446-.76-.694-1.196-.654-1.15-.026-.047-.68-1.196-.666-1.196-.423-.771-.234-.426-.654-1.196-.64-1.197-.266-.5-.372-.696-.63-1.196-.619-1.197-.174-.339-.444-.857-.61-1.197-.599-1.196-.141-.284-.46-.912-.592-1.197-.58-1.196-.163-.337-.42-.86-.577-1.196-.565-1.196-.233-.498-.332-.699-.563-1.196-.55-1.196-.35-.766-.199-.43-.55-1.197-.54-1.196-.505-1.145-.023-.052-.54-1.196-.529-1.197-.518-1.196-.184-.43-.338-.766-.52-1.197-.51-1.196-.427-1.022-.075-.175-.513-1.196-.502-1.196-.491-1.197-.213-.522-.283-.674-.497-1.196-.485-1.197-.477-1.196-.053-.135-.436-1.062-.481-1.196-.472-1.196-.406-1.05-.059-.147-.478-1.196-.469-1.197-.458-1.196-.33-.873-.127-.323-.467-1.197-.456-1.196-.448-1.196-.297-.806-.15-.39-.456-1.197-.446-1.197-.437-1.196-.305-.847-.132-.35-.447-1.196-.437-1.196-.428-1.196-.35-.996-.075-.2-.439-1.197-.43-1.197-.42-1.196h-15.501l.438 1.196.275.663.136.534.312 1.196.345 1.197.392 1.196.462 1.196.148.35.22.847.328 1.196.365 1.196.417 1.197.464 1.13.018.066.32 1.197.348 1.196.391 1.196.45 1.197.268.637.154.56.34 1.195.374 1.197.424 1.196.495 1.197.007.017.331 1.179.366 1.196.408 1.197.467 1.196.223.524.195.673.362 1.196.4 1.196.45 1.197.387.911.086.285.362 1.196.396 1.197.443 1.196.508 1.191.002.006.364 1.196.398 1.196.442 1.197.504 1.196.085.192.315 1.005.403 1.196.445 1.196.506 1.197.125.282.295.914.412 1.196.454 1.197.513 1.196.12.268.31.929.423 1.196.467 1.196.528 1.197.067.147.359 1.05.44 1.195.485 1.197.51 1.122.027.074.422 1.197.46 1.196.51 1.196.376.81.141.387.445 1.196.485 1.197.541 1.196.183.384.303.812.472 1.197.518 1.196.502 1.046.058.15.464 1.197.505 1.196.56 1.197.207.42.308.776.5 1.196.548 1.197.439.88.13.316.499 1.196.544 1.197.605 1.196.016.032.491 1.165.547 1.196.604 1.196.153.294.394.903.554 1.196.61 1.197.236.444.34.752.566 1.196.622 1.197.267.49.33.706.584 1.196.64 1.197.24.43.37.766.608 1.197.666 1.196.151.263.467.933.637 1.197.69 1.183.008.013.62 1.197.674 1.196.493.82.203.376.66 1.197.72 1.196.212.34.478.856.71 1.197.606.952.143.244.707 1.197.77 1.196.175.264.565.932.772 1.197.458.67.332.526.783 1.196.68.966.152.23.803 1.197.839 1.153.03.044.83 1.196.9 1.196.034.044.836 1.153.939 1.196.02.026.891 1.17.903 1.102.077.095.965 1.196.753.879.269.318 1.034 1.196.492.547.58.65 1.12 1.196.094.1 1.042 1.096.753.758.443.439 1.246 1.196.105.1 1.185 1.096.61.547.751.65 1.043.878.396.318 1.399 1.102.128.095 1.631 1.196.036.025 1.73 1.171.064.043 1.795 1.107.083.047 1.711.96.477.236 1.318.662 1.228.534.566.252 1.795.683.826.262.969.316 1.794.472 1.795.358.359.05z" clip-path="url(#pb3f2302785)" style="fill:#1fa088"/></g><g id="PathCollection_6"><path d="M129.499 249.895H304.043l.403-1.196.406-1.197.408-1.196.107-.313.29-.884.394-1.196.396-1.196.4-1.197.315-.94.082-.256.385-1.196.387-1.197.39-1.196.392-1.197.158-.481.225-.715.379-1.196.38-1.197.384-1.196.385-1.196.042-.13.33-1.067.371-1.196.374-1.197.377-1.196.342-1.083.035-.113.363-1.197.365-1.196.367-1.197.37-1.196.295-.948.074-.248.356-1.197.359-1.196.36-1.196.364-1.197.282-.922.08-.274.35-1.197.352-1.196.354-1.196.357-1.197.301-1.004.055-.192.344-1.197.346-1.196.348-1.196.35-1.197.352-1.194v-.002l.338-1.196.34-1.197.34-1.196.344-1.197.346-1.196.086-.297.25-.9.332-1.196.336-1.196.337-1.196.34-1.197.2-.704.134-.492.327-1.197.328-1.196.331-1.196.333-1.197.335-1.196.006-.023.315-1.174.322-1.196.324-1.196.327-1.197.328-1.196.179-.648.145-.548.316-1.197.318-1.196.32-1.197.322-1.196.324-1.196.05-.184.262-1.013.312-1.196.313-1.196.316-1.197.318-1.196.273-1.024.044-.173.305-1.196.308-1.196.309-1.197.311-1.196.313-1.197.205-.777.105-.419.3-1.196.304-1.197.305-1.196.306-1.196.309-1.197.165-.638.138-.558.297-1.197.298-1.196.3-1.196.303-1.197.304-1.196.155-.608.143-.589.292-1.196.294-1.196.296-1.197.297-1.196.3-1.196.172-.686.123-.51.287-1.197.29-1.197.291-1.196.293-1.196.295-1.197.216-.872.077-.324.283-1.196.284-1.197.287-1.196.289-1.197.29-1.196.285-1.166.007-.03.278-1.197.28-1.196.282-1.197.284-1.196.286-1.196.287-1.197.09-.373.189-.823.276-1.196.277-1.197.279-1.196.28-1.197.284-1.196.21-.885.07-.311.271-1.197.273-1.196.274-1.197.276-1.196.278-1.196.28-1.197.072-.308.198-.888.268-1.196.27-1.197.271-1.196.274-1.197.274-1.196.24-1.036.035-.16.263-1.197.265-1.196.267-1.196.268-1.197.27-1.196.272-1.197.154-.677.113-.519.26-1.196.262-1.197.264-1.196.265-1.197.267-1.196.268-1.196.096-.426.165-.77.257-1.197.259-1.196.26-1.197.262-1.196.263-1.197.266-1.196.063-.283.193-.913.253-1.197.256-1.196.257-1.196.258-1.197.26-1.196.263-1.197.054-.248.198-.948.25-1.196.252-1.197.254-1.196.255-1.197.257-1.196.259-1.196.07-.322.18-.875.247-1.196.249-1.196.25-1.197.252-1.196.253-1.197.255-1.196.108-.504.14-.692.245-1.197.245-1.196.247-1.197.248-1.196.25-1.196.252-1.197.168-.794.08-.402.24-1.196.243-1.197.243-1.196.245-1.197.246-1.196.248-1.196.25-1.193v-.004l.237-1.196.238-1.196.24-1.197.242-1.196.242-1.197.245-1.196H335.48l-.307 1.196-.301 1.197-.295 1.196-.29 1.197-.208.872-.086.324-.318 1.196-.312 1.197-.305 1.196-.299 1.196-.293 1.197-.181.745-.123.451-.322 1.197-.315 1.196-.31 1.196-.302 1.197-.297 1.196-.126.51-.19.686-.325 1.197-.318 1.196-.313 1.197-.306 1.196-.3 1.196-.042.167-.288 1.03-.329 1.196-.322 1.197-.315 1.196-.31 1.196-.231.91-.082.287-.338 1.196-.33 1.196-.325 1.197-.318 1.196-.312 1.197-.09.346-.245.85-.34 1.196-.333 1.197-.326 1.196-.32 1.197-.23.872-.095.324-.349 1.196-.341 1.197-.335 1.196-.328 1.196-.321 1.197-.026.094-.328 1.102-.35 1.197-.342 1.196-.335 1.196-.33 1.197-.11.4-.24.796-.358 1.196-.35 1.197-.342 1.196-.337 1.197-.167.6-.184.596-.364 1.196-.357 1.197-.35 1.196-.343 1.197-.196.69-.16.506-.37 1.196-.364 1.197-.357 1.196-.35 1.196-.194.672-.167.525-.378 1.196-.37 1.197-.363 1.196-.356 1.196-.16.545-.212.652-.384 1.196-.376 1.196-.368 1.197-.362 1.196-.093.31-.293.887-.39 1.196-.38 1.196-.375 1.197-.357 1.163-.01.033-.403 1.197-.395 1.196-.386 1.196-.379 1.197-.221.708-.168.488-.407 1.196-.399 1.197-.39 1.196-.384 1.197-.047.147-.367 1.049-.41 1.196-.403 1.197-.395 1.196-.22.671-.187.526-.423 1.196-.414 1.196-.406 1.197-.364 1.09-.039.106-.434 1.196-.426 1.197-.418 1.196-.409 1.197-.069.2-.37.996-.437 1.196-.428 1.197-.42 1.196-.14.4-.302.796-.448 1.197-.438 1.196-.43 1.197-.176.49-.274.706-.458 1.196-.45 1.197-.44 1.196-.172.472-.288.725-.468 1.196-.46 1.196-.45 1.197-.129.345-.345.851-.479 1.196-.468 1.197-.46 1.196-.042.111-.451 1.086-.488 1.196-.478 1.196-.378.962-.1.235-.506 1.196-.497 1.197-.487 1.196-.205.508-.3.688-.515 1.197-.505 1.196-.474 1.145-.023.051-.535 1.197-.523 1.196-.513 1.197-.2.471-.333.725-.542 1.196-.531 1.197-.39.889-.144.307-.56 1.196-.55 1.197-.539 1.196v.003l-.579 1.194-.567 1.196-.556 1.196-.093.201-.496.996-.586 1.196-.574 1.197-.139.29-.464.906-.604 1.196-.592 1.197-.135.272-.488.924-.622 1.196-.61 1.197-.074.147-.572 1.05-.64 1.196-.583 1.108-.05.088-.672 1.196-.658 1.197-.414.761-.253.435-.691 1.196-.677 1.197-.174.309-.534.887-.71 1.197-.55.943-.158.253-.743 1.196-.729 1.197-.165.273-.598.923-.762 1.197-.435.689-.341.507-.798 1.196-.655.999-.139.198-.835 1.196-.819 1.196-.002.004-.871 1.193-.857 1.196-.066.093-.842 1.104-.897 1.196-.056.075-.896 1.121-.898 1.145-.044.052-1.002 1.196-.749.908-.255.289-1.05 1.196-.49.562-.59.634-1.102 1.197-.102.111-1.07 1.085-.725.744-.473.452-1.243 1.197-.078.075-1.251 1.121-.544.49-.844.707-.95.798-.512.398-1.283 1-.275.196-1.52 1.091-.16.106-1.634 1.072-.208.124-1.587.945-.469.251-1.325.709-1.025.488-.77.364-1.794.745-.245.087-1.55.546-1.795.527-.526.124-1.268.292-1.795.308-1.794.2-1.795.09-1.795-.017-1.794-.128-1.795-.235-1.794-.343-.667-.167-1.128-.287-1.794-.562-.935-.348-.86-.323-1.795-.778-.193-.095-1.601-.795-.725-.402-1.07-.595-.976-.6-.818-.505-1.023-.692-.772-.523-.913-.674-.881-.65-.684-.546-1.111-.885-.362-.311-1.397-1.197-.036-.03-1.263-1.166-.531-.487-.721-.71-1.074-1.046-.143-.15-1.146-1.196-.505-.523-.608-.674-1.092-1.196-.095-.104-.933-1.092-.861-.993-.166-.204-.974-1.196-.655-.795-.31-.402-.93-1.196-.555-.704-.362-.492-.889-1.197-.543-.722-.334-.474-.85-1.197-.61-.849-.235-.347-.812-1.196-.748-1.084-.073-.113-.776-1.196-.791-1.196-.155-.233-.6-.964-.755-1.196-.44-.687-.304-.51-.722-1.196-.737-1.196-.031-.05-.66-1.147-.704-1.196-.43-.724-.264-.473-.67-1.196-.685-1.196-.176-.307-.478-.89-.653-1.196-.664-1.193-.002-.003-.621-1.197-.635-1.196-.536-.995-.102-.202-.603-1.196-.616-1.196-.474-.906-.142-.29-.586-1.197-.597-1.196-.47-.924-.128-.273-.568-1.196-.58-1.197-.518-1.05-.067-.146-.55-1.196-.562-1.197-.573-1.196-.043-.09-.493-1.107-.543-1.196-.554-1.196-.204-.437-.33-.76-.525-1.196-.535-1.196-.405-.89-.13-.307-.506-1.196-.517-1.197-.528-1.196-.113-.255-.387-.941-.498-1.197-.51-1.196-.4-.927-.108-.27-.48-1.196-.49-1.196-.5-1.197-.216-.51-.268-.686-.471-1.196-.481-1.197-.492-1.196-.083-.203-.378-.994-.462-1.196-.472-1.196-.482-1.197v-.002l-.444-1.194-.452-1.196-.462-1.197-.437-1.11-.032-.086-.434-1.197-.442-1.196-.452-1.196-.435-1.128-.024-.069-.424-1.196-.432-1.197-.441-1.196-.45-1.196-.023-.06-.394-1.137-.421-1.196-.43-1.196-.44-1.197-.11-.297-.304-.9-.41-1.196-.42-1.196-.428-1.196-.232-.644-.183-.553-.4-1.196-.408-1.196-.416-1.197-.388-1.095-.033-.101-.388-1.197-.396-1.196-.404-1.196-.412-1.197-.162-.464-.232-.732-.384-1.197-.392-1.196-.4-1.196-.386-1.134-.02-.063-.372-1.196-.38-1.196-.386-1.197-.396-1.196-.24-.72-.146-.477-.367-1.196-.374-1.196-.382-1.197-.39-1.196-.136-.413-.234-.784-.362-1.196-.369-1.196-.376-1.197-.385-1.196-.069-.214-.288-.982-.355-1.197-.363-1.196-.37-1.197-.38-1.196-.038-.123-.308-1.073-.35-1.197-.356-1.196-.364-1.196-.372-1.197-.045-.143-.297-1.053-.343-1.197-.35-1.196-.356-1.196-.365-1.197-.084-.272-.255-.924-.336-1.197-.342-1.196-.35-1.196-.357-1.197-.154-.51-.187-.686-.328-1.196-.335-1.197-.342-1.196-.349-1.197-.254-.855-.09-.341-.321-1.196-.327-1.197-.334-1.196-.341-1.196-.348-1.197-.033-.112-.284-1.084-.32-1.197-.325-1.196-.332-1.196-.339-1.197-.195-.678-.133-.518-.311-1.197-.317-1.196-.323-1.196-.33-1.197-.337-1.196-.043-.152-.265-1.044-.308-1.197-.314-1.196-.32-1.197-.328-1.196-.26-.934-.065-.262-.3-1.197-.304-1.196-.31-1.197-.318-1.196-.325-1.196-.173-.63-.139-.567-.295-1.196-.301-1.196-.308-1.197-.314-1.196-.32-1.197-.117-.43-.184-.766-.292-1.196-.297-1.197-.304-1.196-.31-1.196-.316-1.197-.092-.342-.202-.854-.287-1.197-.293-1.196H69.025l.243 1.196.241 1.197.24 1.196.239 1.197.237 1.196.053.27.193.926.248 1.197.247 1.196.245 1.196.243 1.197.242 1.196.24 1.197.137.68.108.516.252 1.196.25 1.197.249 1.196.247 1.196.245 1.197.244 1.196.2.984.045.213.255 1.196.254 1.196.252 1.197.25 1.196.249 1.197.247 1.196.242 1.178.004.018.259 1.197.257 1.196.255 1.196.254 1.197.252 1.196.25 1.197.25 1.196.013.066.248 1.13.26 1.197.26 1.196.256 1.197.256 1.196.254 1.196.252 1.197.009.043.256 1.153.264 1.196.262 1.197.26 1.196.259 1.197.257 1.196.237 1.108.02.088.268 1.197.267 1.196.265 1.196.264 1.197.262 1.196.26 1.197.188.867.075.329.272 1.196.27 1.197.268 1.196.267 1.197.265 1.196.264 1.196.114.52.156.677.275 1.196.273 1.196.272 1.197.27 1.196.268 1.197.266 1.196.014.063.265 1.133.278 1.197.277 1.196.274 1.196.273 1.197.271 1.196.157.694.119.503.283 1.196.281 1.196.28 1.197.277 1.196.275 1.197.275 1.196.004.021.283 1.175.286 1.197.284 1.196.282 1.196.28 1.197.279 1.196.101.435.186.762.29 1.196.289 1.196.287 1.197.285 1.196.283 1.197.175.74.112.456.295 1.196.294 1.197.291 1.196.29 1.196.287 1.197.225.939.065.257.3 1.197.297 1.196.296 1.196.294 1.197.293 1.196.25 1.029.042.167.305 1.197.302 1.196.3 1.197.3 1.196.296 1.196.25 1.01.048.187.309 1.196.307 1.197.305 1.196.303 1.196.3 1.197.222.882.082.314.314 1.196.311 1.197.31 1.196.307 1.197.306 1.196.164.646.147.55.318 1.197.316 1.196.314 1.197.312 1.196.31 1.196.078.302.242.895.323 1.196.32 1.196.318 1.197.317 1.196.275 1.046.04.15.33 1.197.327 1.196.324 1.197.323 1.196.32 1.196.13.485.2.712.332 1.196.332 1.197.329 1.196.327 1.196.275 1.012.052.185.34 1.196.338 1.197.335 1.196.333 1.196.332 1.197.064.234.278.962.345 1.196.341 1.197.34 1.196.338 1.197.153.544.192.652.35 1.196.349 1.197.346 1.196.344 1.196.213.746.135.45.357 1.197.355 1.197.353 1.196.35 1.196.245.84.109.357.363 1.196.362 1.197.359 1.196.357 1.196.245.825.115.372.37 1.196.368 1.196.366 1.197.363 1.196.212.701.157.496.377 1.196.374 1.196.372 1.197.37 1.196.145.47.234.727.383 1.196.381 1.196.38 1.197.375 1.196.041.13.35 1.066.39 1.197.388 1.196.386 1.197.28.877.108.319.4 1.196.396 1.197.395 1.196.392 1.196.104.321.3.876.406 1.196.403 1.197.402 1.196z" clip-path="url(#pb3f2302785)" style="fill:#3fbc73"/><path d="m210.255 130.56 1.794.305 1.795.197 1.794.09 1.795-.019 1.795-.125 1.794-.233 1.795-.343.697-.175 1.097-.273 1.795-.556.99-.368.805-.296 1.794-.773.259-.127 1.536-.75.808-.446.986-.542 1.073-.655.722-.44 1.13-.756.664-.446 1.03-.75.765-.56.808-.637.987-.78.49-.416 1.304-1.112.093-.085 1.318-1.196.384-.35.876-.846.918-.895.294-.302 1.162-1.196.339-.35.78-.847 1.014-1.111.074-.085 1.047-1.196.674-.781.346-.416.99-1.196.459-.56.506-.636.94-1.197.348-.446.57-.75.897-1.197.328-.44.55-.756.859-1.196.385-.542.457-.655.826-1.196.512-.751.299-.446.796-1.196.7-1.07.081-.126.771-1.197.755-1.196.187-.297.56-.9.733-1.196.502-.829.22-.367.715-1.197.7-1.196.16-.273.535-.923.684-1.197.575-1.021.098-.175.67-1.196.657-1.197.37-.679.281-.517.646-1.197.633-1.196.234-.446.396-.75.624-1.197.611-1.196.163-.32.45-.877.604-1.196.592-1.196.149-.303.445-.894.587-1.196.575-1.196.188-.393.39-.804.57-1.196.56-1.197.274-.589.286-.607.559-1.196.546-1.197.404-.895.138-.301.547-1.196.535-1.197.525-1.196.05-.113.484-1.084.526-1.196.515-1.196.269-.631.247-.566.517-1.196.506-1.197.497-1.196.027-.065.482-1.131.5-1.197.49-1.196.323-.799.165-.397.495-1.197.484-1.196.475-1.197.176-.445.305-.751.48-1.196.47-1.197.462-1.196.077-.202.396-.995.467-1.196.458-1.196.45-1.197.024-.065.44-1.131.456-1.196.447-1.197.438-1.196.013-.036.442-1.16.446-1.197.438-1.196.429-1.197.04-.112.404-1.084.437-1.196.43-1.197.42-1.196.103-.297.329-.9.43-1.196H131.725l.42 1.196.43 1.197.44 1.196.073.2.35.997.429 1.196.437 1.196.447 1.197.132.35.305.846.437 1.196.446 1.197.456 1.196.15.39.297.807.448 1.196.456 1.196.467 1.197.127.323.33.873.458 1.196.469 1.197.478 1.196.06.148.405 1.049.472 1.196.481 1.196.436 1.062.053.135.477 1.196.485 1.197.497 1.196.283.674.213.522.491 1.197.502 1.196.513 1.196.075.175.427 1.022.51 1.196.52 1.197.338.767.184.429.518 1.196.529 1.197.54 1.196.023.052.506 1.145.539 1.196.55 1.196.2.43.348.767.551 1.196.563 1.196.332.7.233.497.565 1.196.576 1.197.421.859.163.337.58 1.196.592 1.197.46.912.141.284.598 1.196.61 1.197.445.857.174.34.618 1.196.631 1.196.372.696.265.5.64 1.197.655 1.196.234.426.423.77.666 1.197.68 1.196.026.046.654 1.15.694 1.197.446.76.258.436.71 1.197.726 1.196.101.166.631 1.03.746 1.197.418.663.34.533.767 1.197.687 1.05.097.146.795 1.196.812 1.197.09.134.735 1.062.842 1.197.218.308.642.888.877 1.196.276.374.622.823.917 1.196.255.331.687.866.962 1.196.146.18.847 1.016.948 1.118.068.079 1.053 1.196.673.755.41.441 1.12 1.197.265.281.9.915.894.898.314.299 1.26 1.196.22.209 1.107.987.688.61.705.587 1.09.902.381.294 1.414 1.087.154.11 1.64 1.163.051.033 1.744 1.133.107.063 1.687.997.378.2 1.417.752.947.444.847.4 1.795.733.183.063 1.612.567 1.794.518.488.112z" clip-path="url(#pb3f2302785)" style="fill:#3fbc73"/></g><g id="PathCollection_7"><path d="M39.77 249.895H129.214l-.4-1.196-.404-1.197-.407-1.196-.299-.876-.104-.32-.392-1.197-.395-1.196-.397-1.197-.4-1.196-.106-.319-.281-.877-.386-1.197-.388-1.196-.39-1.197-.35-1.066-.04-.13-.377-1.196-.379-1.197-.38-1.196-.384-1.196-.234-.727-.145-.47-.37-1.196-.372-1.197-.374-1.196-.377-1.196-.157-.496-.212-.7-.363-1.197-.366-1.197-.368-1.196-.37-1.196-.115-.372-.245-.825-.357-1.196-.36-1.196-.36-1.197-.364-1.196-.109-.357-.245-.84-.35-1.196-.353-1.196-.355-1.197-.357-1.196-.135-.45-.213-.747-.344-1.196-.346-1.196-.349-1.197-.35-1.196-.192-.652-.153-.544-.338-1.197-.34-1.196-.341-1.197-.345-1.196-.278-.962-.064-.234-.332-1.197-.333-1.196-.335-1.196-.338-1.197-.34-1.196-.052-.185-.275-1.012-.327-1.196-.33-1.196-.33-1.197-.334-1.196-.199-.712-.13-.485-.32-1.196-.323-1.196-.324-1.197-.327-1.196-.33-1.196-.04-.15-.275-1.047-.317-1.196-.318-1.197-.32-1.196-.323-1.196-.242-.895-.078-.302-.31-1.196-.312-1.196-.314-1.197-.316-1.196-.318-1.197-.147-.55-.164-.646-.306-1.196-.307-1.197-.31-1.196-.311-1.197-.314-1.196-.082-.314-.221-.882-.301-1.197-.303-1.196-.305-1.196-.307-1.197-.31-1.196-.048-.187-.249-1.01-.297-1.196-.298-1.196-.3-1.197-.303-1.196-.305-1.197-.042-.167-.25-1.029-.293-1.196-.294-1.197-.296-1.196-.297-1.196-.3-1.197-.065-.257-.225-.94-.287-1.196-.29-1.196-.291-1.196-.294-1.197-.295-1.196-.112-.455-.175-.741-.283-1.197-.285-1.196-.287-1.197-.289-1.196-.29-1.196-.186-.762-.101-.435-.279-1.196-.28-1.197-.282-1.196-.284-1.196-.286-1.197-.283-1.175-.004-.021-.275-1.196-.275-1.197-.278-1.196-.279-1.197-.281-1.196-.283-1.196-.12-.503-.156-.694-.271-1.196-.273-1.197-.274-1.196-.277-1.196-.278-1.197-.265-1.133-.014-.063-.266-1.196-.268-1.197-.27-1.196-.272-1.197-.273-1.196-.275-1.196-.156-.678-.114-.519-.264-1.196-.265-1.196-.267-1.197-.268-1.196-.27-1.197-.272-1.196-.075-.329-.188-.867-.26-1.197-.262-1.196-.264-1.197-.265-1.196-.267-1.196-.269-1.197-.02-.088-.236-1.108-.257-1.196-.26-1.197-.26-1.196-.261-1.197-.264-1.196-.256-1.153-.01-.043-.251-1.197-.254-1.196-.256-1.196-.257-1.197-.259-1.196-.26-1.197-.248-1.13-.013-.066-.25-1.196-.25-1.197-.252-1.196-.254-1.197-.255-1.196-.257-1.196-.26-1.197-.003-.018-.242-1.178-.247-1.196-.25-1.197-.25-1.196-.251-1.197-.254-1.196-.255-1.196-.046-.213-.2-.984-.243-1.196-.245-1.197-.247-1.196-.249-1.196-.25-1.197-.252-1.196-.108-.515-.137-.681-.24-1.197-.242-1.196-.243-1.197-.245-1.196-.247-1.196-.248-1.197-.193-.925-.053-.271-.237-1.196-.239-1.197-.24-1.196-.24-1.197-.244-1.196H37.976V249.419l.08.476zM305.367 249.895H395.076l.02-.12V11.816H364.238l-.245 1.196-.242 1.197-.242 1.196-.24 1.197-.238 1.196-.237 1.196v.004l-.25 1.193-.248 1.196-.246 1.196-.245 1.197-.243 1.196-.242 1.197-.24 1.196-.081.402-.168.794-.252 1.197-.25 1.196-.248 1.196-.247 1.197-.245 1.196-.244 1.197-.14.692-.109.504-.255 1.196-.253 1.197-.252 1.196-.25 1.197-.25 1.196-.246 1.196-.18.875-.07.322-.259 1.196-.257 1.196-.255 1.197-.254 1.196-.252 1.197-.25 1.196-.198.948-.054.248-.262 1.197-.26 1.196-.26 1.197-.256 1.196-.256 1.196-.253 1.197-.193.913-.063.283-.266 1.196-.263 1.197-.262 1.196-.26 1.197-.259 1.196-.257 1.196-.165.771-.096.426-.268 1.196-.267 1.196-.265 1.197-.264 1.196-.262 1.197-.26 1.196-.113.52-.154.676-.272 1.197-.27 1.196-.268 1.197-.267 1.196-.265 1.196-.263 1.197-.035.16-.24 1.036-.274 1.196-.274 1.197-.271 1.196-.27 1.197-.268 1.196-.198.888-.072.308-.28 1.197-.278 1.196-.276 1.196-.274 1.197-.273 1.196-.27 1.197-.071.311-.21.885-.283 1.196-.281 1.197-.28 1.196-.276 1.197-.276 1.196-.189.823-.09.373-.287 1.197-.286 1.196-.284 1.196-.282 1.197-.28 1.196-.278 1.197-.007.03-.285 1.166-.29 1.196-.289 1.197-.287 1.196-.284 1.197-.283 1.196-.077.324-.216.872-.295 1.197-.293 1.196-.291 1.196-.29 1.197-.287 1.196-.123.51-.172.687-.3 1.196-.297 1.196-.296 1.197-.294 1.196-.292 1.196-.143.589-.155.608-.304 1.196-.303 1.197-.3 1.196-.298 1.196-.297 1.197-.138.558-.165.638-.309 1.197-.306 1.196-.305 1.196-.303 1.197-.301 1.196-.105.42-.205.776-.313 1.197-.311 1.196-.31 1.197-.307 1.196-.305 1.196-.044.173-.273 1.024-.318 1.196-.316 1.197-.313 1.196-.312 1.196-.262 1.013-.05.184-.324 1.196-.322 1.196-.32 1.197-.318 1.196-.316 1.197-.145.548-.179.648-.328 1.196-.327 1.197-.324 1.196-.322 1.196-.315 1.174-.006.023-.335 1.196-.333 1.197-.33 1.196-.33 1.196-.326 1.197-.134.492-.2.704-.34 1.197-.337 1.196-.336 1.196-.333 1.197-.249.899-.086.297-.346 1.196-.343 1.197-.342 1.196-.34 1.197-.337 1.196v.002l-.352 1.194-.35 1.197-.348 1.196-.346 1.196-.344 1.197-.055.192-.3 1.004-.358 1.197-.354 1.196-.352 1.196-.35 1.197-.08.274-.282.922-.363 1.197-.361 1.196-.359 1.196-.356 1.197-.074.248-.295.948-.37 1.196-.367 1.197-.365 1.196-.363 1.197-.035.113-.342 1.083-.377 1.196-.374 1.197-.372 1.196-.33 1.067-.04.13-.386 1.196-.384 1.196-.38 1.197-.379 1.196-.225.715-.158.481-.392 1.197-.39 1.196-.387 1.197-.385 1.196-.082.255-.316.941-.399 1.197-.396 1.196-.394 1.196-.29.884-.107.313-.408 1.196-.406 1.197-.403 1.196z" clip-path="url(#pb3f2302785)" style="fill:#84d44b"/></g><g id="PathCollection_8"><path d="M37.976 249.418v.477h.08zM395.096 249.895v-.12l-.02.12z" clip-path="url(#pb3f2302785)" style="fill:#d8e219"/></g><g id="matplotlib.axis_1"><g id="xtick_1"><g id="line2d_1"><defs><path id="m667b6dd28d" d="M0 0v3.5" style="stroke:#000;stroke-width:.8"/></defs><use xlink:href="#m667b6dd28d" x="37.976" y="249.895" style="stroke:#000;stroke-width:.8"/></g><g transform="matrix(.13 0 0 -.13 30.768 266.125)" id="text_1"><defs><path id="MyriadPro-Regular-2212" d="M256 1901v-384h3302v384H256z" transform="scale(.01563)"/><path id="MyriadPro-Regular-33" d="M269 211C474 77 883-70 1350-70c999 0 1517 582 1517 1248 0 582-416 966-928 1068v13c512 186 768 551 768 979 0 506-371 992-1190 992-448 0-871-160-1088-320l147-409c179 128 499 275 832 275 518 0 730-294 730-627 0-493-519-704-928-704H896v-423h314c544 0 1068-249 1075-832 6-345-218-806-941-806-390 0-762 160-922 262L269 211z" transform="scale(.01563)"/></defs><use xlink:href="#MyriadPro-Regular-2212"/><use xlink:href="#MyriadPro-Regular-33" x="59.6"/></g></g><g id="xtick_2"><use xlink:href="#m667b6dd28d" x="97.496" y="249.895" style="stroke:#000;stroke-width:.8" id="line2d_2"/><g transform="matrix(.13 0 0 -.13 90.288 266.125)" id="text_2"><defs><path id="MyriadPro-Regular-32" d="M2944 0v467H1075v13l333 307c877 845 1434 1466 1434 2234 0 595-378 1209-1274 1209-480 0-890-179-1178-422l180-397c192 160 505 352 883 352 621 0 825-390 825-813-6-627-486-1164-1548-2176L288 346V0h2656z" transform="scale(.01563)"/></defs><use xlink:href="#MyriadPro-Regular-2212"/><use xlink:href="#MyriadPro-Regular-32" x="59.6"/></g></g><g id="xtick_3"><use xlink:href="#m667b6dd28d" x="157.016" y="249.895" style="stroke:#000;stroke-width:.8" id="line2d_3"/><g transform="matrix(.13 0 0 -.13 149.808 266.125)" id="text_3"><defs><path id="MyriadPro-Regular-31" d="M1510 0h544v4160h-480l-908-486 108-429 724 390h12V0z" transform="scale(.01563)"/></defs><use xlink:href="#MyriadPro-Regular-2212"/><use xlink:href="#MyriadPro-Regular-31" x="59.6"/></g></g><g id="xtick_4"><use xlink:href="#m667b6dd28d" x="216.536" y="249.895" style="stroke:#000;stroke-width:.8" id="line2d_4"/><g transform="matrix(.13 0 0 -.13 213.201 266.125)" id="text_4"><defs><path id="MyriadPro-Regular-30" d="M1677 4230c-845 0-1447-768-1447-2163C243 691 794-70 1606-70c922 0 1447 780 1447 2195 0 1325-499 2105-1376 2105zm-32-435c582 0 845-672 845-1696 0-1062-276-1734-852-1734-512 0-844 614-844 1696 0 1133 358 1734 851 1734z" transform="scale(.01563)"/></defs><use xlink:href="#MyriadPro-Regular-30"/></g></g><g id="xtick_5"><use xlink:href="#m667b6dd28d" x="276.056" y="249.895" style="stroke:#000;stroke-width:.8" id="line2d_5"/><use xlink:href="#MyriadPro-Regular-31" transform="matrix(.13 0 0 -.13 272.721 266.125)" id="text_5"/></g><g id="xtick_6"><use xlink:href="#m667b6dd28d" x="335.576" y="249.895" style="stroke:#000;stroke-width:.8" id="line2d_6"/><use xlink:href="#MyriadPro-Regular-32" transform="matrix(.13 0 0 -.13 332.241 266.125)" id="text_6"/></g><g id="xtick_7"><use xlink:href="#m667b6dd28d" x="395.096" y="249.895" style="stroke:#000;stroke-width:.8" id="line2d_7"/><use xlink:href="#MyriadPro-Regular-33" transform="matrix(.13 0 0 -.13 391.761 266.125)" id="text_7"/></g></g><g id="matplotlib.axis_2"><g id="ytick_1"><g id="line2d_8"><defs><path id="m8e6fcefa9d" d="M0 0h-3.5" style="stroke:#000;stroke-width:.8"/></defs><use xlink:href="#m8e6fcefa9d" x="37.976" y="249.895" style="stroke:#000;stroke-width:.8"/></g><g transform="matrix(.13 0 0 -.13 7.2 254.51)" id="text_8"><defs><path id="MyriadPro-Regular-2e" d="M710-70c237 0 384 172 384 403 0 237-153 403-377 403S333 570 333 333c0-231 153-403 371-403h6z" transform="scale(.01563)"/></defs><use xlink:href="#MyriadPro-Regular-2212"/><use xlink:href="#MyriadPro-Regular-31" x="59.6"/><use xlink:href="#MyriadPro-Regular-2e" x="110.9"/><use xlink:href="#MyriadPro-Regular-30" x="131.6"/></g></g><g id="ytick_2"><use xlink:href="#m8e6fcefa9d" x="37.976" y="220.135" style="stroke:#000;stroke-width:.8" id="line2d_9"/><g transform="matrix(.13 0 0 -.13 7.2 224.75)" id="text_9"><defs><path id="MyriadPro-Regular-35" d="M2771 4160H781L512 2163c154 19 339 45 576 45 832 0 1190-384 1197-922 0-556-455-902-986-902-377 0-717 128-889 230L269 186C467 58 851-70 1306-70c902 0 1548 608 1548 1420 0 525-268 884-595 1069-256 154-576 224-896 224-153 0-243-13-339-25l160 1068h1587v474z" transform="scale(.01563)"/></defs><use xlink:href="#MyriadPro-Regular-2212"/><use xlink:href="#MyriadPro-Regular-30" x="59.6"/><use xlink:href="#MyriadPro-Regular-2e" x="110.9"/><use xlink:href="#MyriadPro-Regular-35" x="131.6"/></g></g><g id="ytick_3"><use xlink:href="#m8e6fcefa9d" x="37.976" y="190.375" style="stroke:#000;stroke-width:.8" id="line2d_10"/><g transform="matrix(.13 0 0 -.13 14.947 194.99)" id="text_10"><use xlink:href="#MyriadPro-Regular-30"/><use xlink:href="#MyriadPro-Regular-2e" x="51.3"/><use xlink:href="#MyriadPro-Regular-30" x="72"/></g></g><g id="ytick_4"><use xlink:href="#m8e6fcefa9d" x="37.976" y="160.615" style="stroke:#000;stroke-width:.8" id="line2d_11"/><g transform="matrix(.13 0 0 -.13 14.947 165.23)" id="text_11"><use xlink:href="#MyriadPro-Regular-30"/><use xlink:href="#MyriadPro-Regular-2e" x="51.3"/><use xlink:href="#MyriadPro-Regular-35" x="72"/></g></g><g id="ytick_5"><use xlink:href="#m8e6fcefa9d" x="37.976" y="130.855" style="stroke:#000;stroke-width:.8" id="line2d_12"/><g transform="matrix(.13 0 0 -.13 14.947 135.47)" id="text_12"><use xlink:href="#MyriadPro-Regular-31"/><use xlink:href="#MyriadPro-Regular-2e" x="51.3"/><use xlink:href="#MyriadPro-Regular-30" x="72"/></g></g><g id="ytick_6"><use xlink:href="#m8e6fcefa9d" x="37.976" y="101.095" style="stroke:#000;stroke-width:.8" id="line2d_13"/><g transform="matrix(.13 0 0 -.13 14.947 105.71)" id="text_13"><use xlink:href="#MyriadPro-Regular-31"/><use xlink:href="#MyriadPro-Regular-2e" x="51.3"/><use xlink:href="#MyriadPro-Regular-35" x="72"/></g></g><g id="ytick_7"><use xlink:href="#m8e6fcefa9d" x="37.976" y="71.335" style="stroke:#000;stroke-width:.8" id="line2d_14"/><g transform="matrix(.13 0 0 -.13 14.947 75.95)" id="text_14"><use xlink:href="#MyriadPro-Regular-32"/><use xlink:href="#MyriadPro-Regular-2e" x="51.3"/><use xlink:href="#MyriadPro-Regular-30" x="72"/></g></g><g id="ytick_8"><use xlink:href="#m8e6fcefa9d" x="37.976" y="41.575" style="stroke:#000;stroke-width:.8" id="line2d_15"/><g transform="matrix(.13 0 0 -.13 14.947 46.19)" id="text_15"><use xlink:href="#MyriadPro-Regular-32"/><use xlink:href="#MyriadPro-Regular-2e" x="51.3"/><use xlink:href="#MyriadPro-Regular-35" x="72"/></g></g><g id="ytick_9"><use xlink:href="#m8e6fcefa9d" x="37.976" y="11.815" style="stroke:#000;stroke-width:.8" id="line2d_16"/><g transform="matrix(.13 0 0 -.13 14.947 16.43)" id="text_16"><use xlink:href="#MyriadPro-Regular-33"/><use xlink:href="#MyriadPro-Regular-2e" x="51.3"/><use xlink:href="#MyriadPro-Regular-30" x="72"/></g></g></g><path d="M37.976 249.895V11.815" style="fill:none;stroke:#000;stroke-width:.8;stroke-linejoin:miter;stroke-linecap:square" id="patch_3"/><path d="M395.096 249.895V11.815" style="fill:none;stroke:#000;stroke-width:.8;stroke-linejoin:miter;stroke-linecap:square" id="patch_4"/><path d="M37.976 249.895h357.12" style="fill:none;stroke:#000;stroke-width:.8;stroke-linejoin:miter;stroke-linecap:square" id="patch_5"/><path d="M37.976 11.815h357.12" style="fill:none;stroke:#000;stroke-width:.8;stroke-linejoin:miter;stroke-linecap:square" id="patch_6"/></g></g><defs><clipPath id="pb3f2302785"><path d="M37.976 11.815h357.12v238.08H37.976z"/></clipPath></defs></svg>