<svg width="576.597" height="274.138" viewBox="0 0 152.558 72.532" xmlns="http://www.w3.org/2000/svg"><defs><path id="a" d="M65.374 104.445h618.099v350.207H65.374z"/></defs><path style="fill:#24283b;fill-opacity:1;stroke-width:.79375;stroke-linejoin:bevel" d="M-30.586-35.454h214.682v136.323H-30.586z"/><g aria-label="mplx" transform="matrix(.26458 0 0 .26458 6.227 -25.511)" style="font-style:italic;font-weight:700;font-size:192px;line-height:1.25;font-family:'Cascadia Code';-inkscape-font-specification:'Cascadia Code Bold Italic';letter-spacing:0;white-space:pre;shape-inside:url(#a);fill:#c0caf5"><path d="M200.281 278.535q-.187.938-.937 1.688-.656.656-2.156 1.125-1.5.468-3.844.656-2.25.281-5.719.281-3.375 0-5.625-.281-2.25-.188-3.469-.656-1.219-.47-1.687-1.125-.375-.75-.094-1.688l10.031-50.156q.375-2.156.657-4.219.28-2.156.28-4.312 0-4.407-1.687-7.125-1.593-2.72-5.812-2.72-3.75 0-7.781 2.438-4.032 2.438-7.782 6.657-3.656 4.125-6.562 9.75-2.813 5.53-4.031 11.812l-7.594 37.875q-.188.938-.938 1.688-.656.656-2.156 1.125-1.5.468-3.844.656-2.25.281-5.718.281-3.375 0-5.625-.281-2.157-.188-3.375-.656-1.22-.47-1.688-1.125-.375-.75-.187-1.688l9.937-50.156q.563-2.156.75-4.406.281-2.344.281-4.5 0-4.125-1.687-6.75-1.688-2.72-5.813-2.72-3.75 0-7.781 2.438t-7.781 6.657q-3.656 4.125-6.563 9.75-2.812 5.53-4.031 11.812l-7.594 37.875q-.187.938-.937 1.688-.656.656-2.156 1.125-1.407.468-3.75.656-2.344.281-5.72.281-3.468 0-5.718-.281-2.156-.188-3.469-.656-1.218-.47-1.593-1.125-.375-.75-.188-1.688l16.781-83.719q.188-.937.75-1.593.657-.75 1.875-1.125 1.313-.47 3.282-.657 2.062-.28 4.875-.28 2.906 0 4.687.28 1.875.188 2.906.657 1.032.375 1.313 1.125.375.656.187 1.593l-2.718 13.782q1.968-3.282 5.25-6.657 3.28-3.468 7.406-6.187 4.219-2.719 9.094-4.406 4.968-1.782 10.218-1.782 5.438 0 9.375 1.5 4.032 1.407 6.563 4.032 2.625 2.53 3.937 6 1.407 3.468 1.782 7.5 2.156-3.375 5.437-6.75 3.375-3.375 7.5-6.094 4.219-2.719 9.094-4.406 4.875-1.782 10.031-1.782 6.563 0 10.969 1.875 4.5 1.782 7.219 5.063 2.718 3.187 3.937 7.594 1.219 4.312 1.219 9.375 0 3.28-.375 6.656-.375 3.281-1.125 6.75zM315.688 221.441q0 6.094-1.125 13.125-1.125 7.032-3.47 13.97-2.343 6.937-6 13.405-3.656 6.375-8.812 11.25-5.062 4.875-11.719 7.782-6.562 2.906-14.812 2.906-3.75 0-7.031-.75-3.281-.75-6.094-2.063-2.719-1.406-4.969-3.187-2.25-1.875-3.937-3.938l-7.406 37.782q-.188.937-.938 1.687-.656.75-2.156 1.219-1.406.562-3.75.844-2.344.28-5.813.28t-5.625-.28q-2.156-.282-3.375-.844-1.312-.469-1.687-1.219-.375-.75-.188-1.687l23.438-116.907q.375-1.968 2.906-2.812 2.531-.844 8.344-.844 2.906 0 4.687.281 1.875.188 2.906.657 1.125.375 1.5 1.125.375.656.188 1.593l-2.625 13.594q1.406-3.094 4.406-6.375 3.094-3.375 7.313-6.094 4.312-2.812 9.375-4.593 5.156-1.782 10.594-1.782 7.218 0 12.093 2.532 4.969 2.437 7.969 6.75 3.094 4.312 4.406 10.125 1.406 5.812 1.406 12.468zm-24.282 2.063q0-3.188-.562-5.813-.469-2.625-1.688-4.406-1.125-1.875-3-2.812-1.781-.938-4.406-.938-4.219 0-8.531 2.531-4.219 2.438-7.969 6.75-3.75 4.22-6.656 9.938-2.906 5.625-4.125 12.094l-2.625 12.75q3.281 5.156 7.219 7.78 4.03 2.532 9.28 2.532 3.844 0 7.032-1.875 3.281-1.875 5.813-4.969 2.625-3.187 4.5-7.312 1.968-4.125 3.187-8.625 1.313-4.5 1.875-9 .656-4.594.656-8.625zM348.313 278.535q-.188.938-.938 1.688-.656.656-2.063 1.125-1.406.468-3.75.656-2.343.281-5.718.281-3.563 0-5.813-.281-2.156-.188-3.375-.656-1.219-.47-1.687-1.125-.375-.75-.188-1.688l24.656-123.281q.188-.938.844-1.688.656-.75 2.156-1.218 1.5-.563 3.75-.844 2.344-.281 5.813-.281t5.625.28q2.25.282 3.469.845 1.219.468 1.594 1.218t.187 1.688z" style="font-family:Calibri;-inkscape-font-specification:'Calibri Bold Italic'"/><path d="m430.063 235.223 15 41.625q.468 1.593.187 2.625-.281 1.03-1.781 1.687-1.406.656-4.125.844-2.719.281-7.031.281-3.938 0-6.188-.187-2.25-.188-3.469-.563-1.219-.375-1.687-1.031-.375-.656-.563-1.5l-10.125-29.531-21.187 29.625q-.563.843-1.313 1.5-.656.562-2.344.937-1.593.375-4.312.563-2.625.187-7.125.187-4.031 0-6.469-.281-2.437-.188-3.562-.75-1.125-.656-.938-1.594.094-1.031 1.125-2.625l31.781-41.625-13.968-38.625q-.563-1.687-.375-2.719.187-1.125 1.406-1.78 1.313-.657 3.938-.845 2.718-.28 7.125-.28 3.843 0 6 .187 2.25.093 3.375.375 1.218.28 1.593.937.469.563.75 1.5l9.75 27.938 20.156-27.938q.563-.75 1.22-1.312.656-.563 2.062-.938 1.406-.375 3.656-.562 2.25-.188 6.094-.188 4.312 0 6.844.188 2.625.187 3.843.75 1.219.562 1.031 1.593-.093.938-1.312 2.625z" style="fill:#ff9e64"/></g></svg>