<svg xmlns:xlink="http://www.w3.org/1999/xlink" width="1638.4" height="307.2" viewBox="0 0 1228.8 230.4" xmlns="http://www.w3.org/2000/svg"><defs><style>*{stroke-linejoin:round;stroke-linecap:butt}</style></defs><g id="figure_1"><path d="M0 230.4h1228.8V0H0z" style="fill:#fff" id="patch_1"/><g id="axes_1"><path d="M35.53 180.88h199.934V58.56H35.53z" style="fill:#fff" id="patch_2"/><g id="matplotlib.axis_1"><g id="xtick_1"><g id="line2d_1"><defs><path id="m39fffa7499" d="M0 0v3.5" style="stroke:#000;stroke-width:.8"/></defs><use xlink:href="#m39fffa7499" x="65.165" y="180.88" style="stroke:#000;stroke-width:.8"/></g><g transform="matrix(.13 0 0 -.13 57.957 197.11)" id="text_1"><defs><path id="MyriadPro-Regular-2212" d="M256 1901v-384h3302v384H256z" transform="scale(.01563)"/><path id="MyriadPro-Regular-32" d="M2944 0v467H1075v13l333 307c877 845 1434 1466 1434 2234 0 595-378 1209-1274 1209-480 0-890-179-1178-422l180-397c192 160 505 352 883 352 621 0 825-390 825-813-6-627-486-1164-1548-2176L288 346V0h2656z" transform="scale(.01563)"/></defs><use xlink:href="#MyriadPro-Regular-2212"/><use xlink:href="#MyriadPro-Regular-32" x="59.6"/></g></g><g id="xtick_2"><use xlink:href="#m39fffa7499" x="118.833" y="180.88" style="stroke:#000;stroke-width:.8" id="line2d_2"/><g transform="matrix(.13 0 0 -.13 115.498 197.11)" id="text_2"><defs><path id="MyriadPro-Regular-30" d="M1677 4230c-845 0-1447-768-1447-2163C243 691 794-70 1606-70c922 0 1447 780 1447 2195 0 1325-499 2105-1376 2105zm-32-435c582 0 845-672 845-1696 0-1062-276-1734-852-1734-512 0-844 614-844 1696 0 1133 358 1734 851 1734z" transform="scale(.01563)"/></defs><use xlink:href="#MyriadPro-Regular-30"/></g></g><g id="xtick_3"><use xlink:href="#m39fffa7499" x="172.5" y="180.88" style="stroke:#000;stroke-width:.8" id="line2d_3"/><use xlink:href="#MyriadPro-Regular-32" transform="matrix(.13 0 0 -.13 169.166 197.11)" id="text_3"/></g><g id="xtick_4"><use xlink:href="#m39fffa7499" x="226.168" y="180.88" style="stroke:#000;stroke-width:.8" id="line2d_4"/><g transform="matrix(.13 0 0 -.13 222.834 197.11)" id="text_4"><defs><path id="MyriadPro-Regular-34" d="M2560 0v1133h582v441h-582v2586h-608L96 1504v-371h1933V0h531zM666 1574v13l1017 1415c115 192 218 371 346 614h19c-13-218-19-435-19-653V1574H666z" transform="scale(.01563)"/></defs><use xlink:href="#MyriadPro-Regular-34"/></g></g><g transform="matrix(.13 0 0 -.13 116.635 212.914)" id="text_5"><defs><path id="MyriadPro-Regular-58" d="M3494 0 2150 2214l1312 2100h-640l-588-1012c-160-275-269-473-391-729h-19c-115 230-237 448-397 729L858 4314H211l1267-2132L160 0h640l518 947c224 378 346 608 468 858h12c135-250 276-487 500-851L2848 0h646z" transform="scale(.01563)"/><path id="MyriadPro-Regular-2d" d="M192 1939v-416h1581v416H192z" transform="scale(.01563)"/><path id="MyriadPro-Regular-6c" d="M467 0h563v4544H467V0z" transform="scale(.01563)"/><path id="MyriadPro-Regular-61" d="M2643 1901c0 621-230 1267-1177 1267-391 0-762-109-1018-275l128-371c218 140 518 230 806 230 634 0 704-461 704-717v-64C890 1978 224 1568 224 819c0-448 320-889 947-889 442 0 775 217 947 460h20l44-390h512c-38 211-51 474-51 742v1159zm-544-858c0-57-13-121-32-179-89-262-345-518-749-518-288 0-531 172-531 537 0 602 698 711 1312 698v-538z" transform="scale(.01563)"/><path id="MyriadPro-Regular-62" d="M467 800c0-275-13-589-25-800h486l26 512h19c230-410 589-582 1037-582 691 0 1388 550 1388 1657 7 941-537 1581-1305 1581-499 0-858-224-1056-570h-13v1946H467V800zm557 998c0 90 19 167 32 231 115 429 474 691 858 691 601 0 921-531 921-1152 0-710-352-1190-941-1190-409 0-736 268-844 659-13 64-26 134-26 205v556z" transform="scale(.01563)"/><path id="MyriadPro-Regular-65" d="M2957 1446c6 58 19 148 19 263 0 569-269 1459-1280 1459-902 0-1453-736-1453-1670C243 563 813-70 1766-70c493 0 832 108 1031 198l-96 403c-211-89-455-160-858-160-563 0-1049 314-1062 1075h2176zM787 1850c45 390 295 915 864 915 634 0 787-557 781-915H787z" transform="scale(.01563)"/></defs><use xlink:href="#MyriadPro-Regular-58"/><use xlink:href="#MyriadPro-Regular-2d" x="57.1"/><use xlink:href="#MyriadPro-Regular-6c" x="87.8"/><use xlink:href="#MyriadPro-Regular-61" x="111.4"/><use xlink:href="#MyriadPro-Regular-62" x="159.6"/><use xlink:href="#MyriadPro-Regular-65" x="216.5"/><use xlink:href="#MyriadPro-Regular-6c" x="266.6"/></g></g><g id="matplotlib.axis_2"><g id="ytick_1"><g id="line2d_5"><defs><path id="m8f22ccc1be" d="M0 0h-3.5" style="stroke:#000;stroke-width:.8"/></defs><use xlink:href="#m8f22ccc1be" x="35.53" y="173.709" style="stroke:#000;stroke-width:.8"/></g><g transform="matrix(.13 0 0 -.13 14.114 178.324)" id="text_6"><use xlink:href="#MyriadPro-Regular-2212"/><use xlink:href="#MyriadPro-Regular-32" x="59.6"/></g></g><g id="ytick_2"><use xlink:href="#m8f22ccc1be" x="35.53" y="131.813" style="stroke:#000;stroke-width:.8" id="line2d_6"/><use xlink:href="#MyriadPro-Regular-30" transform="matrix(.13 0 0 -.13 21.861 136.428)" id="text_7"/></g><g id="ytick_3"><use xlink:href="#m8f22ccc1be" x="35.53" y="89.916" style="stroke:#000;stroke-width:.8" id="line2d_7"/><use xlink:href="#MyriadPro-Regular-32" transform="matrix(.13 0 0 -.13 21.861 94.531)" id="text_8"/></g></g><g id="line2d_8"><defs><path id="m81a82a5303" d="M0 3a3 3 0 1 0 0-6 3 3 0 0 0 0 6z" style="stroke:#1f77b4"/></defs><g clip-path="url(#p70ce8b34fb)"><use xlink:href="#m81a82a5303" x="75.285" y="150.108" style="fill:#1f77b4;stroke:#1f77b4"/><use xlink:href="#m81a82a5303" x="82.045" y="175.32" style="fill:#1f77b4;stroke:#1f77b4"/><use xlink:href="#m81a82a5303" x="108.739" y="150.863" style="fill:#1f77b4;stroke:#1f77b4"/><use xlink:href="#m81a82a5303" x="118.89" y="135.18" style="fill:#1f77b4;stroke:#1f77b4"/><use xlink:href="#m81a82a5303" x="103.625" y="138.356" style="fill:#1f77b4;stroke:#1f77b4"/><use xlink:href="#m81a82a5303" x="93.884" y="127.657" style="fill:#1f77b4;stroke:#1f77b4"/><use xlink:href="#m81a82a5303" x="107.399" y="117.193" style="fill:#1f77b4;stroke:#1f77b4"/><use xlink:href="#m81a82a5303" x="118.372" y="139.564" style="fill:#1f77b4;stroke:#1f77b4"/><use xlink:href="#m81a82a5303" x="112.369" y="159.875" style="fill:#1f77b4;stroke:#1f77b4"/><use xlink:href="#m81a82a5303" x="83.557" y="140.007" style="fill:#1f77b4;stroke:#1f77b4"/><use xlink:href="#m81a82a5303" x="139.146" y="155.723" style="fill:#1f77b4;stroke:#1f77b4"/><use xlink:href="#m81a82a5303" x="133.461" y="132.609" style="fill:#1f77b4;stroke:#1f77b4"/><use xlink:href="#m81a82a5303" x="120.219" y="150.913" style="fill:#1f77b4;stroke:#1f77b4"/><use xlink:href="#m81a82a5303" x="103.341" y="132.295" style="fill:#1f77b4;stroke:#1f77b4"/><use xlink:href="#m81a82a5303" x="127.09" y="148.627" style="fill:#1f77b4;stroke:#1f77b4"/><use xlink:href="#m81a82a5303" x="137.84" y="124.265" style="fill:#1f77b4;stroke:#1f77b4"/><use xlink:href="#m81a82a5303" x="136.787" y="140.882" style="fill:#1f77b4;stroke:#1f77b4"/><use xlink:href="#m81a82a5303" x="91.859" y="152.939" style="fill:#1f77b4;stroke:#1f77b4"/><use xlink:href="#m81a82a5303" x="73.451" y="146.273" style="fill:#1f77b4;stroke:#1f77b4"/><use xlink:href="#m81a82a5303" x="82.847" y="126.823" style="fill:#1f77b4;stroke:#1f77b4"/><use xlink:href="#m81a82a5303" x="132.345" y="159.68" style="fill:#1f77b4;stroke:#1f77b4"/><use xlink:href="#m81a82a5303" x="108.887" y="131.55" style="fill:#1f77b4;stroke:#1f77b4"/><use xlink:href="#m81a82a5303" x="113.529" y="122.959" style="fill:#1f77b4;stroke:#1f77b4"/><use xlink:href="#m81a82a5303" x="111.529" y="115.367" style="fill:#1f77b4;stroke:#1f77b4"/><use xlink:href="#m81a82a5303" x="98.75" y="143.979" style="fill:#1f77b4;stroke:#1f77b4"/><use xlink:href="#m81a82a5303" x="122.573" y="144.166" style="fill:#1f77b4;stroke:#1f77b4"/><use xlink:href="#m81a82a5303" x="99.438" y="148.818" style="fill:#1f77b4;stroke:#1f77b4"/><use xlink:href="#m81a82a5303" x="89.488" y="140.841" style="fill:#1f77b4;stroke:#1f77b4"/><use xlink:href="#m81a82a5303" x="108.055" y="127.578" style="fill:#1f77b4;stroke:#1f77b4"/><use xlink:href="#m81a82a5303" x="118.399" y="144.178" style="fill:#1f77b4;stroke:#1f77b4"/><use xlink:href="#m81a82a5303" x="150.55" y="142.345" style="fill:#1f77b4;stroke:#1f77b4"/><use xlink:href="#m81a82a5303" x="101.117" y="136.16" style="fill:#1f77b4;stroke:#1f77b4"/><use xlink:href="#m81a82a5303" x="70.415" y="133.207" style="fill:#1f77b4;stroke:#1f77b4"/><use xlink:href="#m81a82a5303" x="91.118" y="152.449" style="fill:#1f77b4;stroke:#1f77b4"/><use xlink:href="#m81a82a5303" x="123.886" y="132.132" style="fill:#1f77b4;stroke:#1f77b4"/><use xlink:href="#m81a82a5303" x="94.975" y="139.188" style="fill:#1f77b4;stroke:#1f77b4"/><use xlink:href="#m81a82a5303" x="87.523" y="168.367" style="fill:#1f77b4;stroke:#1f77b4"/><use xlink:href="#m81a82a5303" x="92.025" y="129.97" style="fill:#1f77b4;stroke:#1f77b4"/><use xlink:href="#m81a82a5303" x="119.195" y="158.718" style="fill:#1f77b4;stroke:#1f77b4"/><use xlink:href="#m81a82a5303" x="82.017" y="143.302" style="fill:#1f77b4;stroke:#1f77b4"/><use xlink:href="#m81a82a5303" x="107.337" y="137.115" style="fill:#1f77b4;stroke:#1f77b4"/><use xlink:href="#m81a82a5303" x="122.161" y="153.764" style="fill:#1f77b4;stroke:#1f77b4"/><use xlink:href="#m81a82a5303" x="138.793" y="101.278" style="fill:#1f77b4;stroke:#1f77b4"/><use xlink:href="#m81a82a5303" x="100.391" y="122.136" style="fill:#1f77b4;stroke:#1f77b4"/><use xlink:href="#m81a82a5303" x="94.349" y="105.445" style="fill:#1f77b4;stroke:#1f77b4"/><use xlink:href="#m81a82a5303" x="89.775" y="147.638" style="fill:#1f77b4;stroke:#1f77b4"/><use xlink:href="#m81a82a5303" x="77.257" y="143.795" style="fill:#1f77b4;stroke:#1f77b4"/><use xlink:href="#m81a82a5303" x="153.74" y="150.116" style="fill:#1f77b4;stroke:#1f77b4"/><use xlink:href="#m81a82a5303" x="111.722" y="124.839" style="fill:#1f77b4;stroke:#1f77b4"/><use xlink:href="#m81a82a5303" x="109.57" y="141.473" style="fill:#1f77b4;stroke:#1f77b4"/><use xlink:href="#m81a82a5303" x="48.375" y="149.465" style="fill:#1f77b4;stroke:#1f77b4"/><use xlink:href="#m81a82a5303" x="121.065" y="141.008" style="fill:#1f77b4;stroke:#1f77b4"/><use xlink:href="#m81a82a5303" x="61.825" y="142.099" style="fill:#1f77b4;stroke:#1f77b4"/><use xlink:href="#m81a82a5303" x="99.571" y="154.24" style="fill:#1f77b4;stroke:#1f77b4"/><use xlink:href="#m81a82a5303" x="77.788" y="130.169" style="fill:#1f77b4;stroke:#1f77b4"/><use xlink:href="#m81a82a5303" x="102.305" y="109.785" style="fill:#1f77b4;stroke:#1f77b4"/><use xlink:href="#m81a82a5303" x="131.56" y="153.571" style="fill:#1f77b4;stroke:#1f77b4"/><use xlink:href="#m81a82a5303" x="109.165" y="148.239" style="fill:#1f77b4;stroke:#1f77b4"/><use xlink:href="#m81a82a5303" x="98.484" y="144.201" style="fill:#1f77b4;stroke:#1f77b4"/><use xlink:href="#m81a82a5303" x="87.771" y="159.507" style="fill:#1f77b4;stroke:#1f77b4"/><use xlink:href="#m81a82a5303" x="94.872" y="144.731" style="fill:#1f77b4;stroke:#1f77b4"/><use xlink:href="#m81a82a5303" x="129.855" y="144.164" style="fill:#1f77b4;stroke:#1f77b4"/><use xlink:href="#m81a82a5303" x="116.278" y="168.996" style="fill:#1f77b4;stroke:#1f77b4"/><use xlink:href="#m81a82a5303" x="89.608" y="159.891" style="fill:#1f77b4;stroke:#1f77b4"/><use xlink:href="#m81a82a5303" x="86.062" y="123.078" style="fill:#1f77b4;stroke:#1f77b4"/><use xlink:href="#m81a82a5303" x="106.812" y="146.645" style="fill:#1f77b4;stroke:#1f77b4"/><use xlink:href="#m81a82a5303" x="128.013" y="157.097" style="fill:#1f77b4;stroke:#1f77b4"/><use xlink:href="#m81a82a5303" x="79.106" y="163.805" style="fill:#1f77b4;stroke:#1f77b4"/><use xlink:href="#m81a82a5303" x="110.22" y="138.131" style="fill:#1f77b4;stroke:#1f77b4"/><use xlink:href="#m81a82a5303" x="100.097" y="114.837" style="fill:#1f77b4;stroke:#1f77b4"/><use xlink:href="#m81a82a5303" x="109.757" y="158.508" style="fill:#1f77b4;stroke:#1f77b4"/><use xlink:href="#m81a82a5303" x="131.156" y="160.131" style="fill:#1f77b4;stroke:#1f77b4"/><use xlink:href="#m81a82a5303" x="78.771" y="137.548" style="fill:#1f77b4;stroke:#1f77b4"/><use xlink:href="#m81a82a5303" x="141.413" y="158.889" style="fill:#1f77b4;stroke:#1f77b4"/><use xlink:href="#m81a82a5303" x="96.186" y="152.221" style="fill:#1f77b4;stroke:#1f77b4"/><use xlink:href="#m81a82a5303" x="83.569" y="142.749" style="fill:#1f77b4;stroke:#1f77b4"/><use xlink:href="#m81a82a5303" x="100.804" y="109.413" style="fill:#1f77b4;stroke:#1f77b4"/><use xlink:href="#m81a82a5303" x="122.004" y="115.258" style="fill:#1f77b4;stroke:#1f77b4"/><use xlink:href="#m81a82a5303" x="64.369" y="156.236" style="fill:#1f77b4;stroke:#1f77b4"/><use xlink:href="#m81a82a5303" x="88.361" y="148.079" style="fill:#1f77b4;stroke:#1f77b4"/><use xlink:href="#m81a82a5303" x="116.231" y="128.811" style="fill:#1f77b4;stroke:#1f77b4"/><use xlink:href="#m81a82a5303" x="92.396" y="155.6" style="fill:#1f77b4;stroke:#1f77b4"/><use xlink:href="#m81a82a5303" x="121.166" y="127.227" style="fill:#1f77b4;stroke:#1f77b4"/><use xlink:href="#m81a82a5303" x="93.079" y="133.075" style="fill:#1f77b4;stroke:#1f77b4"/><use xlink:href="#m81a82a5303" x="91.655" y="128.533" style="fill:#1f77b4;stroke:#1f77b4"/><use xlink:href="#m81a82a5303" x="91.739" y="131.715" style="fill:#1f77b4;stroke:#1f77b4"/><use xlink:href="#m81a82a5303" x="110.293" y="126.897" style="fill:#1f77b4;stroke:#1f77b4"/><use xlink:href="#m81a82a5303" x="117.414" y="126.707" style="fill:#1f77b4;stroke:#1f77b4"/><use xlink:href="#m81a82a5303" x="107.76" y="126.609" style="fill:#1f77b4;stroke:#1f77b4"/><use xlink:href="#m81a82a5303" x="99.342" y="157.644" style="fill:#1f77b4;stroke:#1f77b4"/><use xlink:href="#m81a82a5303" x="96.901" y="153.881" style="fill:#1f77b4;stroke:#1f77b4"/><use xlink:href="#m81a82a5303" x="88.615" y="145.743" style="fill:#1f77b4;stroke:#1f77b4"/><use xlink:href="#m81a82a5303" x="94.945" y="152.372" style="fill:#1f77b4;stroke:#1f77b4"/><use xlink:href="#m81a82a5303" x="117.502" y="157.104" style="fill:#1f77b4;stroke:#1f77b4"/><use xlink:href="#m81a82a5303" x="97.803" y="172.306" style="fill:#1f77b4;stroke:#1f77b4"/><use xlink:href="#m81a82a5303" x="125.262" y="137.364" style="fill:#1f77b4;stroke:#1f77b4"/><use xlink:href="#m81a82a5303" x="117.191" y="150.316" style="fill:#1f77b4;stroke:#1f77b4"/><use xlink:href="#m81a82a5303" x="106.012" y="135.393" style="fill:#1f77b4;stroke:#1f77b4"/><use xlink:href="#m81a82a5303" x="121.487" y="152.419" style="fill:#1f77b4;stroke:#1f77b4"/><use xlink:href="#m81a82a5303" x="114.093" y="152.291" style="fill:#1f77b4;stroke:#1f77b4"/></g></g><g id="line2d_9"><defs><path id="m1aac14e36f" d="M-3 3h6v-6h-6z" style="stroke:#aec7e8;stroke-linejoin:miter"/></defs><g clip-path="url(#p70ce8b34fb)"><use xlink:href="#m1aac14e36f" x="124.7" y="115.678" style="fill:#aec7e8;stroke:#aec7e8;stroke-linejoin:miter"/><use xlink:href="#m1aac14e36f" x="151.147" y="141.04" style="fill:#aec7e8;stroke:#aec7e8;stroke-linejoin:miter"/><use xlink:href="#m1aac14e36f" x="158.564" y="125.893" style="fill:#aec7e8;stroke:#aec7e8;stroke-linejoin:miter"/><use xlink:href="#m1aac14e36f" x="44.618" y="104.701" style="fill:#aec7e8;stroke:#aec7e8;stroke-linejoin:miter"/><use xlink:href="#m1aac14e36f" x="176.53" y="118.863" style="fill:#aec7e8;stroke:#aec7e8;stroke-linejoin:miter"/><use xlink:href="#m1aac14e36f" x="82.907" y="115.72" style="fill:#aec7e8;stroke:#aec7e8;stroke-linejoin:miter"/><use xlink:href="#m1aac14e36f" x="124.864" y="71.833" style="fill:#aec7e8;stroke:#aec7e8;stroke-linejoin:miter"/><use xlink:href="#m1aac14e36f" x="174.332" y="125.1" style="fill:#aec7e8;stroke:#aec7e8;stroke-linejoin:miter"/><use xlink:href="#m1aac14e36f" x="133.716" y="92.564" style="fill:#aec7e8;stroke:#aec7e8;stroke-linejoin:miter"/><use xlink:href="#m1aac14e36f" x="110.557" y="119.887" style="fill:#aec7e8;stroke:#aec7e8;stroke-linejoin:miter"/><use xlink:href="#m1aac14e36f" x="168.392" y="95.877" style="fill:#aec7e8;stroke:#aec7e8;stroke-linejoin:miter"/><use xlink:href="#m1aac14e36f" x="141.877" y="93.012" style="fill:#aec7e8;stroke:#aec7e8;stroke-linejoin:miter"/><use xlink:href="#m1aac14e36f" x="140.183" y="90.527" style="fill:#aec7e8;stroke:#aec7e8;stroke-linejoin:miter"/><use xlink:href="#m1aac14e36f" x="188.244" y="117.373" style="fill:#aec7e8;stroke:#aec7e8;stroke-linejoin:miter"/><use xlink:href="#m1aac14e36f" x="145.448" y="85.519" style="fill:#aec7e8;stroke:#aec7e8;stroke-linejoin:miter"/><use xlink:href="#m1aac14e36f" x="173.413" y="122.784" style="fill:#aec7e8;stroke:#aec7e8;stroke-linejoin:miter"/><use xlink:href="#m1aac14e36f" x="126.612" y="112.114" style="fill:#aec7e8;stroke:#aec7e8;stroke-linejoin:miter"/><use xlink:href="#m1aac14e36f" x="144.837" y="65.703" style="fill:#aec7e8;stroke:#aec7e8;stroke-linejoin:miter"/><use xlink:href="#m1aac14e36f" x="141.511" y="88.989" style="fill:#aec7e8;stroke:#aec7e8;stroke-linejoin:miter"/><use xlink:href="#m1aac14e36f" x="100.025" y="139.942" style="fill:#aec7e8;stroke:#aec7e8;stroke-linejoin:miter"/><use xlink:href="#m1aac14e36f" x="147.569" y="112.997" style="fill:#aec7e8;stroke:#aec7e8;stroke-linejoin:miter"/><use xlink:href="#m1aac14e36f" x="147.839" y="116.173" style="fill:#aec7e8;stroke:#aec7e8;stroke-linejoin:miter"/><use xlink:href="#m1aac14e36f" x="129.926" y="133.379" style="fill:#aec7e8;stroke:#aec7e8;stroke-linejoin:miter"/><use xlink:href="#m1aac14e36f" x="161.592" y="64.537" style="fill:#aec7e8;stroke:#aec7e8;stroke-linejoin:miter"/><use xlink:href="#m1aac14e36f" x="154.035" y="118.038" style="fill:#aec7e8;stroke:#aec7e8;stroke-linejoin:miter"/><use xlink:href="#m1aac14e36f" x="160.736" y="132.789" style="fill:#aec7e8;stroke:#aec7e8;stroke-linejoin:miter"/><use xlink:href="#m1aac14e36f" x="164.978" y="120.728" style="fill:#aec7e8;stroke:#aec7e8;stroke-linejoin:miter"/><use xlink:href="#m1aac14e36f" x="160.59" y="115.799" style="fill:#aec7e8;stroke:#aec7e8;stroke-linejoin:miter"/><use xlink:href="#m1aac14e36f" x="194.652" y="149.839" style="fill:#aec7e8;stroke:#aec7e8;stroke-linejoin:miter"/><use xlink:href="#m1aac14e36f" x="155.568" y="102.921" style="fill:#aec7e8;stroke:#aec7e8;stroke-linejoin:miter"/><use xlink:href="#m1aac14e36f" x="183.583" y="116.354" style="fill:#aec7e8;stroke:#aec7e8;stroke-linejoin:miter"/><use xlink:href="#m1aac14e36f" x="124.386" y="121.531" style="fill:#aec7e8;stroke:#aec7e8;stroke-linejoin:miter"/><use xlink:href="#m1aac14e36f" x="162.668" y="90.383" style="fill:#aec7e8;stroke:#aec7e8;stroke-linejoin:miter"/><use xlink:href="#m1aac14e36f" x="133.116" y="113.407" style="fill:#aec7e8;stroke:#aec7e8;stroke-linejoin:miter"/><use xlink:href="#m1aac14e36f" x="159.434" y="97.855" style="fill:#aec7e8;stroke:#aec7e8;stroke-linejoin:miter"/><use xlink:href="#m1aac14e36f" x="177.482" y="100.203" style="fill:#aec7e8;stroke:#aec7e8;stroke-linejoin:miter"/><use xlink:href="#m1aac14e36f" x="144.396" y="144.913" style="fill:#aec7e8;stroke:#aec7e8;stroke-linejoin:miter"/><use xlink:href="#m1aac14e36f" x="132.385" y="128.404" style="fill:#aec7e8;stroke:#aec7e8;stroke-linejoin:miter"/><use xlink:href="#m1aac14e36f" x="141.442" y="106.17" style="fill:#aec7e8;stroke:#aec7e8;stroke-linejoin:miter"/><use xlink:href="#m1aac14e36f" x="140.383" y="138.714" style="fill:#aec7e8;stroke:#aec7e8;stroke-linejoin:miter"/><use xlink:href="#m1aac14e36f" x="162.636" y="121.71" style="fill:#aec7e8;stroke:#aec7e8;stroke-linejoin:miter"/><use xlink:href="#m1aac14e36f" x="124.515" y="116.112" style="fill:#aec7e8;stroke:#aec7e8;stroke-linejoin:miter"/><use xlink:href="#m1aac14e36f" x="166.616" y="106.037" style="fill:#aec7e8;stroke:#aec7e8;stroke-linejoin:miter"/><use xlink:href="#m1aac14e36f" x="131.743" y="102.351" style="fill:#aec7e8;stroke:#aec7e8;stroke-linejoin:miter"/><use xlink:href="#m1aac14e36f" x="134.741" y="96.394" style="fill:#aec7e8;stroke:#aec7e8;stroke-linejoin:miter"/><use xlink:href="#m1aac14e36f" x="156.409" y="111.99" style="fill:#aec7e8;stroke:#aec7e8;stroke-linejoin:miter"/><use xlink:href="#m1aac14e36f" x="123.416" y="108.824" style="fill:#aec7e8;stroke:#aec7e8;stroke-linejoin:miter"/><use xlink:href="#m1aac14e36f" x="140.454" y="126.256" style="fill:#aec7e8;stroke:#aec7e8;stroke-linejoin:miter"/><use xlink:href="#m1aac14e36f" x="109.448" y="131.829" style="fill:#aec7e8;stroke:#aec7e8;stroke-linejoin:miter"/><use xlink:href="#m1aac14e36f" x="151.832" y="120.521" style="fill:#aec7e8;stroke:#aec7e8;stroke-linejoin:miter"/><use xlink:href="#m1aac14e36f" x="92.782" y="99.529" style="fill:#aec7e8;stroke:#aec7e8;stroke-linejoin:miter"/><use xlink:href="#m1aac14e36f" x="127.412" y="129.178" style="fill:#aec7e8;stroke:#aec7e8;stroke-linejoin:miter"/><use xlink:href="#m1aac14e36f" x="128.269" y="127.857" style="fill:#aec7e8;stroke:#aec7e8;stroke-linejoin:miter"/><use xlink:href="#m1aac14e36f" x="113.289" y="104.799" style="fill:#aec7e8;stroke:#aec7e8;stroke-linejoin:miter"/><use xlink:href="#m1aac14e36f" x="142.055" y="120.541" style="fill:#aec7e8;stroke:#aec7e8;stroke-linejoin:miter"/><use xlink:href="#m1aac14e36f" x="158.652" y="143.027" style="fill:#aec7e8;stroke:#aec7e8;stroke-linejoin:miter"/><use xlink:href="#m1aac14e36f" x="137.467" y="148.558" style="fill:#aec7e8;stroke:#aec7e8;stroke-linejoin:miter"/><use xlink:href="#m1aac14e36f" x="93.806" y="118.464" style="fill:#aec7e8;stroke:#aec7e8;stroke-linejoin:miter"/><use xlink:href="#m1aac14e36f" x="146.423" y="110.047" style="fill:#aec7e8;stroke:#aec7e8;stroke-linejoin:miter"/><use xlink:href="#m1aac14e36f" x="163.385" y="101.974" style="fill:#aec7e8;stroke:#aec7e8;stroke-linejoin:miter"/><use xlink:href="#m1aac14e36f" x="116.42" y="125.549" style="fill:#aec7e8;stroke:#aec7e8;stroke-linejoin:miter"/><use xlink:href="#m1aac14e36f" x="137.921" y="130.169" style="fill:#aec7e8;stroke:#aec7e8;stroke-linejoin:miter"/><use xlink:href="#m1aac14e36f" x="164.239" y="123.103" style="fill:#aec7e8;stroke:#aec7e8;stroke-linejoin:miter"/><use xlink:href="#m1aac14e36f" x="131.185" y="150.06" style="fill:#aec7e8;stroke:#aec7e8;stroke-linejoin:miter"/><use xlink:href="#m1aac14e36f" x="105.475" y="117.596" style="fill:#aec7e8;stroke:#aec7e8;stroke-linejoin:miter"/><use xlink:href="#m1aac14e36f" x="205.569" y="135.569" style="fill:#aec7e8;stroke:#aec7e8;stroke-linejoin:miter"/><use xlink:href="#m1aac14e36f" x="158.552" y="123.756" style="fill:#aec7e8;stroke:#aec7e8;stroke-linejoin:miter"/><use xlink:href="#m1aac14e36f" x="122.73" y="84.268" style="fill:#aec7e8;stroke:#aec7e8;stroke-linejoin:miter"/><use xlink:href="#m1aac14e36f" x="140.044" y="120.898" style="fill:#aec7e8;stroke:#aec7e8;stroke-linejoin:miter"/><use xlink:href="#m1aac14e36f" x="120.416" y="89.883" style="fill:#aec7e8;stroke:#aec7e8;stroke-linejoin:miter"/><use xlink:href="#m1aac14e36f" x="161.573" y="129.506" style="fill:#aec7e8;stroke:#aec7e8;stroke-linejoin:miter"/><use xlink:href="#m1aac14e36f" x="129.869" y="123.139" style="fill:#aec7e8;stroke:#aec7e8;stroke-linejoin:miter"/><use xlink:href="#m1aac14e36f" x="113.171" y="145.39" style="fill:#aec7e8;stroke:#aec7e8;stroke-linejoin:miter"/><use xlink:href="#m1aac14e36f" x="133.149" y="103.464" style="fill:#aec7e8;stroke:#aec7e8;stroke-linejoin:miter"/><use xlink:href="#m1aac14e36f" x="160.735" y="110.202" style="fill:#aec7e8;stroke:#aec7e8;stroke-linejoin:miter"/><use xlink:href="#m1aac14e36f" x="128.136" y="108.512" style="fill:#aec7e8;stroke:#aec7e8;stroke-linejoin:miter"/><use xlink:href="#m1aac14e36f" x="96.497" y="99.46" style="fill:#aec7e8;stroke:#aec7e8;stroke-linejoin:miter"/><use xlink:href="#m1aac14e36f" x="161.194" y="74.534" style="fill:#aec7e8;stroke:#aec7e8;stroke-linejoin:miter"/><use xlink:href="#m1aac14e36f" x="198.76" y="124.262" style="fill:#aec7e8;stroke:#aec7e8;stroke-linejoin:miter"/><use xlink:href="#m1aac14e36f" x="96.504" y="83.193" style="fill:#aec7e8;stroke:#aec7e8;stroke-linejoin:miter"/><use xlink:href="#m1aac14e36f" x="140.233" y="87.718" style="fill:#aec7e8;stroke:#aec7e8;stroke-linejoin:miter"/><use xlink:href="#m1aac14e36f" x="155.992" y="141.524" style="fill:#aec7e8;stroke:#aec7e8;stroke-linejoin:miter"/><use xlink:href="#m1aac14e36f" x="129.167" y="137.156" style="fill:#aec7e8;stroke:#aec7e8;stroke-linejoin:miter"/><use xlink:href="#m1aac14e36f" x="93.212" y="118" style="fill:#aec7e8;stroke:#aec7e8;stroke-linejoin:miter"/><use xlink:href="#m1aac14e36f" x="170.182" y="129.083" style="fill:#aec7e8;stroke:#aec7e8;stroke-linejoin:miter"/><use xlink:href="#m1aac14e36f" x="118.514" y="78.069" style="fill:#aec7e8;stroke:#aec7e8;stroke-linejoin:miter"/><use xlink:href="#m1aac14e36f" x="139.758" y="118.443" style="fill:#aec7e8;stroke:#aec7e8;stroke-linejoin:miter"/><use xlink:href="#m1aac14e36f" x="226.376" y="94.894" style="fill:#aec7e8;stroke:#aec7e8;stroke-linejoin:miter"/><use xlink:href="#m1aac14e36f" x="99.288" y="156.749" style="fill:#aec7e8;stroke:#aec7e8;stroke-linejoin:miter"/><use xlink:href="#m1aac14e36f" x="144.631" y="126.024" style="fill:#aec7e8;stroke:#aec7e8;stroke-linejoin:miter"/><use xlink:href="#m1aac14e36f" x="113.555" y="70.647" style="fill:#aec7e8;stroke:#aec7e8;stroke-linejoin:miter"/><use xlink:href="#m1aac14e36f" x="132.386" y="98.366" style="fill:#aec7e8;stroke:#aec7e8;stroke-linejoin:miter"/><use xlink:href="#m1aac14e36f" x="166.258" y="86.135" style="fill:#aec7e8;stroke:#aec7e8;stroke-linejoin:miter"/><use xlink:href="#m1aac14e36f" x="160.952" y="105.883" style="fill:#aec7e8;stroke:#aec7e8;stroke-linejoin:miter"/><use xlink:href="#m1aac14e36f" x="156.038" y="93.631" style="fill:#aec7e8;stroke:#aec7e8;stroke-linejoin:miter"/><use xlink:href="#m1aac14e36f" x="120.849" y="124.625" style="fill:#aec7e8;stroke:#aec7e8;stroke-linejoin:miter"/><use xlink:href="#m1aac14e36f" x="165.074" y="125.219" style="fill:#aec7e8;stroke:#aec7e8;stroke-linejoin:miter"/><use xlink:href="#m1aac14e36f" x="167.241" y="124.535" style="fill:#aec7e8;stroke:#aec7e8;stroke-linejoin:miter"/><use xlink:href="#m1aac14e36f" x="114.949" y="64.12" style="fill:#aec7e8;stroke:#aec7e8;stroke-linejoin:miter"/><use xlink:href="#m1aac14e36f" x="123.551" y="132.141" style="fill:#aec7e8;stroke:#aec7e8;stroke-linejoin:miter"/></g></g><path d="M35.53 180.88V58.56" style="fill:none;stroke:#000;stroke-width:.8;stroke-linejoin:miter;stroke-linecap:square" id="patch_3"/><path d="M235.464 180.88V58.56" style="fill:none;stroke:#000;stroke-width:.8;stroke-linejoin:miter;stroke-linecap:square" id="patch_4"/><path d="M35.53 180.88h199.934" style="fill:none;stroke:#000;stroke-width:.8;stroke-linejoin:miter;stroke-linecap:square" id="patch_5"/><path d="M35.53 58.56h199.934" style="fill:none;stroke:#000;stroke-width:.8;stroke-linejoin:miter;stroke-linecap:square" id="patch_6"/><g transform="matrix(.156 0 0 -.156 105.727 52.56)" id="text_9"><defs><path id="MyriadPro-Regular-41" d="M2714 1357 3174 0h596L2298 4314h-672L160 0h576l448 1357h1530zm-1415 435 423 1248c83 262 153 525 217 781h13c64-250 128-506 224-787l422-1242H1299z" transform="scale(.01563)"/><path id="MyriadPro-Regular-78" d="m102 3098 1050-1517L51 0h621l448 698c115 185 224 345 326 537h13c109-185 211-358 333-537L2246 0h640L1798 1600l1056 1498h-608l-435-660c-102-166-205-326-307-512h-19c-103 173-199 333-314 506l-441 666H102z" transform="scale(.01563)"/><path id="MyriadPro-Regular-73" d="M250 147C467 19 781-70 1120-70c736 0 1158 390 1158 934 0 461-275 730-812 934-404 154-589 269-589 525 0 231 185 423 518 423 288 0 512-103 634-180l141 410c-173 102-448 192-762 192-666 0-1069-410-1069-909 0-371 263-678 819-877 416-153 576-300 576-569 0-256-192-461-601-461-282 0-576 115-743 224L250 147z" transform="scale(.01563)"/><path id="MyriadPro-Regular-74" d="M595 3667v-569H115v-429h480V979c0-365 58-640 218-806C947 19 1158-70 1421-70c217 0 390 38 499 83l-26 422c-83-25-172-38-326-38-314 0-422 217-422 601v1671h806v429h-806v742l-551-173z" transform="scale(.01563)"/><path id="MyriadPro-Regular-69" d="M1030 0v3098H467V0h563zM749 4320c-205 0-352-154-352-352 0-192 141-346 339-346 224 0 365 154 358 346 0 198-134 352-345 352z" transform="scale(.01563)"/></defs><use xlink:href="#MyriadPro-Regular-41"/><use xlink:href="#MyriadPro-Regular-78" x="61.2"/><use xlink:href="#MyriadPro-Regular-65" x="107.5"/><use xlink:href="#MyriadPro-Regular-73" x="157.6"/><use xlink:href="#MyriadPro-Regular-20" x="197.2"/><use xlink:href="#MyriadPro-Regular-74" x="218.4"/><use xlink:href="#MyriadPro-Regular-69" x="251.5"/><use xlink:href="#MyriadPro-Regular-74" x="274.9"/><use xlink:href="#MyriadPro-Regular-6c" x="308"/><use xlink:href="#MyriadPro-Regular-65" x="331.6"/></g></g><g id="axes_2"><path d="M280.354 180.88h199.934V58.56H280.354z" style="fill:#fff" id="patch_7"/><path d="M289.442 180.88h10.098v-68.838h-10.098z" clip-path="url(#p0bf05f0c1e)" style="fill:#1f77b4" id="patch_8"/><path d="M329.833 180.88h10.097v-47.657h-10.097z" clip-path="url(#p0bf05f0c1e)" style="fill:#1f77b4" id="patch_9"/><path d="M370.223 180.88h10.098v-31.771h-10.098z" clip-path="url(#p0bf05f0c1e)" style="fill:#1f77b4" id="patch_10"/><path d="M410.614 180.88h10.098V80.27h-10.098z" clip-path="url(#p0bf05f0c1e)" style="fill:#1f77b4" id="patch_11"/><path d="M451.005 180.88h10.097V85.566h-10.097z" clip-path="url(#p0bf05f0c1e)" style="fill:#1f77b4" id="patch_12"/><path d="M299.54 180.88h10.097v-63.543H299.54z" clip-path="url(#p0bf05f0c1e)" style="fill:#ff7f0e" id="patch_13"/><path d="M339.93 180.88h10.098v-31.771H339.93z" clip-path="url(#p0bf05f0c1e)" style="fill:#ff7f0e" id="patch_14"/><path d="M380.321 180.88h10.098v-63.543H380.32z" clip-path="url(#p0bf05f0c1e)" style="fill:#ff7f0e" id="patch_15"/><path d="M420.712 180.88h10.097v-31.771h-10.097z" clip-path="url(#p0bf05f0c1e)" style="fill:#ff7f0e" id="patch_16"/><path d="M461.102 180.88H471.2V64.385h-10.098z" clip-path="url(#p0bf05f0c1e)" style="fill:#ff7f0e" id="patch_17"/><g id="matplotlib.axis_3"><g id="xtick_5"><use xlink:href="#m39fffa7499" x="304.588" y="180.88" style="stroke:#000;stroke-width:.8" id="line2d_10"/><use xlink:href="#MyriadPro-Regular-61" transform="matrix(.13 0 0 -.13 301.455 197.11)" id="text_10"/></g><g id="xtick_6"><use xlink:href="#m39fffa7499" x="344.979" y="180.88" style="stroke:#000;stroke-width:.8" id="line2d_11"/><use xlink:href="#MyriadPro-Regular-62" transform="matrix(.13 0 0 -.13 341.28 197.11)" id="text_11"/></g><g id="xtick_7"><use xlink:href="#m39fffa7499" x="385.37" y="180.88" style="stroke:#000;stroke-width:.8" id="line2d_12"/><g transform="matrix(.13 0 0 -.13 382.458 197.11)" id="text_12"><defs><path id="MyriadPro-Regular-63" d="M2579 538c-160-71-371-154-691-154-614 0-1075 442-1075 1158 0 647 384 1172 1094 1172 307 0 519-71 653-148l128 436c-154 76-448 160-781 160-1011 0-1664-692-1664-1645C243 570 851-70 1786-70c416 0 742 108 889 185l-96 423z" transform="scale(.01563)"/></defs><use xlink:href="#MyriadPro-Regular-63"/></g></g><g id="xtick_8"><use xlink:href="#m39fffa7499" x="425.761" y="180.88" style="stroke:#000;stroke-width:.8" id="line2d_13"/><g transform="matrix(.13 0 0 -.13 422.094 197.11)" id="text_13"><defs><path id="MyriadPro-Regular-64" d="M2579 4544V2694h-13c-140 250-460 474-934 474-755 0-1395-634-1389-1664C243 563 819-70 1568-70c506 0 883 262 1056 608h13l25-538h506c-19 211-26 525-26 800v3744h-563zm0-3245c0-89-6-166-25-243-103-422-448-672-826-672-608 0-915 518-915 1146 0 684 345 1196 928 1196 422 0 729-294 813-652 19-71 25-167 25-237v-538z" transform="scale(.01563)"/></defs><use xlink:href="#MyriadPro-Regular-64"/></g></g><g id="xtick_9"><use xlink:href="#m39fffa7499" x="466.151" y="180.88" style="stroke:#000;stroke-width:.8" id="line2d_14"/><use xlink:href="#MyriadPro-Regular-65" transform="matrix(.13 0 0 -.13 462.895 197.11)" id="text_14"/></g></g><g id="matplotlib.axis_4"><g id="ytick_4"><use xlink:href="#m8f22ccc1be" x="280.354" y="180.88" style="stroke:#000;stroke-width:.8" id="line2d_15"/><use xlink:href="#MyriadPro-Regular-30" transform="matrix(.13 0 0 -.13 266.685 185.495)" id="text_15"/></g><g id="ytick_5"><use xlink:href="#m8f22ccc1be" x="280.354" y="127.928" style="stroke:#000;stroke-width:.8" id="line2d_16"/><g transform="matrix(.13 0 0 -.13 260.017 132.543)" id="text_16"><defs><path id="MyriadPro-Regular-31" d="M1510 0h544v4160h-480l-908-486 108-429 724 390h12V0z" transform="scale(.01563)"/></defs><use xlink:href="#MyriadPro-Regular-31"/><use xlink:href="#MyriadPro-Regular-30" x="51.3"/></g></g><g id="ytick_6"><use xlink:href="#m8f22ccc1be" x="280.354" y="74.975" style="stroke:#000;stroke-width:.8" id="line2d_17"/><g transform="matrix(.13 0 0 -.13 260.017 79.59)" id="text_17"><use xlink:href="#MyriadPro-Regular-32"/><use xlink:href="#MyriadPro-Regular-30" x="51.3"/></g></g></g><path d="M280.354 180.88V58.56" style="fill:none;stroke:#000;stroke-width:.8;stroke-linejoin:miter;stroke-linecap:square" id="patch_18"/><path d="M480.288 180.88V58.56" style="fill:none;stroke:#000;stroke-width:.8;stroke-linejoin:miter;stroke-linecap:square" id="patch_19"/><path d="M280.354 180.88h199.934" style="fill:none;stroke:#000;stroke-width:.8;stroke-linejoin:miter;stroke-linecap:square" id="patch_20"/><path d="M280.354 58.56h199.934" style="fill:none;stroke:#000;stroke-width:.8;stroke-linejoin:miter;stroke-linecap:square" id="patch_21"/></g><g id="axes_3"><path d="M558.425 180.88h133.44V58.56h-133.44z" style="fill:#fff" id="patch_22"/><path d="M637.99 176.578a11.12 11.12 0 1 0 0-22.241 11.12 11.12 0 0 0 0 22.24z" clip-path="url(#pc57e542897)" style="fill:#1f77b4;stroke:#1f77b4;stroke-linejoin:miter" id="patch_23"/><path d="M706.927 177.643a11.12 11.12 0 1 0 0-22.241 11.12 11.12 0 0 0 0 22.24z" clip-path="url(#pc57e542897)" style="fill:#aec7e8;stroke:#aec7e8;stroke-linejoin:miter" id="patch_24"/><path d="M614.35 169.986a11.12 11.12 0 1 0 0-22.241 11.12 11.12 0 0 0 0 22.24z" clip-path="url(#pc57e542897)" style="fill:#ff7f0e;stroke:#ff7f0e;stroke-linejoin:miter" id="patch_25"/><path d="M686.641 136.603a11.12 11.12 0 1 0 0-22.24 11.12 11.12 0 0 0 0 22.24z" clip-path="url(#pc57e542897)" style="fill:#ffbb78;stroke:#ffbb78;stroke-linejoin:miter" id="patch_26"/><path d="M647.051 92.743a11.12 11.12 0 1 0 0-22.241 11.12 11.12 0 0 0 0 22.24z" clip-path="url(#pc57e542897)" style="fill:#2ca02c;stroke:#2ca02c;stroke-linejoin:miter" id="patch_27"/><path d="M612.552 140.767a11.12 11.12 0 1 0 0-22.241 11.12 11.12 0 0 0 0 22.24z" clip-path="url(#pc57e542897)" style="fill:#98df8a;stroke:#98df8a;stroke-linejoin:miter" id="patch_28"/><path d="M620.481 119.722a11.12 11.12 0 1 0 0-22.241 11.12 11.12 0 0 0 0 22.24z" clip-path="url(#pc57e542897)" style="fill:#d62728;stroke:#d62728;stroke-linejoin:miter" id="patch_29"/><path d="M619.812 82.528a11.12 11.12 0 1 0 0-22.24 11.12 11.12 0 0 0 0 22.24z" clip-path="url(#pc57e542897)" style="fill:#ff9896;stroke:#ff9896;stroke-linejoin:miter" id="patch_30"/><path d="M590.711 137.372a11.12 11.12 0 1 0 0-22.241 11.12 11.12 0 0 0 0 22.24z" clip-path="url(#pc57e542897)" style="fill:#9467bd;stroke:#9467bd;stroke-linejoin:miter" id="patch_31"/><path d="M613.347 157.52a11.12 11.12 0 1 0 0-22.242 11.12 11.12 0 0 0 0 22.241z" clip-path="url(#pc57e542897)" style="fill:#c5b0d5;stroke:#c5b0d5;stroke-linejoin:miter" id="patch_32"/><path d="M600.313 121.452a11.12 11.12 0 1 0 0-22.24 11.12 11.12 0 0 0 0 22.24z" clip-path="url(#pc57e542897)" style="fill:#8c564b;stroke:#8c564b;stroke-linejoin:miter" id="patch_33"/><path d="M654.964 134.162a11.12 11.12 0 1 0 0-22.241 11.12 11.12 0 0 0 0 22.24z" clip-path="url(#pc57e542897)" style="fill:#c49c94;stroke:#c49c94;stroke-linejoin:miter" id="patch_34"/><path d="M664.875 155.14a11.12 11.12 0 1 0 0-22.24 11.12 11.12 0 0 0 0 22.24z" clip-path="url(#pc57e542897)" style="fill:#e377c2;stroke:#e377c2;stroke-linejoin:miter" id="patch_35"/><path d="M629.203 151.365a11.12 11.12 0 1 0 0-22.24 11.12 11.12 0 0 0 0 22.24z" clip-path="url(#pc57e542897)" style="fill:#f7b6d2;stroke:#f7b6d2;stroke-linejoin:miter" id="patch_36"/><path d="M541.701 157.752a11.12 11.12 0 1 0 0-22.24 11.12 11.12 0 0 0 0 22.24z" clip-path="url(#pc57e542897)" style="fill:#7f7f7f;stroke:#7f7f7f;stroke-linejoin:miter" id="patch_37"/><g id="matplotlib.axis_5"><g id="xtick_10"><use xlink:href="#m39fffa7499" x="602.905" y="180.88" style="stroke:#000;stroke-width:.8" id="line2d_18"/><use xlink:href="#MyriadPro-Regular-30" transform="matrix(.13 0 0 -.13 599.57 197.11)" id="text_18"/></g><g id="xtick_11"><use xlink:href="#m39fffa7499" x="658.505" y="180.88" style="stroke:#000;stroke-width:.8" id="line2d_19"/><g transform="matrix(.13 0 0 -.13 655.17 197.11)" id="text_19"><defs><path id="MyriadPro-Regular-35" d="M2771 4160H781L512 2163c154 19 339 45 576 45 832 0 1190-384 1197-922 0-556-455-902-986-902-377 0-717 128-889 230L269 186C467 58 851-70 1306-70c902 0 1548 608 1548 1420 0 525-268 884-595 1069-256 154-576 224-896 224-153 0-243-13-339-25l160 1068h1587v474z" transform="scale(.01563)"/></defs><use xlink:href="#MyriadPro-Regular-35"/></g></g></g><g id="matplotlib.axis_6"><g id="ytick_7"><use xlink:href="#m8f22ccc1be" x="558.425" y="180.88" style="stroke:#000;stroke-width:.8" id="line2d_20"/><g transform="matrix(.13 0 0 -.13 537.01 185.495)" id="text_20"><use xlink:href="#MyriadPro-Regular-2212"/><use xlink:href="#MyriadPro-Regular-35" x="59.6"/></g></g><g id="ytick_8"><use xlink:href="#m8f22ccc1be" x="558.425" y="125.28" style="stroke:#000;stroke-width:.8" id="line2d_21"/><use xlink:href="#MyriadPro-Regular-30" transform="matrix(.13 0 0 -.13 544.756 129.895)" id="text_21"/></g><g id="ytick_9"><use xlink:href="#m8f22ccc1be" x="558.425" y="69.68" style="stroke:#000;stroke-width:.8" id="line2d_22"/><use xlink:href="#MyriadPro-Regular-35" transform="matrix(.13 0 0 -.13 544.756 74.295)" id="text_22"/></g></g><path d="M558.425 180.88V58.56" style="fill:none;stroke:#000;stroke-width:.8;stroke-linejoin:miter;stroke-linecap:square" id="patch_38"/><path d="M691.865 180.88V58.56" style="fill:none;stroke:#000;stroke-width:.8;stroke-linejoin:miter;stroke-linecap:square" id="patch_39"/><path d="M558.425 180.88h133.44" style="fill:none;stroke:#000;stroke-width:.8;stroke-linejoin:miter;stroke-linecap:square" id="patch_40"/><path d="M558.425 58.56h133.44" style="fill:none;stroke:#000;stroke-width:.8;stroke-linejoin:miter;stroke-linecap:square" id="patch_41"/></g><g id="axes_4"><path d="M770.002 180.88h199.934V58.56H770.002z" style="fill:#fff" id="patch_42"/><g id="matplotlib.axis_7"><g id="xtick_12"><use xlink:href="#m39fffa7499" x="770.002" y="180.88" style="stroke:#000;stroke-width:.8" id="line2d_23"/><use xlink:href="#MyriadPro-Regular-30" transform="matrix(.13 0 0 -.13 766.668 197.11)" id="text_23"/></g><g id="xtick_13"><use xlink:href="#m39fffa7499" x="833.643" y="180.88" style="stroke:#000;stroke-width:.8" id="line2d_24"/><use xlink:href="#MyriadPro-Regular-32" transform="matrix(.13 0 0 -.13 830.309 197.11)" id="text_24"/></g><g id="xtick_14"><use xlink:href="#m39fffa7499" x="897.284" y="180.88" style="stroke:#000;stroke-width:.8" id="line2d_25"/><use xlink:href="#MyriadPro-Regular-34" transform="matrix(.13 0 0 -.13 893.95 197.11)" id="text_25"/></g><g id="xtick_15"><use xlink:href="#m39fffa7499" x="960.925" y="180.88" style="stroke:#000;stroke-width:.8" id="line2d_26"/><g transform="matrix(.13 0 0 -.13 957.59 197.11)" id="text_26"><defs><path id="MyriadPro-Regular-36" d="M2662 4224c-102 0-243-6-409-32-525-64-986-275-1331-614-410-410-704-1056-704-1876C218 621 800-70 1690-70c864 0 1382 704 1382 1465 0 813-518 1344-1254 1344-461 0-807-217-1005-480h-19c96 685 563 1331 1446 1479 160 25 307 32 422 25v461zM1690 365c-589 0-903 505-916 1190 0 103 26 186 64 250 154 301 468 512 807 512 518 0 857-359 857-954s-326-998-806-998h-6z" transform="scale(.01563)"/></defs><use xlink:href="#MyriadPro-Regular-36"/></g></g></g><g id="matplotlib.axis_8"><g id="ytick_10"><use xlink:href="#m8f22ccc1be" x="770.002" y="175.32" style="stroke:#000;stroke-width:.8" id="line2d_27"/><g transform="matrix(.13 0 0 -.13 748.586 179.935)" id="text_27"><use xlink:href="#MyriadPro-Regular-2212"/><use xlink:href="#MyriadPro-Regular-31" x="59.6"/></g></g><g id="ytick_11"><use xlink:href="#m8f22ccc1be" x="770.002" y="119.72" style="stroke:#000;stroke-width:.8" id="line2d_28"/><use xlink:href="#MyriadPro-Regular-30" transform="matrix(.13 0 0 -.13 756.333 124.335)" id="text_28"/></g><g id="ytick_12"><use xlink:href="#m8f22ccc1be" x="770.002" y="64.12" style="stroke:#000;stroke-width:.8" id="line2d_29"/><use xlink:href="#MyriadPro-Regular-31" transform="matrix(.13 0 0 -.13 756.333 68.735)" id="text_29"/></g></g><path d="m770.002 119.72 4.08-7.11 4.08-6.993 4.08-6.762 4.081-6.419 4.08-5.97 4.08-5.426 4.081-4.79 4.08-4.076 4.08-3.295 4.08-2.46 4.081-1.586 4.08-.684 4.08.228 4.081 1.137 4.08 2.027 4.08 2.884 4.08 3.693 4.081 4.443 4.08 5.118 4.08 5.71 4.081 6.207 4.08 6.604 4.08 6.892 4.08 7.066 4.081 7.124 4.08 7.066 4.08 6.892 4.081 6.604 4.08 6.208 4.08 5.71 4.08 5.117 4.081 4.443 4.08 3.693 4.08 2.884 4.081 2.027 4.08 1.137 4.08.228 4.08-.684 4.081-1.585 4.08-2.46 4.08-3.296 4.081-4.076 4.08-4.79 4.08-5.425 4.08-5.971 4.081-6.42 4.08-6.76 4.08-6.994 4.081-7.11" clip-path="url(#p6b8e9faaa7)" style="fill:none;stroke:#1f77b4;stroke-width:1.5;stroke-linecap:square" id="line2d_30"/><path d="m770.002 102.539 4.08-6.621 4.08-6.23 4.08-5.737 4.081-5.15 4.08-4.478 4.08-3.732 4.081-2.926 4.08-2.07 4.08-1.183 4.08-.274 4.081.639 4.08 1.54 4.08 2.418 4.081 3.255 4.08 4.039 4.08 4.756 4.08 5.395 4.081 5.946 4.08 6.4 4.08 6.746 4.081 6.985 4.08 7.107 4.08 7.112 4.08 7.002 4.081 6.776 4.08 6.439 4.08 5.996 4.081 5.454 4.08 4.824 4.08 4.113 4.08 3.336 4.081 2.503 4.08 1.63 4.08.73 4.081-.183 4.08-1.092 4.08-1.983 4.08-2.842 4.081-3.654 4.08-4.407 4.08-5.086 4.081-5.682 4.08-6.185 4.08-6.587 4.08-6.88 4.081-7.06 4.08-7.124 4.08-7.072 4.081-6.903" clip-path="url(#p6b8e9faaa7)" style="fill:none;stroke:#aec7e8;stroke-width:1.5;stroke-linecap:square" id="line2d_31"/><path d="m770.002 87.04 4.08-5.485 4.08-4.857 4.08-4.15 4.081-3.377 4.08-2.546 4.08-1.674 4.081-.775 4.08.137 4.08 1.047 4.08 1.94 4.081 2.8 4.08 3.614 4.08 4.37 4.081 5.055 4.08 5.654 4.08 6.163 4.08 6.569 4.081 6.868 4.08 7.054 4.08 7.124 4.081 7.077 4.08 6.914 4.08 6.638 4.08 6.252 4.081 5.764 4.08 5.18 4.08 4.514 4.081 3.771 4.08 2.967 4.08 2.115 4.08 1.227 4.081.32 4.08-.593 4.08-1.497 4.081-2.374 4.08-3.214 4.08-4.001 4.08-4.722 4.081-5.365 4.08-5.921 4.08-6.379 4.081-6.732 4.08-6.976 4.08-7.103 4.08-7.115 4.081-7.01 4.08-6.79 4.08-6.458 4.081-6.02" clip-path="url(#p6b8e9faaa7)" style="fill:none;stroke:#ff7f0e;stroke-width:1.5;stroke-linecap:square" id="line2d_32"/><path d="m770.002 74.739 4.08-3.81 4.08-3.009 4.08-2.158 4.081-1.272 4.08-.365 4.08.547 4.081 1.452 4.08 2.331 4.08 3.174 4.08 3.962 4.081 4.688 4.08 5.335 4.08 5.895 4.081 6.359 4.08 6.717 4.08 6.966 4.08 7.1 4.081 7.117 4.08 7.018 4.08 6.804 4.081 6.477 4.08 6.045 4.08 5.513 4.08 4.89 4.081 4.188 4.08 3.416 4.08 2.589 4.081 1.718 4.08.82 4.08-.09 4.08-1.002 4.081-1.895 4.08-2.759 4.08-3.575 4.081-4.334 4.08-5.022 4.08-5.627 4.08-6.14 4.081-6.55 4.08-6.856 4.08-7.047 4.081-7.123 4.08-7.083 4.08-6.925 4.08-6.654 4.081-6.274 4.08-5.79 4.08-5.213 4.081-4.548" clip-path="url(#p6b8e9faaa7)" style="fill:none;stroke:#ffbb78;stroke-width:1.5;stroke-linecap:square" id="line2d_33"/><path d="m770.002 66.841 4.08-1.763 4.08-.865 4.08.045 4.081.957 4.08 1.85 4.08 2.717 4.081 3.536 4.08 4.298 4.08 4.989 4.08 5.598 4.081 6.116 4.08 6.534 4.08 6.843 4.081 7.04 4.08 7.122 4.08 7.087 4.08 6.936 4.081 6.67 4.08 6.296 4.08 5.817 4.081 5.243 4.08 4.584 4.08 3.848 4.08 3.05 4.081 2.202 4.08 1.317 4.08.41 4.081-.501 4.08-1.407 4.08-2.288 4.08-3.133 4.081-3.925 4.08-4.653 4.08-5.304 4.081-5.87 4.08-6.337 4.08-6.702 4.08-6.956 4.081-7.096 4.08-7.12 4.08-7.025 4.081-6.817 4.08-6.497 4.08-6.068 4.08-5.542 4.081-4.924 4.08-4.224 4.08-3.457 4.081-2.63" clip-path="url(#p6b8e9faaa7)" style="fill:none;stroke:#2ca02c;stroke-width:1.5;stroke-linecap:square" id="line2d_34"/><path d="m770.002 64.12 4.08.456 4.08 1.362 4.08 2.245 4.081 3.092 4.08 3.886 4.08 4.619 4.081 5.274 4.08 5.843 4.08 6.317 4.08 6.686 4.081 6.946 4.08 7.092 4.08 7.12 4.081 7.034 4.08 6.83 4.08 6.515 4.08 6.093 4.081 5.57 4.08 4.956 4.08 4.262 4.081 3.496 4.08 2.674 4.08 1.807 4.08.91h4.081l4.08-.91 4.08-1.807 4.081-2.674 4.08-3.496 4.08-4.262 4.08-4.956 4.081-5.57 4.08-6.093 4.08-6.515 4.081-6.83 4.08-7.033 4.08-7.121 4.08-7.092 4.081-6.946 4.08-6.686 4.08-6.317 4.081-5.843 4.08-5.274 4.08-4.619 4.08-3.886 4.081-3.092 4.08-2.245 4.08-1.362 4.081-.456" clip-path="url(#p6b8e9faaa7)" style="fill:none;stroke:#98df8a;stroke-width:1.5;stroke-linecap:square" id="line2d_35"/><path d="m770.002 66.841 4.08 2.631 4.08 3.457 4.08 4.224 4.081 4.924 4.08 5.542 4.08 6.068 4.081 6.497 4.08 6.817 4.08 7.025 4.08 7.12 4.081 7.096 4.08 6.956 4.08 6.702 4.081 6.337 4.08 5.87 4.08 5.304 4.08 4.653 4.081 3.925 4.08 3.133 4.08 2.288 4.081 1.407 4.08.502 4.08-.411 4.08-1.317 4.081-2.202 4.08-3.05 4.08-3.848 4.081-4.584 4.08-5.243 4.08-5.817 4.08-6.296 4.081-6.67 4.08-6.936 4.08-7.087 4.081-7.122 4.08-7.04 4.08-6.843 4.08-6.534 4.081-6.116 4.08-5.598 4.08-4.99 4.081-4.297 4.08-3.536 4.08-2.716 4.08-1.851 4.081-.957 4.08-.045 4.08.865 4.081 1.763" clip-path="url(#p6b8e9faaa7)" style="fill:none;stroke:#d62728;stroke-width:1.5;stroke-linecap:square" id="line2d_36"/><path d="m770.002 74.739 4.08 4.548 4.08 5.212 4.08 5.791 4.081 6.274 4.08 6.654 4.08 6.925 4.081 7.083 4.08 7.123 4.08 7.047 4.08 6.856 4.081 6.55 4.08 6.14 4.08 5.627 4.081 5.022 4.08 4.334 4.08 3.575 4.08 2.759 4.081 1.895 4.08 1.002 4.08.09 4.081-.82 4.08-1.718 4.08-2.589 4.08-3.416 4.081-4.188 4.08-4.89 4.08-5.513 4.081-6.045 4.08-6.477 4.08-6.804 4.08-7.018 4.081-7.117 4.08-7.1 4.08-6.966 4.081-6.717 4.08-6.359 4.08-5.895 4.08-5.335 4.081-4.688 4.08-3.962 4.08-3.174 4.081-2.331 4.08-1.452 4.08-.547 4.08.365 4.081 1.272 4.08 2.158 4.08 3.009 4.081 3.81" clip-path="url(#p6b8e9faaa7)" style="fill:none;stroke:#ff9896;stroke-width:1.5;stroke-linecap:square" id="line2d_37"/><path d="m770.002 87.04 4.08 6.02 4.08 6.458 4.08 6.79 4.081 7.01 4.08 7.115 4.08 7.103 4.081 6.976 4.08 6.732 4.08 6.379 4.08 5.92 4.081 5.366 4.08 4.722 4.08 4 4.081 3.215 4.08 2.374 4.08 1.497 4.08.593 4.081-.32 4.08-1.227 4.08-2.115 4.081-2.967 4.08-3.771 4.08-4.513 4.08-5.181 4.081-5.764 4.08-6.252 4.08-6.638 4.081-6.914 4.08-7.077 4.08-7.124 4.08-7.054 4.081-6.868 4.08-6.57 4.08-6.162 4.081-5.654 4.08-5.054 4.08-4.37 4.08-3.616 4.081-2.8 4.08-1.94 4.08-1.046 4.081-.137 4.08.775 4.08 1.674 4.08 2.546 4.081 3.377 4.08 4.15 4.08 4.857 4.081 5.484" clip-path="url(#p6b8e9faaa7)" style="fill:none;stroke:#9467bd;stroke-width:1.5;stroke-linecap:square" id="line2d_38"/><path d="m770.002 102.539 4.08 6.903 4.08 7.072 4.08 7.124 4.081 7.06 4.08 6.88 4.08 6.587 4.081 6.185 4.08 5.682 4.08 5.086 4.08 4.407 4.081 3.654 4.08 2.842 4.08 1.983 4.081 1.092 4.08.183 4.08-.73 4.08-1.63 4.081-2.503 4.08-3.336 4.08-4.113 4.081-4.824 4.08-5.454 4.08-5.996 4.08-6.439 4.081-6.776 4.08-7.002 4.08-7.112 4.081-7.107 4.08-6.985 4.08-6.747 4.08-6.399 4.081-5.946 4.08-5.395 4.08-4.756 4.081-4.039 4.08-3.255 4.08-2.417 4.08-1.541 4.081-.639 4.08.274 4.08 1.182 4.081 2.071 4.08 2.926 4.08 3.732 4.08 4.478 4.081 5.15 4.08 5.737 4.08 6.23 4.081 6.62" clip-path="url(#p6b8e9faaa7)" style="fill:none;stroke:#c5b0d5;stroke-width:1.5;stroke-linecap:square" id="line2d_39"/><path d="m770.002 119.72 4.08 7.11 4.08 6.993 4.08 6.762 4.081 6.419 4.08 5.97 4.08 5.426 4.081 4.79 4.08 4.076 4.08 3.295 4.08 2.46 4.081 1.586 4.08.684 4.08-.228 4.081-1.137 4.08-2.027 4.08-2.884 4.08-3.693 4.081-4.443 4.08-5.118 4.08-5.71 4.081-6.207 4.08-6.604 4.08-6.892 4.08-7.066 4.081-7.124 4.08-7.066 4.08-6.892 4.081-6.604 4.08-6.208 4.08-5.71 4.08-5.117 4.081-4.443 4.08-3.693 4.08-2.884 4.081-2.027 4.08-1.137 4.08-.228 4.08.684 4.081 1.585 4.08 2.46 4.08 3.296 4.081 4.076 4.08 4.79 4.08 5.425 4.08 5.971 4.081 6.42 4.08 6.76 4.08 6.994 4.081 7.11" clip-path="url(#p6b8e9faaa7)" style="fill:none;stroke:#8c564b;stroke-width:1.5;stroke-linecap:square" id="line2d_40"/><path d="m770.002 136.901 4.08 6.621 4.08 6.23 4.08 5.737 4.081 5.15 4.08 4.478 4.08 3.732 4.081 2.926 4.08 2.07 4.08 1.183 4.08.274 4.081-.639 4.08-1.54 4.08-2.418 4.081-3.255 4.08-4.039 4.08-4.756 4.08-5.395 4.081-5.946 4.08-6.4 4.08-6.746 4.081-6.985 4.08-7.107 4.08-7.112 4.08-7.002 4.081-6.776 4.08-6.439 4.08-5.996 4.081-5.454 4.08-4.824 4.08-4.113 4.08-3.336 4.081-2.503 4.08-1.63 4.08-.73 4.081.183 4.08 1.092 4.08 1.983 4.08 2.842 4.081 3.654 4.08 4.407 4.08 5.086 4.081 5.682 4.08 6.185 4.08 6.587 4.08 6.88 4.081 7.06 4.08 7.124 4.08 7.072 4.081 6.903" clip-path="url(#p6b8e9faaa7)" style="fill:none;stroke:#c49c94;stroke-width:1.5;stroke-linecap:square" id="line2d_41"/><path d="m770.002 152.4 4.08 5.485 4.08 4.857 4.08 4.15 4.081 3.377 4.08 2.546 4.08 1.674 4.081.775 4.08-.137 4.08-1.047 4.08-1.94 4.081-2.8 4.08-3.614 4.08-4.37 4.081-5.055 4.08-5.654 4.08-6.163 4.08-6.569 4.081-6.868 4.08-7.054 4.08-7.124 4.081-7.077 4.08-6.914 4.08-6.638 4.08-6.252 4.081-5.764 4.08-5.18 4.08-4.514 4.081-3.771 4.08-2.967 4.08-2.115 4.08-1.227 4.081-.32 4.08.593 4.08 1.497 4.081 2.374 4.08 3.214 4.08 4.001 4.08 4.722 4.081 5.365 4.08 5.921 4.08 6.379 4.081 6.732 4.08 6.976 4.08 7.103 4.08 7.115 4.081 7.01 4.08 6.79 4.08 6.458 4.081 6.02" clip-path="url(#p6b8e9faaa7)" style="fill:none;stroke:#e377c2;stroke-width:1.5;stroke-linecap:square" id="line2d_42"/><path d="m770.002 164.701 4.08 3.81 4.08 3.009 4.08 2.158 4.081 1.272 4.08.365 4.08-.547 4.081-1.452 4.08-2.331 4.08-3.174 4.08-3.962 4.081-4.688 4.08-5.335 4.08-5.895 4.081-6.359 4.08-6.717 4.08-6.966 4.08-7.1 4.081-7.117 4.08-7.018 4.08-6.804 4.081-6.477 4.08-6.045 4.08-5.513 4.08-4.89 4.081-4.188 4.08-3.416 4.08-2.589 4.081-1.718 4.08-.82 4.08.09 4.08 1.002 4.081 1.895 4.08 2.759 4.08 3.575 4.081 4.334 4.08 5.022 4.08 5.627 4.08 6.14 4.081 6.55 4.08 6.856 4.08 7.047 4.081 7.123 4.08 7.083 4.08 6.925 4.08 6.654 4.081 6.274 4.08 5.79 4.08 5.213 4.081 4.548" clip-path="url(#p6b8e9faaa7)" style="fill:none;stroke:#f7b6d2;stroke-width:1.5;stroke-linecap:square" id="line2d_43"/><path d="m770.002 172.599 4.08 1.763 4.08.865 4.08-.045 4.081-.957 4.08-1.85 4.08-2.717 4.081-3.536 4.08-4.298 4.08-4.989 4.08-5.598 4.081-6.116 4.08-6.534 4.08-6.843 4.081-7.04 4.08-7.122 4.08-7.087 4.08-6.936 4.081-6.67 4.08-6.296 4.08-5.817 4.081-5.243 4.08-4.584 4.08-3.848 4.08-3.05 4.081-2.202 4.08-1.317 4.08-.41 4.081.501 4.08 1.407 4.08 2.288 4.08 3.133 4.081 3.925 4.08 4.653 4.08 5.304 4.081 5.87 4.08 6.337 4.08 6.702 4.08 6.956 4.081 7.096 4.08 7.12 4.08 7.025 4.081 6.817 4.08 6.497 4.08 6.068 4.08 5.542 4.081 4.924 4.08 4.224 4.08 3.457 4.081 2.63" clip-path="url(#p6b8e9faaa7)" style="fill:none;stroke:#7f7f7f;stroke-width:1.5;stroke-linecap:square" id="line2d_44"/><path d="m770.002 175.32 4.08-.456 4.08-1.362 4.08-2.245 4.081-3.092 4.08-3.886 4.08-4.619 4.081-5.274 4.08-5.843 4.08-6.317 4.08-6.686 4.081-6.946 4.08-7.092 4.08-7.12 4.081-7.034 4.08-6.83 4.08-6.515 4.08-6.093 4.081-5.57 4.08-4.956 4.08-4.262 4.081-3.496 4.08-2.674 4.08-1.807 4.08-.91h4.081l4.08.91 4.08 1.808 4.081 2.673 4.08 3.496 4.08 4.262 4.08 4.956 4.081 5.57 4.08 6.093 4.08 6.515 4.081 6.83 4.08 7.033 4.08 7.121 4.08 7.092 4.081 6.946 4.08 6.686 4.08 6.317 4.081 5.843 4.08 5.274 4.08 4.619 4.08 3.886 4.081 3.092 4.08 2.245 4.08 1.362 4.081.456" clip-path="url(#p6b8e9faaa7)" style="fill:none;stroke:#c7c7c7;stroke-width:1.5;stroke-linecap:square" id="line2d_45"/><path d="m770.002 172.599 4.08-2.631 4.08-3.457 4.08-4.224 4.081-4.924 4.08-5.542 4.08-6.068 4.081-6.497 4.08-6.817 4.08-7.025 4.08-7.12 4.081-7.096 4.08-6.956 4.08-6.702 4.081-6.337 4.08-5.87 4.08-5.304 4.08-4.653 4.081-3.925 4.08-3.133 4.08-2.288 4.081-1.407 4.08-.502 4.08.411 4.08 1.317 4.081 2.202 4.08 3.05 4.08 3.848 4.081 4.584 4.08 5.243 4.08 5.817 4.08 6.296 4.081 6.67 4.08 6.936 4.08 7.087 4.081 7.122 4.08 7.04 4.08 6.843 4.08 6.534 4.081 6.116 4.08 5.598 4.08 4.99 4.081 4.297 4.08 3.536 4.08 2.716 4.08 1.851 4.081.957 4.08.045 4.08-.865 4.081-1.763" clip-path="url(#p6b8e9faaa7)" style="fill:none;stroke:#bcbd22;stroke-width:1.5;stroke-linecap:square" id="line2d_46"/><path d="m770.002 164.701 4.08-4.548 4.08-5.212 4.08-5.791 4.081-6.274 4.08-6.654 4.08-6.925 4.081-7.083 4.08-7.123 4.08-7.047 4.08-6.856 4.081-6.55 4.08-6.14 4.08-5.627 4.081-5.022 4.08-4.334 4.08-3.575 4.08-2.759 4.081-1.895 4.08-1.002 4.08-.09 4.081.82 4.08 1.718 4.08 2.589 4.08 3.416 4.081 4.188 4.08 4.89 4.08 5.513 4.081 6.045 4.08 6.477 4.08 6.804 4.08 7.018 4.081 7.117 4.08 7.1 4.08 6.966 4.081 6.717 4.08 6.359 4.08 5.895 4.08 5.335 4.081 4.688 4.08 3.962 4.08 3.174 4.081 2.331 4.08 1.452 4.08.547 4.08-.365 4.081-1.272 4.08-2.158 4.08-3.009 4.081-3.81" clip-path="url(#p6b8e9faaa7)" style="fill:none;stroke:#dbdb8d;stroke-width:1.5;stroke-linecap:square" id="line2d_47"/><path d="m770.002 152.4 4.08-6.02 4.08-6.458 4.08-6.79 4.081-7.01 4.08-7.115 4.08-7.103 4.081-6.976 4.08-6.732 4.08-6.379 4.08-5.92 4.081-5.366 4.08-4.722 4.08-4 4.081-3.215 4.08-2.374 4.08-1.497 4.08-.593 4.081.32 4.08 1.227 4.08 2.115 4.081 2.967 4.08 3.771 4.08 4.513 4.08 5.181 4.081 5.764 4.08 6.252 4.08 6.638 4.081 6.914 4.08 7.077 4.08 7.124 4.08 7.054 4.081 6.868 4.08 6.57 4.08 6.162 4.081 5.654 4.08 5.054 4.08 4.37 4.08 3.616 4.081 2.8 4.08 1.94 4.08 1.046 4.081.137 4.08-.775 4.08-1.674 4.08-2.546 4.081-3.377 4.08-4.15 4.08-4.857 4.081-5.484" clip-path="url(#p6b8e9faaa7)" style="fill:none;stroke:#17becf;stroke-width:1.5;stroke-linecap:square" id="line2d_48"/><path d="m770.002 136.901 4.08-6.903 4.08-7.072 4.08-7.124 4.081-7.06 4.08-6.88 4.08-6.587 4.081-6.185 4.08-5.682 4.08-5.086 4.08-4.407 4.081-3.654 4.08-2.842 4.08-1.983 4.081-1.092 4.08-.183 4.08.73 4.08 1.63 4.081 2.503 4.08 3.336 4.08 4.113 4.081 4.824 4.08 5.454 4.08 5.996 4.08 6.439 4.081 6.776 4.08 7.002 4.08 7.112 4.081 7.107 4.08 6.985 4.08 6.747 4.08 6.399 4.081 5.946 4.08 5.395 4.08 4.756 4.081 4.039 4.08 3.255 4.08 2.417 4.08 1.541 4.081.639 4.08-.274 4.08-1.182 4.081-2.071 4.08-2.926 4.08-3.732 4.08-4.478 4.081-5.15 4.08-5.737 4.08-6.23 4.081-6.62" clip-path="url(#p6b8e9faaa7)" style="fill:none;stroke:#9edae5;stroke-width:1.5;stroke-linecap:square" id="line2d_49"/><path d="M770.002 180.88V58.56" style="fill:none;stroke:#000;stroke-width:.8;stroke-linejoin:miter;stroke-linecap:square" id="patch_43"/><path d="M969.936 180.88V58.56" style="fill:none;stroke:#000;stroke-width:.8;stroke-linejoin:miter;stroke-linecap:square" id="patch_44"/><path d="M770.002 180.88h199.934" style="fill:none;stroke:#000;stroke-width:.8;stroke-linejoin:miter;stroke-linecap:square" id="patch_45"/><path d="M770.002 58.56h199.934" style="fill:none;stroke:#000;stroke-width:.8;stroke-linejoin:miter;stroke-linecap:square" id="patch_46"/></g><g id="axes_5"><path d="M1014.826 180.88h199.934V58.56h-199.934z" style="fill:#fff" id="patch_47"/><path d="M1050.537 180.88v-.217h4.706v-.13h4.707v-.737h4.707v-.693h4.706v-1.691h4.707v-2.688h4.707v-2.904h4.706v-2.168h4.707v-5.505h4.706v-6.59h4.707v-2.21h4.707v-5.722h4.706v-2.991h4.707v-1.647h4.707v-.737h4.706v.39h4.707v2.557h4.707v2.861h4.706v3.165h4.707v6.502h4.707v4.899h4.706v5.115h4.707v3.035h4.706v3.294h4.707v1.517h4.707v1.995h9.413v.78h4.707v.347h4.706v.086h4.707v.087H1055.243z" clip-path="url(#p6034b33596)" style="fill:#1f77b4;opacity:.8" id="patch_48"/><path d="M1024.224 180.88v-.776h4.468v-2.65h4.467v-4.703h4.467v-6.577h4.468v-8.678h4.467v-8.083h4.468v-3.654h4.467v-3.79h4.467v-1.69h4.468v.958h4.467v3.015h4.468v2.238h4.467v3.927h4.467v5.755h4.468v2.923h4.467v3.7h4.468v2.054h4.467v5.024h4.467v2.832h4.468v1.964h4.467v1.78h4.468v2.01h4.467v-.182h4.467v1.005h4.468v.639h4.467v.502h4.468v.274h8.934v.092h4.468v-.046h4.467v.137h-129.554z" clip-path="url(#p6034b33596)" style="fill:#aec7e8;opacity:.8" id="patch_49"/><path d="M1141.405 180.88v-.286h2.143v-.571h2.142v-.381h2.142v.476h2.142v-2.762h2.143v-1.905h2.142v-2.857h2.142v-1.62h2.142v-5.142h2.142v-5.048h2.143v-7.81h2.142v-8.762h2.142v-10.287h2.142v-7.429h2.143v-4.857h2.142V106.4h2.142v-6.286h2.142v-2.286h2.142V96.21h2.143v5.429h2.142v6.762h2.142v12h2.142v13.335h2.143v12.572h2.142v13.048h2.142v8.381h2.142v6.667h2.142v4.191h2.143v1.238h2.142v.572h2.142v.476H1143.548z" clip-path="url(#p6034b33596)" style="fill:#ff7f0e;opacity:.8" id="patch_50"/><path d="M1023.914 180.88v-2.38h1.886v-7.788h1.886V157.3h1.887v-23.797h1.886v-21.309h1.886v-31.26h1.887v-9.086h1.886v-4.543h1.886v-2.92h1.886v8.545h1.887v16.55h1.886v19.47h1.886v14.818h1.886v12.223h1.887v6.274h1.886v12.114h1.886v8.978h1.887v7.355h1.886v2.813h1.886v1.947h1.886v1.406h1.887v1.622h1.886v.65h1.886v.648h1.886v.109h1.887v.108h1.886v.757h1.886v-.108h1.887v.108h3.772v.108H1025.8z" clip-path="url(#p6034b33596)" style="fill:#ffbb78;opacity:.8" id="patch_51"/><g id="matplotlib.axis_9"><g id="xtick_16"><use xlink:href="#m39fffa7499" x="1021.887" y="180.88" style="stroke:#000;stroke-width:.8" id="line2d_50"/><g transform="matrix(.13 0 0 -.13 1010.539 197.11)" id="text_30"><defs><path id="MyriadPro-Regular-2e" d="M710-70c237 0 384 172 384 403 0 237-153 403-377 403S333 570 333 333c0-231 153-403 371-403h6z" transform="scale(.01563)"/></defs><use xlink:href="#MyriadPro-Regular-30"/><use xlink:href="#MyriadPro-Regular-2e" x="51.3"/><use xlink:href="#MyriadPro-Regular-30" x="72"/><use xlink:href="#MyriadPro-Regular-30" x="123.3"/></g></g><g id="xtick_17"><use xlink:href="#m39fffa7499" x="1070.3" y="180.88" style="stroke:#000;stroke-width:.8" id="line2d_51"/><g transform="matrix(.13 0 0 -.13 1058.952 197.11)" id="text_31"><use xlink:href="#MyriadPro-Regular-30"/><use xlink:href="#MyriadPro-Regular-2e" x="51.3"/><use xlink:href="#MyriadPro-Regular-32" x="72"/><use xlink:href="#MyriadPro-Regular-35" x="123.3"/></g></g><g id="xtick_18"><use xlink:href="#m39fffa7499" x="1118.713" y="180.88" style="stroke:#000;stroke-width:.8" id="line2d_52"/><g transform="matrix(.13 0 0 -.13 1107.365 197.11)" id="text_32"><use xlink:href="#MyriadPro-Regular-30"/><use xlink:href="#MyriadPro-Regular-2e" x="51.3"/><use xlink:href="#MyriadPro-Regular-35" x="72"/><use xlink:href="#MyriadPro-Regular-30" x="123.3"/></g></g><g id="xtick_19"><use xlink:href="#m39fffa7499" x="1167.126" y="180.88" style="stroke:#000;stroke-width:.8" id="line2d_53"/><g transform="matrix(.13 0 0 -.13 1155.778 197.11)" id="text_33"><defs><path id="MyriadPro-Regular-37" d="M365 4160v-467h2035v-13L595 0h583l1811 3789v371H365z" transform="scale(.01563)"/></defs><use xlink:href="#MyriadPro-Regular-30"/><use xlink:href="#MyriadPro-Regular-2e" x="51.3"/><use xlink:href="#MyriadPro-Regular-37" x="72"/><use xlink:href="#MyriadPro-Regular-35" x="123.3"/></g></g></g><g id="matplotlib.axis_10"><g id="ytick_13"><use xlink:href="#m8f22ccc1be" x="1014.826" y="180.88" style="stroke:#000;stroke-width:.8" id="line2d_54"/><use xlink:href="#MyriadPro-Regular-30" transform="matrix(.13 0 0 -.13 1001.157 185.495)" id="text_34"/></g><g id="ytick_14"><use xlink:href="#m8f22ccc1be" x="1014.826" y="128.2" style="stroke:#000;stroke-width:.8" id="line2d_55"/><use xlink:href="#MyriadPro-Regular-35" transform="matrix(.13 0 0 -.13 1001.157 132.815)" id="text_35"/></g><g id="ytick_15"><use xlink:href="#m8f22ccc1be" x="1014.826" y="75.52" style="stroke:#000;stroke-width:.8" id="line2d_56"/><g transform="matrix(.13 0 0 -.13 994.489 80.135)" id="text_36"><use xlink:href="#MyriadPro-Regular-31"/><use xlink:href="#MyriadPro-Regular-30" x="51.3"/></g></g></g><path d="M1014.826 180.88V58.56" style="fill:none;stroke:#000;stroke-width:.8;stroke-linejoin:miter;stroke-linecap:square" id="patch_52"/><path d="M1214.76 180.88V58.56" style="fill:none;stroke:#000;stroke-width:.8;stroke-linejoin:miter;stroke-linecap:square" id="patch_53"/><path d="M1014.826 180.88h199.934" style="fill:none;stroke:#000;stroke-width:.8;stroke-linejoin:miter;stroke-linecap:square" id="patch_54"/><path d="M1014.826 58.56h199.934" style="fill:none;stroke:#000;stroke-width:.8;stroke-linejoin:miter;stroke-linecap:square" id="patch_55"/><g id="patch_56"><path d="m1138.793 88.143-65.94 46.172M1078.604 133.462l-5.751.853 2.768-5.113" style="fill:none;stroke:#000;stroke-linecap:round"/></g><g id="text_37"><path d="M1132.976 86.496h61.79q3.9 0 3.9-3.9V70.792q0-3.9-3.9-3.9h-61.79q-3.9 0-3.9 3.9v11.804q0 3.9 3.9 3.9z" style="fill:#1f77b4;opacity:.2;stroke:#000;stroke-linejoin:miter" id="patch_57"/><g transform="matrix(.13 0 0 -.13 1132.976 80.022)"><defs><path id="MyriadPro-Regular-6e" d="M467 0h563v1862c0 96 13 192 39 263 96 313 384 576 755 576 531 0 717-416 717-915V0h563v1850c0 1062-666 1318-1094 1318-512 0-871-288-1024-582h-13l-32 512H442c19-256 25-519 25-839V0z" transform="scale(.01563)"/><path id="MyriadPro-Regular-6f" d="M1779 3168c-857 0-1536-608-1536-1645C243 544 890-70 1728-70c749 0 1542 499 1542 1644 0 948-601 1594-1491 1594zm-13-422c666 0 928-666 928-1191 0-697-403-1203-940-1203-551 0-941 512-941 1190 0 589 288 1204 953 1204z" transform="scale(.01563)"/></defs><use xlink:href="#MyriadPro-Regular-41"/><use xlink:href="#MyriadPro-Regular-6e" x="61.2"/><use xlink:href="#MyriadPro-Regular-6e" x="116.7"/><use xlink:href="#MyriadPro-Regular-6f" x="172.2"/><use xlink:href="#MyriadPro-Regular-74" x="227.1"/><use xlink:href="#MyriadPro-Regular-61" x="260.2"/><use xlink:href="#MyriadPro-Regular-74" x="308.4"/><use xlink:href="#MyriadPro-Regular-69" x="341.5"/><use xlink:href="#MyriadPro-Regular-6f" x="364.9"/><use xlink:href="#MyriadPro-Regular-6e" x="419.8"/></g></g></g><g transform="matrix(.156 0 0 -.156 578.864 15.684)" id="text_38"><defs><path id="MyriadPro-Regular-54" d="M1306 0h563v3840h1318v474H-6v-474h1312V0z" transform="scale(.01563)"/><path id="MyriadPro-Regular-75" d="M3059 3098h-563V1197c0-103-19-205-51-288-103-250-365-512-743-512-512 0-691 397-691 985v1716H448V1286C448 198 1030-70 1517-70c550 0 877 326 1024 576h13l32-506h499c-19 243-26 525-26 845v2253z" transform="scale(.01563)"/></defs><use xlink:href="#MyriadPro-Regular-54"/><use xlink:href="#MyriadPro-Regular-61" x="49.7"/><use xlink:href="#MyriadPro-Regular-62" x="97.9"/><use xlink:href="#MyriadPro-Regular-6c" x="154.8"/><use xlink:href="#MyriadPro-Regular-65" x="178.4"/><use xlink:href="#MyriadPro-Regular-61" x="228.5"/><use xlink:href="#MyriadPro-Regular-75" x="276.7"/><use xlink:href="#MyriadPro-Regular-20" x="331.8"/><use xlink:href="#MyriadPro-Regular-32" x="353"/><use xlink:href="#MyriadPro-Regular-30" x="404.3"/></g></g><defs><clipPath id="p70ce8b34fb"><path d="M35.53 58.56h199.934v122.32H35.53z"/></clipPath><clipPath id="p0bf05f0c1e"><path d="M280.354 58.56h199.934v122.32H280.354z"/></clipPath><clipPath id="pc57e542897"><path d="M558.425 58.56h133.44v122.32h-133.44z"/></clipPath><clipPath id="p6b8e9faaa7"><path d="M770.002 58.56h199.934v122.32H770.002z"/></clipPath><clipPath id="p6034b33596"><path d="M1014.826 58.56h199.934v122.32h-199.934z"/></clipPath></defs></svg>